<?xml version="1.0" encoding="utf-8"?>
<!-- Generator: Adobe Illustrator 27.9.0, SVG Export Plug-In . SVG Version: 6.00 Build 0)  -->
<svg version="1.1" id="Lag_1" xmlns="http://www.w3.org/2000/svg" xmlns:xlink="http://www.w3.org/1999/xlink" x="0px" y="0px"
	 viewBox="0 0 561 596.2" style="enable-background:new 0 0 561 596.2;" xml:space="preserve">
<style type="text/css">
	.st0{fill:url(#SVGID_1_);}
	.st1{clip-path:url(#SVGID_00000072240889126749022800000011056523448935980734_);}
	.st2{fill:#494F47;}
	.st3{fill:#B6BECD;}
	.st4{fill:#081925;}
	.st5{fill:#092332;}
	.st6{fill:#D5DBE4;}
	.st7{fill:#0F3849;}
	.st8{fill:#424242;}
	.st9{fill:#30332D;}
	.st10{fill:#393D38;}
</style>
<g>
	<g>
		
			<linearGradient id="SVGID_1_" gradientUnits="userSpaceOnUse" x1="-101.5864" y1="331.464" x2="316.6195" y2="331.464" gradientTransform="matrix(-2.593545e-02 -0.9997 0.9997 -2.593545e-02 -49.0147 466.5399)">
			<stop  offset="0.3566" style="stop-color:#D3D2D2"/>
			<stop  offset="1" style="stop-color:#FAFAFD"/>
		</linearGradient>
		<path class="st0" d="M488.6,345L488.6,345c3,115.4-88.2,211.5-203.6,214.5h0c-115.4,3-211.5-88.2-214.5-203.6l0,0
			c-3-115.4,88.2-211.5,203.6-214.5l0,0C389.6,138.4,485.6,229.6,488.6,345z"/>
		<g>
			<defs>
				<path id="SVGID_00000155111700617415379200000010517413052500143791_" d="M489,345.4L489,345.4c3,115.4-88.2,211.5-203.6,214.5
					h0c-115.4,3-211.5-88.2-214.5-203.6l0,0c-2-76,15-247.7,74.7-285.9c31-19.8,110.7-33,150.2-34.1l60.1,31.3
					C471.2,64.6,486,230,489,345.4z"/>
			</defs>
			<clipPath id="SVGID_00000179634504582030402060000007036600287883609247_">
				<use xlink:href="#SVGID_00000155111700617415379200000010517413052500143791_"  style="overflow:visible;"/>
			</clipPath>
			<g style="clip-path:url(#SVGID_00000179634504582030402060000007036600287883609247_);">
				<path class="st2" d="M385.3,152.8c-1.6-3.4-3.3-6-4.6-7.8c58.6-67.4,44.6,122.2,9.5,143.4C368.7,210.3,399.2,190.9,385.3,152.8z
					"/>
				<path class="st3" d="M387.7,189c4.3,9.9,7.8,20.1,10.9,30.5c2.1,7,3.9,14,5.6,21.1c1.5,6.5,2.4,13.2,3.6,19.8
					c-4.8,13.6-10.8,23.9-17.6,28C376.2,237.4,384.3,211.5,387.7,189z"/>
				<path class="st4" d="M404.9,134.5c4.2,1.4,6.2,6.1,7.4,9.6c2.3,6.3,5.2,13.5,5.4,34.8c0.1,8.6,0.1,13.4-0.4,20.4
					c-2,25-9,43.9-14.8,59.2c-3.6,9.5-8.9,22.1-16.6,36.5c1.9,2.5,3.9,5,5.8,7.5c4.3-7.4,10.7-19.2,16.8-34.4
					c21.3-53.3,26.8-118.8,3.4-140.9c-1.2-1.1-3.9-3.5-7.8-5.9c-1.9-1.2-23.6-14.5-44.9-5.2c-5.9,2.6-11,6.6-15.7,10.9
					c-7.4,6.7-14.3,14.2-18.7,23.1c15,4.6,30,9.1,44.9,13.7C373.5,158.1,392.7,130.3,404.9,134.5z"/>
				<path class="st3" d="M341.2,128.9c5.6,1.1,11.7,2.5,18.2,4.3c6.2,1.8,11.8,3.7,17,5.7c2.3-3,8.7-10.2,19.4-13.2
					c5.3-1.5,10-1.5,13.2-1.2c0.5,0.4,1.1,0.9,1.8,1.4c0.5,0.4,0.9,0.8,1.2,1.1c23.4,22.2,17.9,87.7-3.4,140.9
					c-6.1,15.2-12.5,27-16.8,34.4c-1.9-2.5-3.9-5-5.8-7.5c7.7-14.4,13-27,16.6-36.5c5.7-15.2,12.8-34.2,14.8-59.2
					c0.6-7,0.5-11.8,0.4-20.4c-0.2-21.3-3.1-28.5-5.4-34.8c-1.2-3.4-3.2-8.1-7.4-9.6c-12.2-4.2-31.4,23.6-35.2,29.2
					c-15-4.6-30-9.1-44.9-13.7c1.6-3,3.6-6.3,6.1-9.7C334.4,135.5,338,131.8,341.2,128.9z"/>
				<path class="st4" d="M318,117.1c-16-17.4-46.7-11.9-54.5-10.5c-6.8,1.2-13.8,3-19.3,7.4c-10.8,8.7-11.1,23.7-11.1,26
					c-0.1,3.6,0.3,6.5,0.7,8.5c2.4-0.4,4.9-0.8,7.3-1.2c-0.4-1.7-1-5.3,0.3-9.5c1.8-5.8,5.9-9,7.3-9.8c3.6-2.1,7.9-3,12-3.7
					c16.5-2.8,24.9-2.6,29.7-2.2c12.2,1.1,18.3,1.6,23,6.6c5.6,6,5.4,14.4,5.2,18c0.2-0.2,1.7-1.4,3.8-1.1c1.9,0.3,2.9,1.6,3.1,1.9
					c0.9-3,2.1-8.9,0.5-15.8C324.1,123.9,319.8,119.1,318,117.1z"/>
				<path class="st2" d="M173.8,152.8c1.6-3.4,3.3-6,4.6-7.8c-58.6-67.4-44.6,122.2-9.5,143.4C190.4,210.3,159.9,190.9,173.8,152.8z
					"/>
				<path class="st3" d="M171.4,189c-4.3,9.9-7.8,20.1-10.9,30.5c-2.1,7-3.9,14-5.6,21.1c-1.5,6.5-2.4,13.2-3.6,19.8
					c4.8,13.6,10.8,23.9,17.6,28C182.9,237.4,174.8,211.5,171.4,189z"/>
				<path class="st4" d="M154.2,134.5c-4.2,1.4-6.2,6.1-7.4,9.6c-2.3,6.3-5.2,13.5-5.4,34.8c-0.1,8.6-0.1,13.4,0.4,20.4
					c2,25,9,43.9,14.8,59.2c3.6,9.5,8.9,22.1,16.6,36.5c-1.9,2.5-3.9,5-5.8,7.5c-4.3-7.4-10.7-19.2-16.8-34.4
					c-21.3-53.3-26.8-118.8-3.4-140.9c1.2-1.1,3.9-3.5,7.8-5.9c1.9-1.2,23.6-14.5,44.9-5.2c5.9,2.6,11,6.6,15.7,10.9
					c7.4,6.7,14.3,14.2,18.7,23.1c-15,4.6-30,9.1-44.9,13.7C185.6,158.1,166.4,130.3,154.2,134.5z"/>
				<path class="st3" d="M217.9,128.9c-5.6,1.1-11.7,2.5-18.2,4.3c-6.2,1.8-11.8,3.7-17,5.7c-2.3-3-8.6-10.2-19.4-13.2
					c-5.3-1.5-10-1.5-13.2-1.2c-0.5,0.4-1.1,0.9-1.8,1.4c-0.5,0.4-0.9,0.8-1.2,1.1c-23.4,22.2-17.9,87.7,3.4,140.9
					c6.1,15.2,12.5,27,16.8,34.4c1.9-2.5,3.9-5,5.8-7.5c-7.7-14.4-13-27-16.6-36.5c-5.7-15.2-12.8-34.2-14.8-59.2
					c-0.6-7-0.5-11.8-0.4-20.4c0.2-21.3,3.1-28.5,5.4-34.8c1.2-3.4,3.2-8.1,7.4-9.6c12.3-4.2,31.4,23.6,35.2,29.2
					c15-4.6,30-9.1,44.9-13.7c-1.6-3-3.6-6.3-6.1-9.7C224.7,135.5,221.1,131.8,217.9,128.9z"/>
				<path class="st5" d="M393,339.8c-12.4,9.6-57.8,42.3-123.2,39.7c-54.9-2.2-92.8-28-106.4-38.4c-0.3-9.8-0.3-20,0.1-30.7
					c0.5-16.5,1.8-31.9,3.6-46.2c2.6-8.3,5.1-16.6,7.7-24.8c69.9-3.6,139.8-7.1,209.7-10.7c1.9,11.4,3.7,22.8,5.6,34.1
					c1.9,15.9,3.2,33.3,3.4,51.9C393.5,323.5,393.4,331.8,393,339.8z"/>
				<path class="st6" d="M393.5,314.9c-0.2-18.7-1.4-36-3.4-51.9c-1.9-11.4-3.7-22.8-5.6-34.1c-53.6,2.7-107.2,5.5-160.8,8.2
					c-2.2,3.1-1.7,8.9-1.8,12.4c-0.2,6-0.4,12-0.5,18c-0.1,6.4,0.4,10.9,1.7,16.8c1.1,5.1,2.6,9.2,3.8,12.1
					c11.1-18.9,31.9-30.1,53.8-28.9c21.9,1.2,41.4,14.5,50.5,34.5c-2.5,1.5-3,2.5-2.9,3.2c0.3,2.6,8.3,3.6,11.8,3.7
					c1.7,0.1,3.8,0.2,5.2-0.9c2.3-1.7,2.7-4.8,2.8-6.1c0.7-6.4,3.5-12.5,4.8-18.9c4-19.5,7.9-25.8,9.3-27.9c1.7-2.5,3.3-4.4,4.3-5.6
					c0.8,5.5,1.7,12.6,2.3,20.9c0.6,7.4,0.7,12.9,0.8,16.9c0.3,12.9-0.1,25.9-1,38.8c-0.4,6.5-1,12.9-1.6,19.3
					c-0.3,3.4-0.7,6.8-1,10.2c0,0.5-0.1,1.1-0.1,1.6c13.1-7,22.3-13.7,26.9-17.3C393.4,331.8,393.5,323.5,393.5,314.9z"/>
				<path class="st4" d="M211.8,206.5c-6.8-17.3-11.5-35.1-13.7-53.5c-5.8,2.8-7.7,4.8-9.2,6.4c-5.2,5.6-6.5,11.8-8.9,22.8
					c-5.7,26.5-5.2,23.8-5.6,25.8c-3.7,21.2-5.9,40.9-7.4,56.4c0.2-1.1,5.1-21.3,18.5-24.2c1.3-0.3,5.4-1.2,9.3,0.9
					c4.9,2.6,6.4,8.4,7.7,14.6c2.3,10.5,4,21,5.3,31.6c7.9,0.6,15.8,1.2,23.8,1.8c3.2-7.6,9-13.7,15.9-18.2
					c-2.2-2.8-4.4-5.7-6.5-8.6C228.8,245.2,219.5,226.1,211.8,206.5z"/>
				<path class="st4" d="M393,339.8c2.7,2.5,6.7,6.5,10,12.3c6.7,11.5,7.2,22.8,7.3,28.9c1.4,54.9-10.1,113.2-16.9,147.3
					c-1.9,9.4-5.1,24.4-17.4,33.7c-6.3,4.8-14.3,6.8-22,8.8c-13.6,3.4-27.2,6.8-41.1,8.6c-26.3,3.6-53.1,1.7-79.6-0.2
					c-13.8-1-27.9-2-40.8-7.1c-6-2.4-11.8-5.7-15.9-10.6c-5.7-6.9-7.5-16.1-9.1-24.8c-4-22-8.8-43.9-12.1-66
					c-4-26.6-5.5-30.8-6.8-38.4c0,0-0.9-5.7-1.5-11.6c-3.3-34.3-2.3-60.4-2.3-60.4c-1.6-6.2-2-11.4-2-15c0-7.1,1.4-10.3,2.5-12.2
					c0.8-1.3,24.2,12.4,46.5,14c14.5,1.1,26.2-2,33.3-4.4c4.8,4.2,24.1,20.1,53.4,20.1c28.1,0,46.9-14.5,52-18.7
					c7.4,2.5,21.4,6.2,38.6,3.5C379.4,346,387.4,342.7,393,339.8z"/>
				<path class="st7" d="M337.3,333.7c-5.7,4.6-26.9,20.7-58.6,20.7c-33,0-54.8-17.6-60.2-22.3c-1.8,0.6-3.9,1.2-6.1,1.7
					c0,1.7,0,3.3,0,4.4c-0.8,11.9-1.1,23.8-1,35.7c0.2,23.6,2.2,47.3,5.9,70.6c2.1,13,4.7,26,7.8,38.8c3.2,13.2,8.1,27.6,20.2,34
					c4.8,2.5,10.3,3.5,15.7,4.1c14.3,1.6,29,0.9,43.1-2c4.4-0.9,8.9-2.1,12.5-4.8c5.1-3.8,7.8-9.9,10-15.7
					c19.3-51.5,21.1-107.3,21.6-162.3C343.9,335.7,340.2,334.6,337.3,333.7z"/>
				<path class="st5" d="M330.7,344.1c-5.1,4.2-23.9,18.7-52,18.7c-29.3,0-48.6-16-53.4-20.1c-1.6,0.5-3.4,1.1-5.4,1.6
					c0,1.5,0,3,0,4c-0.7,10.8-1,21.5-0.9,32.3c0.2,21.4,2,42.7,5.3,63.8c1.8,11.8,4.1,23.5,6.9,35.1c2.9,11.9,7.2,24.9,18,30.7
					c4.3,2.3,9.1,3.2,13.9,3.7c12.7,1.5,25.7,0.8,38.3-1.8c3.9-0.8,7.9-1.9,11.1-4.3c4.5-3.4,6.9-8.9,8.8-14.2
					c17.1-46.5,18.8-97,19.2-146.7C336.5,346,333.2,345,330.7,344.1z"/>
				<path class="st6" d="M410.4,381c-0.1-6.1-0.6-17.4-7.3-28.9c-3.4-5.8-7.3-9.8-10-12.3c-5.5,2.8-13.4,6-23.2,7.7
					c3.8,5.2,8.9,13.1,12.4,23.5c4.1,11.9,3.9,20.2,0.5,60c-5.9,69.4-4.5,34.2-8,71.3c-0.4,3.8-1.2,12.9-4.8,24.2
					c-2.3,7.1-5.5,16.8-12.8,25.1c-6.6,7.4-13.7,10.2-28,15.9c-26.6,10.6-50.5,12.4-58.8,13c-4,0.3-7.6,0.5-7.5,0.5
					c16.7,0.7,33.4,0.6,50-1.6c13.9-1.9,27.5-5.2,41.1-8.6c7.7-1.9,15.7-4,22-8.8c12.3-9.3,15.5-24.3,17.4-33.7
					C400.3,494.2,411.7,436,410.4,381z"/>
				<path class="st5" d="M212.1,523.3c-0.8,6.6-1.3,10-3.3,14.2c-5.4,10.9-17.5,19-30.1,19.7c-1.5,0.1-2.8,0.1-4.6-0.1
					c-16.1-2.2-26.5-23.6-30.1-38.5c-1-4-1.9-9.4,0-37.8c1-15.5,2.2-28.1,3.1-36.8c5.4,3.4,15.3,8.6,28.7,10.6
					c13.5,2,24.4-0.1,30.6-1.8c0.9,9.5,1.8,17,2.4,21.7C211.7,498.6,213.9,508.2,212.1,523.3z"/>
				<path class="st3" d="M318.9,146.5c0.4-4.2,0.6-11.3-2.6-19c-0.3-0.8-1.3-3.1-2.5-4.9c-10.1-15.3-45.5-8.7-48.6-8.1
					c-15.4,3-19,8.1-20.3,9.9c-2.2,3.1-3.4,7.1-4,10.8c-0.4,2.4-0.6,5-0.5,7.4c0.1,1.6,0.4,3.1,0.7,4.7c0,0,0.1,0,0.1,0
					c-0.4-1.7-1-5.3,0.3-9.5c1.8-5.8,5.9-9,7.3-9.8c3.6-2.1,7.9-3,12-3.7c16.5-2.8,24.9-2.6,29.7-2.2c12.2,1.1,18.3,1.6,23,6.6
					C319,134.7,319.1,143,318.9,146.5z"/>
				<path class="st5" d="M345.7,523.3c0.8,6.6,1.3,10,3.3,14.2c5.4,10.9,17.5,19,30.1,19.7c1.5,0.1,2.8,0.1,4.6-0.1
					c16.1-2.2,26.5-23.6,30.1-38.5c1-4,1.9-9.4,0-37.8c-1-15.5-2.2-28.1-3.1-36.8c-5.4,3.4-15.3,8.6-28.7,10.6
					c-13.5,2-24.4-0.1-30.6-1.8c-0.9,9.5-1.8,17-2.4,21.7C346,498.6,343.8,508.2,345.7,523.3z"/>
				<path class="st6" d="M413.7,480.7c-1-15.5-2.2-28.1-3.1-36.8c-4.5,2.8-12.1,6.9-22.3,9.3c3.4,10.4,4.4,21.7,5.5,32.3
					c1,9.9,2.4,19.9,2.3,29.8c-0.2,9.7-1.7,20.9-9,28c-6.3,6.1-16.6,6.4-24.7,4.5c-3-0.7-5.9-1.8-8.5-3.4
					c6.3,7.2,15.6,12.1,25.3,12.6c1.5,0.1,2.8,0.1,4.6-0.1c16.1-2.2,26.5-23.6,30.1-38.5C414.7,514.5,415.6,509.1,413.7,480.7z"/>
				<path class="st8" d="M348.4,453c0,1.6,1.1,3,2.7,3.5c7.8,2.1,21,4.4,36.6,1.1c10-2.1,17.9-5.9,23.4-9.1c1.3-0.8,2-2.2,1.8-3.7
					l-0.7-5.3c-0.4-2.7-3.4-4-5.7-2.6c-5,3.2-11.9,6.8-20.7,8.8c-13.7,3.2-25.6,1.3-32.8-0.8c-2.4-0.7-4.8,1.2-4.7,3.6L348.4,453z"
					/>
				<path class="st4" d="M321.5,234.4c9.4-17.9,15.6-36.8,19.2-56.7c1.8-10.2,3-20.3,3.6-30.9c-27-9.2-47.4-8.9-47.4-8.9
					c-10.2-0.7-22.3-0.9-35.8,0c0,0-21-0.4-48.6,9.3c0.6,10.4,1.7,20.4,3.6,30.5c3.6,19.9,9.8,38.8,19.2,56.7
					c4.7,8.9,9.9,17.4,15.6,25.7c1.5,2.2,3.2,4.4,4.8,6.6c1.4-0.6,2.9-1.2,4.3-1.6c6.2-2,12.6-3.1,19-3.5c6.5,0.4,12.9,1.4,19,3.5
					c1.1,0.4,2.3,0.8,3.4,1.2c1.5-2,3-4.1,4.5-6.2C311.6,251.9,316.9,243.3,321.5,234.4z"/>
				<path class="st4" d="M383.5,208c-5.4-30.9-5.4-20.9-9.4-36.6c-1.1-4.2-2.3-8.6-5-12c-2.6-3.2-6.5-5.2-10.3-6.9
					c-2.2,18.6-6.9,36.5-13.8,54c-7.7,19.6-17,38.7-29.4,55.8c-2,2.7-4,5.4-6.1,8.1c7.3,4.5,13.4,10.8,16.8,18.7
					c7.9-0.6,15.8-1.2,23.8-1.8c1.3-10.6,3-21.2,5.3-31.6c1.1-5.3,2.5-11.7,7.7-14.6c2.9-1.6,5.8-1.4,6.6-1.4
					c8.1,0.4,16,9.9,20.4,23.3C388.4,239.4,385.8,220.7,383.5,208z"/>
				<path class="st6" d="M208.7,474.6c-0.6-4.7-1.5-12.3-2.4-21.7c-4.7,1.3-12.1,2.8-21.3,2.6c4.7,20.7,6.9,38.4,8,51.8
					c1.7,20.6,0.7,30.7-5.7,39.1c-4.3,5.7-9.7,8.9-13.7,10.7c0.1,0,0.2,0,0.3,0.1c1.8,0.2,3.1,0.2,4.6,0.1
					c12.6-0.7,24.7-8.8,30.1-19.7c2-4.1,2.5-7.5,3.3-14.2C213.9,508.2,211.7,498.6,208.7,474.6z"/>
				<path class="st5" d="M235.3,234.4c-9.4-17.9-15.6-36.8-19.2-56.7c-1.8-10.1-3-20.1-3.6-30.5c-4.1,1.4-8.3,3.1-12.6,5
					c-0.6,0.3-1.2,0.5-1.7,0.8c2.2,18.4,6.9,36.2,13.7,53.5c7.7,19.6,17,38.7,29.4,55.8c2.1,2.9,4.2,5.8,6.5,8.6
					c2.5-1.6,5.2-3,8-4.2c-1.6-2.2-3.2-4.3-4.8-6.6C245.2,251.9,239.9,243.3,235.3,234.4z"/>
				<path class="st2" d="M209.3,417c7.3-0.1,14.6-0.3,21.9-0.4c-2.3-12.5-4.2-27.6-4.4-44.6c-0.2-14.4,0.8-27.4,2.4-38.6
					c-7,0.2-14,0.3-21,0.5c-1.5,10.4-2.5,22.1-2.7,34.9C205.3,387.1,207,403.4,209.3,417z"/>
				<path class="st5" d="M345,206.5c6.9-17.5,11.6-35.5,13.8-54c-0.2-0.1-0.4-0.2-0.6-0.3c-4.8-2.1-9.4-3.9-13.9-5.4
					c-0.6,10.6-1.7,20.7-3.6,30.9c-3.6,19.9-9.8,38.8-19.2,56.7c-4.7,8.9-9.9,17.4-15.6,25.7c-1.5,2.1-3,4.1-4.5,6.2
					c2.8,1.1,5.5,2.5,8.1,4.1c2.1-2.7,4.1-5.4,6.1-8.1C328,245.2,337.3,226.1,345,206.5z"/>
				<path class="st2" d="M231.2,302.2h-22.5V287c7.5,0.4,15,0.7,22.5,1.1C231.2,292.8,231.2,297.5,231.2,302.2z"/>
				<path class="st9" d="M236.2,303.4C236.2,303.4,236.2,303.4,236.2,303.4C236.2,303.3,236.2,303.3,236.2,303.4
					c-0.2-0.3-0.3-0.4-0.5-0.6c-1.1-1.4-2.3-2.9-3.4-4.3c-0.6,0.6-1.3,1.3-1.9,1.9c-0.1,0-0.1,0-0.2,0l-16.5-0.2
					c-4,0-7.3,2.7-7.5,6.1l-1.1,19.6c-0.9,1-1.9,1.9-2.8,2.9c1.2,1.5,2.4,3,3.6,4.6c0,0,0,0,0,0c1.2,1.7,3.3,2.9,5.9,2.9l16.5,0.2
					c4,0,7.3-2.7,7.5-6.1l1.3-23.7C237.2,305.4,236.8,304.3,236.2,303.4z"/>
				<path class="st10" d="M225,332.3l-16.5-0.2c-4,0-7-2.8-6.8-6.2l1.3-23.7c0.2-3.4,3.6-6.1,7.5-6.1l16.5,0.2c4,0,7,2.8,6.8,6.2
					l-1.3,23.7C232.3,329.6,228.9,332.3,225,332.3z"/>
				<path class="st2" d="M224.7,321.7c0.2,1.4,0.7,3.2,1.8,5.4c-6,0-12,0.1-18,0.1c-1.2-1.3-2.8-3.6-2.7-6.4
					c0.1-2.3,1.3-4.1,2.3-5.2c6.6-0.2,13.2-0.4,19.8-0.6c-0.2,0.1-0.4,0.2-0.7,0.3C225.6,316.1,224,317.4,224.7,321.7z"/>
				<path class="st2" d="M225.9,307.4c0.2,1.4,0.7,3.2,1.8,5.4c-6,0-12,0.1-18,0.1c-1.2-1.3-2.8-3.6-2.7-6.4
					c0.1-2.3,1.3-4.1,2.3-5.2c6.6-0.2,13.2-0.4,19.8-0.6c-0.2,0.1-0.4,0.2-0.7,0.3C226.9,301.8,225.2,303.1,225.9,307.4z"/>
				<path class="st7" d="M300.4,397.5h-42c-0.9,0-1.7-0.8-1.7-1.7V381c0-0.9,0.8-1.7,1.7-1.7h42c0.9,0,1.7,0.8,1.7,1.7v14.8
					C302.1,396.8,301.3,397.5,300.4,397.5z"/>
				<path class="st6" d="M383.5,208c-5.4-30.9-5.4-20.9-9.4-36.6c-1.1-4.2-2.3-8.6-5-12c-2.6-3.2-6.5-5.2-10.3-6.9
					c-0.2-0.1-0.4-0.2-0.6-0.3c-4.8-2.1-9.4-3.9-13.9-5.4c-18.1-6.2-33.2-8-41.2-8.6c8.2,1.6,16.1,4.2,23.8,7.5
					c9.1,4,16.8,9.4,22.2,17.9c4.8,7.4,7.4,16.1,9.1,24.7c1.9,9.5,3.1,19.2,4.6,28.7c1.2,7.6,2.3,15.3,2.6,22.9
					c1.9-0.5,3.6-0.5,4.2-0.4c8.1,0.4,16,9.9,20.4,23.3C388.4,239.4,385.8,220.7,383.5,208z"/>
				<path class="st6" d="M412.2,439.5c-0.4-2.7-3.4-4-5.7-2.6c-5,3.2-11.9,6.8-20.7,8.8c-2.4,0.6-4.8,1-7.1,1.2c0.1,0,0.1,0,0.2,0
					c1.6,0.4,3.2,1.2,4.3,2.5c1.9,2.1,2.5,5.2,1.4,7.8c-0.1,0.3-0.3,0.6-0.4,0.9c1.1-0.2,2.3-0.4,3.5-0.6c10-2.1,17.9-5.9,23.4-9.1
					c1.3-0.8,2-2.2,1.8-3.7L412.2,439.5z"/>
				<path class="st8" d="M209.3,453c0,1.6-1.1,3-2.7,3.5c-7.8,2.1-21,4.4-36.6,1.1c-10-2.1-17.9-5.9-23.4-9.1
					c-1.3-0.8-2-2.2-1.8-3.7l0.7-5.3c0.4-2.7,3.4-4,5.7-2.6c5,3.2,11.9,6.8,20.7,8.8c13.7,3.2,25.6,1.3,32.8-0.8
					c2.4-0.7,4.8,1.2,4.7,3.6L209.3,453z"/>
				<path class="st6" d="M204.7,445c-4.8,1.3-11.7,2.7-19.8,2.4c0,0,0.1,0,0.1,0.1c1.9,2.3,2.3,5.3,1.6,8.2
					c-0.3,1.2-0.8,2.4-1.4,3.4c0,0,0,0.1-0.1,0.1c8.9,0.1,16.3-1.4,21.4-2.8c1.6-0.4,2.6-1.8,2.7-3.5l0.1-4.4
					C209.5,446.1,207.1,444.3,204.7,445z"/>
				<path class="st2" d="M348.8,416.6c-7.3-0.1-14.6-0.3-21.9-0.4c2.3-12.5,4.2-27.6,4.4-44.6c0.2-14.4-0.8-27.4-2.4-38.6
					c7,0.2,14,0.3,21,0.5c1.5,10.4,2.5,22.1,2.7,34.9C352.7,386.8,351.1,403,348.8,416.6z"/>
				<path class="st2" d="M326.8,301.9h22.5v-15.2c-7.5,0.5-15,1-22.5,1.5C326.8,292.7,326.8,297.3,326.8,301.9z"/>
				<path class="st9" d="M321.8,303C321.8,303,321.8,303,321.8,303C321.8,303,321.8,303,321.8,303c0.2-0.3,0.3-0.4,0.5-0.6
					c1.1-1.4,2.3-2.9,3.4-4.3c0.6,0.6,1.3,1.3,1.9,1.9c0.1,0,0.1,0,0.2,0l16.5-0.2c4,0,7.3,2.7,7.5,6.1l1.1,19.6
					c0.9,1,1.9,1.9,2.8,2.9c-1.2,1.5-2.4,3-3.6,4.6c0,0,0,0,0,0c-1.2,1.7-3.3,2.9-5.9,2.9l-16.5,0.2c-4,0-7.3-2.7-7.5-6.1l-1.3-23.7
					C320.8,305,321.2,303.9,321.8,303z"/>
				<path class="st10" d="M332.8,331.8l16.5,0.1c4,0,7.1-2.7,6.9-6.1l-1-23.8c-0.1-3.4-3.5-6.2-7.4-6.2l-16.5-0.1
					c-4,0-7.1,2.7-6.9,6.1l1,23.8C325.5,329,328.8,331.8,332.8,331.8z"/>
				<path class="st2" d="M333.4,321.4c-0.2,1.4-0.7,3.2-1.8,5.4c6,0,12,0.1,18,0.1c1.2-1.3,2.8-3.6,2.7-6.4
					c-0.1-2.3-1.3-4.1-2.3-5.2c-6.6-0.2-13.2-0.4-19.8-0.6c0.2,0.1,0.4,0.2,0.7,0.3C332.4,315.7,334,317.1,333.4,321.4z"/>
				<path class="st2" d="M332.1,307.1c-0.2,1.4-0.7,3.2-1.8,5.4c6,0,12-0.1,18-0.1c1.2-1.3,2.8-3.6,2.6-6.4
					c-0.1-2.3-1.3-4.1-2.3-5.2c-6.6-0.1-13.2-0.2-19.8-0.4c0.2,0.1,0.4,0.2,0.7,0.3C331.1,301.5,332.8,302.8,332.1,307.1z"/>
				<path class="st4" d="M163.3,329.5c0,0-8.5-1.6-17.8,3.6l23.9,17.7"/>
			</g>
		</g>
	</g>
</g>
</svg>
