<?xml version="1.0" encoding="utf-8"?>
<!-- Generator: Adobe Illustrator 27.9.0, SVG Export Plug-In . SVG Version: 6.00 Build 0)  -->
<svg version="1.1" id="Lag_1" xmlns="http://www.w3.org/2000/svg" xmlns:xlink="http://www.w3.org/1999/xlink" x="0px" y="0px"
	 viewBox="0 0 561 596.2" style="enable-background:new 0 0 561 596.2;" xml:space="preserve">
<style type="text/css">
	.st0{fill:url(#SVGID_1_);}
	.st1{clip-path:url(#SVGID_00000023272940935928036730000000660600681685608330_);}
	.st2{fill:#5E696B;}
	.st3{fill:#80898B;}
	.st4{fill:#191E2A;}
	.st5{fill:#081925;}
	.st6{fill:#092332;}
	.st7{opacity:0.42;}
	.st8{fill:#AFD9CB;}
	.st9{fill:#9198A0;}
	.st10{fill:url(#SVGID_00000162340815060891771360000008725586931386019990_);}
	.st11{clip-path:url(#SVGID_00000129926778268884278730000004057151357902771376_);}
	.st12{fill:#494F47;}
	.st13{fill:#B6BECD;}
	.st14{fill:#D5DBE4;}
	.st15{fill:#0F3849;}
	.st16{fill:#424242;}
	.st17{fill:#30332D;}
	.st18{fill:#393D38;}
	.st19{fill:url(#SVGID_00000008135465135592525350000006676063030875797146_);}
	.st20{clip-path:url(#SVGID_00000099637668995204688480000006634997053719776959_);}
	.st21{fill:#1C5060;}
	.st22{fill:#16424C;}
	.st23{fill:#333333;}
</style>
<g>
	<g>
		<linearGradient id="SVGID_1_" gradientUnits="userSpaceOnUse" x1="285.7703" y1="557.0064" x2="275.0346" y2="143.2073">
			<stop  offset="0.3566" style="stop-color:#D3D2D2"/>
			<stop  offset="1" style="stop-color:#FAFAFD"/>
		</linearGradient>
		<path class="st0" d="M487.3,344.7L487.3,344.7C490.3,459,400,554,285.8,557h0c-114.3,3-209.3-87.3-212.3-201.5l0,0
			c-3-114.3,87.3-209.3,201.5-212.3h0C389.3,140.2,484.3,230.5,487.3,344.7z"/>
		<g>
			<defs>
				<path id="SVGID_00000031173133571719527480000010230076253984763816_" d="M485.9,344.7L485.9,344.7
					C488.9,459,398.7,554,284.4,557h0c-114.3,3-209.3-87.3-212.3-201.5l0,0c-2.2-83.1,73.7-278.2,143.4-313
					c26.2-13.1,87.2,16.1,118.4,15.3l15.9,26.9C464.1,81.7,483,230.5,485.9,344.7z"/>
			</defs>
			<clipPath id="SVGID_00000029724711745575141330000012025592656436256687_">
				<use xlink:href="#SVGID_00000031173133571719527480000010230076253984763816_"  style="overflow:visible;"/>
			</clipPath>
			<g style="clip-path:url(#SVGID_00000029724711745575141330000012025592656436256687_);">
				<path class="st2" d="M416.8,374.6c0,0,11.6,23.7,11.6,53.4c0,29.6-12.2,56.7-12.2,56.7l-1.6-86.8L416.8,374.6z"/>
				<path class="st3" d="M361.2,616.8h45.3c0,0,12.5-6.2,10.9-25l-60.1,1.6L361.2,616.8z"/>
				<path class="st3" d="M198.3,616.8h-45.3c0,0-12.5-6.2-10.9-25l60.1,1.6L198.3,616.8z"/>
				<path class="st5" d="M377.7,228.7h-95.2h-8.9h-95.2c-21.9,0-39.7,17.8-39.7,39.7v320.8c0,0,0.7,12.1,17.1,12.5
					c21.1,0.6,37.1-2.9,38.6,9.4c2.3,18,16.4,17.9,16.4,17.9h66.8h1.1h66.8c0,0,14.1,0.1,16.4-17.9c1.6-12.3,17.6-8.8,38.6-9.4
					c16.4-0.5,17.1-12.5,17.1-12.5V268.4C417.4,246.5,399.6,228.7,377.7,228.7z"/>
				<path class="st6" d="M374.1,252.4H183c-11.4,0-20.7,9.2-20.7,20.5v329.1c17.7-0.1,30.6-1.7,32,9.2c2.3,17.8,16.4,17.7,16.4,17.7
					h66.8h1.1h66.8c0,0,14.1,0.1,16.4-17.7c1.4-11.1,14.8-9.2,33.1-9.2V272.9C394.8,261.6,385.5,252.4,374.1,252.4z"/>
				<rect x="138.9" y="283.6" class="st5" width="277.8" height="7"/>
				<rect x="138.9" y="341.4" class="st5" width="277.8" height="7"/>
				<rect x="138.9" y="399.1" class="st5" width="277.8" height="7"/>
				<rect x="138.9" y="456.8" class="st5" width="277.8" height="7"/>
				<rect x="138.9" y="514.6" class="st5" width="277.8" height="7"/>
				<rect x="138.9" y="572.3" class="st5" width="277.8" height="7"/>
				<g class="st7">
					<g>
						<path class="st8" d="M387.8,243.9H169.3c-2.6,0-4.7-2.1-4.7-4.7s2.1-4.7,4.7-4.7h218.5c2.6,0,4.7,2.1,4.7,4.7
							S390.3,243.9,387.8,243.9z"/>
					</g>
				</g>
				<rect x="230.9" y="103.4" class="st9" width="10.1" height="125.3"/>
				
					<rect x="319.1" y="103.9" transform="matrix(-1 -1.224647e-16 1.224647e-16 -1 648.3483 332.5879)" class="st9" width="10.1" height="124.8"/>
				<path class="st2" d="M139.3,332L139.3,332v-31.6l0,0c-3.2,0-5.9,2.6-5.9,5.9v19.9C133.4,329.4,136,332,139.3,332z"/>
				<path class="st2" d="M139.3,554.4L139.3,554.4v-31.6l0,0c-3.2,0-5.9,2.6-5.9,5.9v19.9C133.4,551.8,136,554.4,139.3,554.4z"/>
				<path class="st2" d="M323,85.2h-37.4h-10.9h-37.4c-5.2,0-9.4,4.2-9.4,9.4v14l17.2,0.4c0,0-0.8-9.8,6.2-9.8c4.1,0,15,0,23.4,0
					c6.1,0,10.9,0,10.9,0c8.4,0,19.3,0,23.4,0c7,0,6.2,9.8,6.2,9.8l17.2-0.4v-14C332.4,89.3,328.2,85.2,323,85.2z"/>
			</g>
		</g>
	</g>
</g>
</svg>
