<?xml version="1.0" encoding="UTF-8"?>
<svg id="Lag_1" data-name="Lag 1" xmlns="http://www.w3.org/2000/svg" viewBox="0 0 211.7 107.14">
  <defs>
    <style>
      .cls-1 {
        fill: #031926;
        opacity: .05;
        stroke-width: 0px;
      }
    </style>
  </defs>
  <path id="Cloud_2" data-name="Cloud 2" class="cls-1" d="m183.7,51.14c-5.46,0-10.55,1.56-14.86,4.27,1.03-2.54,1.6-5.33,1.6-8.24,0-12.11-9.81-21.92-21.92-21.92-5.19,0-9.96,1.81-13.72,4.82C132.45,13.09,117.87,0,100.23,0c-19.29,0-34.91,15.64-34.91,34.91,0,.97.04,1.93.12,2.88-1.83-.39-3.73-.59-5.68-.59-14.19,0-25.88,10.71-27.43,24.49-2.71-1.09-5.67-1.69-8.77-1.69-13.01,0-23.56,10.55-23.56,23.56s10.55,23.57,23.56,23.57h160.14c15.46,0,28-12.54,28-28s-12.54-28-28-28Z"/>
</svg>