<?xml version="1.0" encoding="utf-8"?>
<!-- Generator: Adobe Illustrator 28.0.0, SVG Export Plug-In . SVG Version: 6.00 Build 0)  -->
<svg version="1.1" id="Lag_1" xmlns="http://www.w3.org/2000/svg" xmlns:xlink="http://www.w3.org/1999/xlink" x="0px" y="0px"
	 viewBox="0 0 714.4 814.3" style="enable-background:new 0 0 714.4 814.3;" xml:space="preserve">
<style type="text/css">
	.st0{fill:url(#SVGID_1_);}
	.st1{clip-path:url(#SVGID_00000175303589235226616120000011881505490008450693_);}
	.st2{fill:#5E696B;}
	.st3{fill:#80898B;}
	.st4{fill:#191E2A;}
	.st5{fill:#081925;}
	.st6{fill:#092332;}
	.st7{opacity:0.42;}
	.st8{fill:#AFD9CB;}
	.st9{fill:#9198A0;}
	.st10{fill:url(#SVGID_00000088129585195088105530000007469216872647781787_);}
	.st11{clip-path:url(#SVGID_00000080924952248088722340000011147705315002874000_);}
	.st12{fill:#1C5060;}
	.st13{fill:#16424C;}
	.st14{fill:#0F3849;}
	.st15{fill:#333333;}
	.st16{fill:url(#SVGID_00000166669595831707877440000012274395505189051811_);}
	.st17{clip-path:url(#SVGID_00000154415567838901760920000007841727940123195320_);}
	.st18{fill:#494F47;}
	.st19{fill:#B6BECD;}
	.st20{fill:#D5DBE4;}
	.st21{fill:#424242;}
	.st22{fill:#30332D;}
	.st23{fill:#393D38;}
</style>
<g>
	<g>
		<g>
			<g>
				<defs>
					<path id="SVGID_00000176026572578772198710000018277353391892255876_" d="M-44.1,416.5L-44.1,416.5
						c4.8,184.2-140.7,337.4-324.9,342.2l0,0c-184.2,4.8-337.4-140.7-342.2-324.9l0,0C-714,325.8-570.4,7-492.4-56.1
						c55-44.4,57.2,22,133.3,20l74,14C-100.9-26.8-48.9,232.3-44.1,416.5z"/>
				</defs>
				<clipPath id="SVGID_00000124871362104744974630000012744722256949860790_">
					<use xlink:href="#SVGID_00000176026572578772198710000018277353391892255876_"  style="overflow:visible;"/>
				</clipPath>
				<g style="clip-path:url(#SVGID_00000124871362104744974630000012744722256949860790_);">
					<path class="st5" d="M49.3,534.3v132.9l-94.7,94.7h-672l-84-84l-10.1-10.1V534.2l4.3-4.7l229.5-246l188.9-235.6l0.9-1.1
						l6.9-8.6l0.3,0.4c0,0,1.2,1.6,3.4,4.6l0,0c21.2,28.3,135,179.9,209.3,265C-87.7,400.1,49.3,534.3,49.3,534.3z"/>
					<path class="st5" d="M49.3,534.3v51.3c-0.8,0.7-1.6,1.3-2.4,1.9C29,601.3,7.6,609.8-13.5,618c-10.9,4.3-24.6,8.1-33.4,0.3
						c-6.1-5.5-7-14.5-8.2-22.6c-6.1-41.7-29.1-78.8-51.6-114.5c-24.6-39-49.2-78-73.8-117c-43.5-69-87-138-130.6-207
						c-21.1-33.5-45.4-79.5-66.2-114.1c21.2,28.3,135,179.9,209.3,265C-87.7,400.1,49.3,534.3,49.3,534.3z"/>
					<polygon class="st14" points="-45.4,761.9 49.3,667.2 49.3,625.7 -53.6,692.6 -702.4,692.6 -811.4,635.5 -811.4,667.9 
						-717.4,761.9 					"/>
					<polygon class="st5" points="-53.6,583.4 49.3,534.3 49.3,625.7 -53.6,692.6 					"/>
					<g>
						<path class="st12" d="M103.8,847.6c0.3,0,0.6-0.1,0.9-0.2c0.8-0.5,1.1-1.5,0.6-2.4L-51.3,582c-0.5-0.8-1.3-1.8-2.1-1.3
							s-2.5-0.2-2.1,0.6l157.8,265.4C102.7,847.3,103.2,847.6,103.8,847.6z"/>
					</g>
					<g>
						<path class="st12" d="M256.1,692.2c0.5,0,1-0.2,1.4-0.7c0.6-0.8,0.4-1.9-0.4-2.4L44.8,530.8c-0.8-0.6-1.9-0.4-2.4,0.4
							c-0.6,0.8-0.4,1.9,0.4,2.4l212.3,158.3C255.4,692.1,255.8,692.2,256.1,692.2z"/>
					</g>
					<polygon class="st12" points="50.3,534.9 39.1,524.7 38.5,534.4 48.2,537.6 					"/>
					<path class="st15" d="M116.7,811.8l-9.5,33.8c-0.4,1.4-1.9,2.2-3.3,1.8c-1.3-0.4-2.1-1.6-1.9-2.9l5-34.8
						c0.4-2.7,2.9-4.6,5.6-4.2s4.6,2.9,4.2,5.6C116.8,811.4,116.8,811.6,116.7,811.8z"/>
				</g>
			</g>
		</g>
	</g>
</g>
<g>
	<g>
		
			<linearGradient id="SVGID_1_" gradientUnits="userSpaceOnUse" x1="-2776.9895" y1="-2047.8024" x2="-2098.5859" y2="-2047.8024" gradientTransform="matrix(-2.593545e-02 -0.9997 -0.9997 2.593545e-02 -1753.4908 -1955.3701)">
			<stop  offset="0.3566" style="stop-color:#77BD80"/>
			<stop  offset="1" style="stop-color:#C5E0C6"/>
		</linearGradient>
		<path class="st0" d="M696,419.8L696,419.8c4.9,187.3-143,343-330.3,347.9l0,0c-187.3,4.9-343-143-347.9-330.3l0,0
			c-4.9-187.3,143-343,330.3-347.9l0,0C535.4,84.7,691.1,232.5,696,419.8z"/>
		<g>
			<g>
				<defs>
					<path id="SVGID_00000075120717016315801970000007048987136048328880_" d="M696.6,420.4L696.6,420.4
						c4.9,187.3-143,343-330.3,347.9l0,0C179,773.2,23.3,625.3,18.4,438l0,0C15.2,314.7,42.7,36.1,139.5-25.8
						C189.8-58,319.1-79.4,383.1-81l97.4,50.7C667.8-35.2,691.7,233.1,696.6,420.4z"/>
				</defs>
				<clipPath id="SVGID_00000150083843493297577150000009971233174823318913_">
					<use xlink:href="#SVGID_00000075120717016315801970000007048987136048328880_"  style="overflow:visible;"/>
				</clipPath>
				<g style="clip-path:url(#SVGID_00000150083843493297577150000009971233174823318913_);">
					<path class="st18" d="M528.5,107.9c-2.6-5.4-5.3-9.7-7.4-12.6c95.1-109.3,72.4,198.3,15.5,232.6
						C501.6,201.2,550.9,169.7,528.5,107.9z"/>
					<path class="st19" d="M532.4,166.6c6.9,16.1,12.7,32.7,17.7,49.5c3.4,11.3,6.3,22.7,9.1,34.2c2.5,10.6,3.9,21.4,5.8,32.1
						c-7.8,22-17.5,38.8-28.5,45.4C513.7,245.2,526.8,203.1,532.4,166.6z"/>
					<path class="st5" d="M560.2,78.3c6.8,2.3,10,9.9,12.1,15.5c3.7,10.2,8.4,21.8,8.8,56.4c0.1,14,0.2,21.7-0.7,33.1
						c-3.3,40.5-14.7,71.3-24,96c-5.8,15.4-14.4,35.9-26.9,59.2c3.1,4,6.3,8.1,9.4,12.1c7-11.9,17.4-31.1,27.2-55.8
						c34.6-86.4,43.5-192.7,5.5-228.6c-2-1.9-6.4-5.7-12.6-9.6c-3.1-1.9-38.3-23.5-72.8-8.4c-9.5,4.2-17.8,10.7-25.5,17.7
						c-12,10.8-23.2,23-30.4,37.5c24.3,7.4,48.6,14.8,72.9,22.2C509.3,116.6,540.4,71.4,560.2,78.3z"/>
					<path class="st19" d="M456.9,69.2c9.1,1.8,19,4,29.5,7c10,2.9,19.2,6,27.6,9.2c3.8-4.9,14-16.6,31.4-21.5
						c8.6-2.4,16.2-2.4,21.4-1.9c0.8,0.7,1.8,1.4,2.8,2.3c0.8,0.7,1.5,1.3,2,1.8c38,36,29.1,142.2-5.5,228.6
						c-9.9,24.7-20.3,43.8-27.2,55.8c-3.1-4-6.3-8.1-9.4-12.1c12.5-23.3,21.1-43.8,26.9-59.2c9.3-24.7,20.7-55.4,24-96
						c0.9-11.4,0.9-19.1,0.7-33.1c-0.3-34.6-5.1-46.2-8.8-56.4c-2-5.6-5.3-13.2-12.1-15.5c-19.9-6.8-51,38.3-57.1,47.3
						c-24.3-7.4-48.6-14.8-72.9-22.2c2.5-4.8,5.8-10.2,9.9-15.8C445.9,80,451.7,73.9,456.9,69.2z"/>
					<path class="st5" d="M419.2,50.1c-26-28.2-75.8-19.3-88.3-17c-11.1,2-22.5,4.9-31.2,12c-17.5,14.2-18,38.5-18.1,42.1
						c-0.2,5.8,0.6,10.6,1.2,13.8c4-0.6,7.9-1.3,11.9-1.9c-0.6-2.8-1.6-8.6,0.5-15.4c2.9-9.5,9.6-14.6,11.8-15.9
						c5.9-3.4,12.7-4.9,19.5-6c26.7-4.5,40.4-4.3,48.1-3.6c19.8,1.7,29.7,2.6,37.3,10.7c9,9.7,8.8,23.4,8.4,29.1
						c0.3-0.3,2.7-2.3,6.1-1.8c3.1,0.5,4.7,2.6,5,3c1.4-4.9,3.4-14.4,0.7-25.7C429.2,61.1,422.1,53.2,419.2,50.1z"/>
					<path class="st18" d="M185.3,107.9c2.6-5.4,5.3-9.7,7.4-12.6C97.6-14,120.3,293.6,177.2,327.9
						C212.2,201.2,162.9,169.7,185.3,107.9z"/>
					<path class="st19" d="M181.4,166.6c-6.9,16.1-12.7,32.7-17.7,49.5c-3.4,11.3-6.3,22.7-9.1,34.2c-2.5,10.6-3.9,21.4-5.8,32.1
						c7.8,22,17.5,38.8,28.5,45.4C200.1,245.2,187,203.1,181.4,166.6z"/>
					<path class="st5" d="M153.5,78.3c-6.8,2.3-10,9.9-12.1,15.5c-3.7,10.2-8.4,21.8-8.8,56.4c-0.1,14-0.2,21.7,0.7,33.1
						c3.3,40.5,14.7,71.3,24,96c5.8,15.4,14.4,35.9,26.9,59.2c-3.1,4-6.3,8.1-9.4,12.1c-7-11.9-17.4-31.1-27.2-55.8
						c-34.6-86.4-43.5-192.7-5.5-228.6c2-1.9,6.4-5.7,12.6-9.6c3.1-1.9,38.3-23.5,72.8-8.4c9.5,4.2,17.8,10.7,25.5,17.7
						c12,10.8,23.2,23,30.4,37.5c-24.3,7.4-48.6,14.8-72.9,22.2C204.5,116.6,173.4,71.4,153.5,78.3z"/>
					<path class="st19" d="M256.9,69.2c-9.1,1.8-19,4-29.5,7c-10,2.9-19.2,6-27.6,9.2c-3.8-4.9-14-16.6-31.4-21.5
						c-8.6-2.4-16.2-2.4-21.4-1.9c-0.8,0.7-1.8,1.4-2.8,2.3c-0.8,0.7-1.5,1.3-2,1.8c-38,36-29.1,142.2,5.5,228.6
						c9.9,24.7,20.3,43.8,27.2,55.8c3.1-4,6.3-8.1,9.4-12.1c-12.5-23.3-21.1-43.8-26.9-59.2c-9.3-24.7-20.7-55.4-24-96
						c-0.9-11.4-0.9-19.1-0.7-33.1c0.3-34.6,5.1-46.2,8.8-56.4c2-5.6,5.3-13.2,12.1-15.5c19.9-6.8,51,38.3,57.1,47.3
						c24.3-7.4,48.6-14.8,72.9-22.2c-2.5-4.8-5.8-10.2-9.9-15.8C267.9,80,262.1,73.9,256.9,69.2z"/>
					<path class="st6" d="M541,411.4c-20.1,15.5-93.8,68.6-199.8,64.4c-89.1-3.5-150.5-45.5-172.6-62.2c-0.4-15.8-0.4-32.4,0.1-49.8
						c0.9-26.8,3-51.8,5.8-75c4.2-13.4,8.3-26.9,12.5-40.3c113.4-5.8,226.8-11.6,340.2-17.3c3,18.5,6,36.9,9.1,55.4
						c3.1,25.8,5.2,54,5.5,84.2C541.8,384.9,541.5,398.4,541,411.4z"/>
					<path class="st20" d="M541.7,370.9c-0.3-30.3-2.3-58.4-5.5-84.2c-3-18.5-6-36.9-9.1-55.4c-86.9,4.4-173.9,8.9-260.8,13.3
						c-3.6,5-2.8,14.4-3,20.1c-0.3,9.7-0.7,19.4-0.8,29.1c-0.1,10.3,0.6,17.6,2.8,27.3c1.8,8.2,4.3,14.9,6.2,19.6
						c18-30.7,51.8-48.8,87.3-46.9c35.5,1.9,67.2,23.5,81.9,56c-4.1,2.4-4.9,4.1-4.8,5.2c0.4,4.2,13.4,5.8,19.2,6.1
						c2.7,0.1,6.1,0.3,8.5-1.4c3.7-2.7,4.3-7.9,4.5-9.9c1.2-10.5,5.8-20.3,7.9-30.6c6.5-31.7,12.9-41.9,15.1-45.3
						c2.7-4.1,5.3-7.2,7-9.1c1.3,8.8,2.8,20.4,3.8,33.9c0.9,12,1.1,20.9,1.3,27.4c0.5,21-0.2,42-1.6,62.9
						c-0.7,10.5-1.6,20.9-2.6,31.4c-0.5,5.5-1.1,11-1.6,16.5c-0.1,0.9-0.1,1.7-0.2,2.6c21.2-11.3,36.1-22.3,43.6-28.1
						C541.5,398.4,541.8,384.9,541.7,370.9z"/>
					<path class="st5" d="M247,195.1c-11-28.1-18.6-56.9-22.3-86.8c-9.5,4.5-12.5,7.8-14.9,10.4c-8.4,9-10.5,19.1-14.4,37
						c-9.2,43.1-8.5,38.5-9,41.8c-6,34.4-9.6,66.3-11.9,91.4c0.4-1.8,8.3-34.6,30.1-39.3c2.1-0.4,8.8-1.9,15,1.5
						c7.9,4.2,10.4,13.6,12.5,23.6c3.7,17,6.6,34.1,8.6,51.3c12.8,1,25.7,1.9,38.5,2.9c5.2-12.3,14.6-22.2,25.8-29.4
						c-3.6-4.6-7.1-9.3-10.5-14C274.6,257.8,259.5,226.9,247,195.1z"/>
					<path class="st5" d="M541,411.4c4.5,4,10.8,10.6,16.3,19.9c10.9,18.7,11.6,37,11.9,46.9c2.2,89.1-16.3,183.6-27.5,239
						c-3.1,15.3-8.3,39.6-28.2,54.7c-10.3,7.8-23.2,11.1-35.7,14.2c-22,5.5-44.1,11-66.6,14c-42.7,5.8-86.1,2.7-129.1-0.3
						c-22.4-1.6-45.2-3.3-66.1-11.5c-9.7-3.8-19.1-9.2-25.7-17.3c-9.2-11.2-12.1-26.1-14.7-40.3c-6.6-35.7-14.3-71.2-19.7-107.1
						c-6.4-43.1-8.9-49.9-11-62.3c0,0-1.5-9.3-2.4-18.8c-5.4-55.6-3.7-98-3.7-98c-2.7-10.1-3.2-18.5-3.2-24.4
						c0-11.6,2.2-16.7,4.1-19.7c1.3-2.1,39.2,20.1,75.4,22.8c23.5,1.7,42.5-3.2,54-7.2c7.8,6.8,39.1,32.6,86.7,32.6
						c45.6,0.1,76.1-23.5,84.4-30.3c12,4.1,34.7,10.1,62.6,5.7C518.8,421.4,531.9,416,541,411.4z"/>
					<path class="st14" d="M450.7,401.4c-9.3,7.5-43.7,33.6-95,33.6c-53.5-0.1-88.9-28.6-97.6-36.1c-2.9,0.9-6.3,1.9-9.9,2.8
						c0,2.7,0.1,5.3-0.1,7.2c-1.3,19.3-1.8,38.6-1.6,58c0.4,38.3,3.6,76.6,9.6,114.5c3.4,21.1,7.6,42.1,12.7,62.9
						c5.2,21.3,13.1,44.7,32.8,55.1c7.8,4.1,16.7,5.7,25.5,6.7c23.3,2.6,47,1.5,69.9-3.3c7.2-1.5,14.4-3.5,20.3-7.8
						c8.3-6.1,12.6-16,16.2-25.5c31.3-83.5,34.3-174.1,35.1-263.2C461.3,404.7,455.3,402.9,450.7,401.4z"/>
					<path class="st6" d="M439.9,418.3c-8.2,6.8-38.8,30.4-84.4,30.3c-47.5-0.1-78.9-25.9-86.7-32.6c-2.6,0.8-5.6,1.7-8.8,2.5
						c0,2.5,0,4.8-0.1,6.5c-1.1,17.5-1.6,34.9-1.4,52.4c0.3,34.7,3.2,69.3,8.5,103.6c3,19.1,6.7,38.1,11.2,56.9
						c4.6,19.3,11.6,40.4,29.1,49.8c6.9,3.7,14.8,5.1,22.6,6c20.7,2.4,41.7,1.4,62.1-3c6.4-1.4,12.8-3.1,18-7
						c7.4-5.5,11.2-14.4,14.4-23.1c27.8-75.5,30.4-157.4,31.1-238C449.3,421.3,444,419.7,439.9,418.3z"/>
					<path class="st20" d="M569.1,478.2c-0.2-9.8-0.9-28.2-11.9-46.9c-5.5-9.4-11.8-15.9-16.3-19.9c-8.9,4.6-21.7,9.8-37.7,12.4
						c6.2,8.4,14.4,21.2,20.2,38.2c6.6,19.3,6.3,32.8,0.8,97.4c-9.6,112.6-7.3,55.5-12.9,115.6c-0.6,6.1-1.9,20.9-7.8,39.3
						c-3.7,11.6-8.9,27.3-20.7,40.6c-10.7,12-22.2,16.6-45.4,25.8c-43.2,17.2-82,20.2-95.4,21.1c-6.6,0.5-12.3,0.9-12.1,0.9
						c27.1,1.2,54.3,1,81.1-2.6c22.5-3,44.6-8.5,66.6-14c12.5-3.1,25.4-6.4,35.7-14.2c19.9-15.1,25.1-39.4,28.2-54.7
						C552.8,661.9,571.3,567.3,569.1,478.2z"/>
					<path class="st6" d="M247.4,708.9c-1.3,10.8-2.1,16.3-5.4,23c-8.7,17.7-28.4,30.9-48.9,32c-2.4,0.1-4.5,0.2-7.4-0.2
						c-26.1-3.5-43-38.3-48.7-62.5c-1.6-6.5-3-15.3,0-61.3c1.6-25.1,3.6-45.6,5.1-59.6c8.8,5.5,24.7,14,46.5,17.2
						c21.8,3.3,39.6-0.2,49.6-2.8c1.5,15.3,2.9,27.6,3.8,35.3C246.8,668.9,250.4,684.5,247.4,708.9z"/>
					<path class="st19" d="M420.7,97.7c0.7-6.8,0.9-18.3-4.3-30.8c-0.5-1.3-2.2-5-4-7.9c-16.3-24.8-73.8-14.1-78.8-13.2
						c-24.9,4.9-30.9,13.2-32.9,16.1c-3.6,5.1-5.5,11.5-6.4,17.6c-0.6,3.9-1,8.1-0.8,12c0.1,2.5,0.7,5.1,1.1,7.6h0.1
						c-0.6-2.8-1.6-8.6,0.5-15.4c2.9-9.5,9.6-14.6,11.8-15.9c5.9-3.4,12.7-4.9,19.5-6c26.7-4.5,40.4-4.3,48.1-3.6
						c19.7,1.7,29.6,2.6,37.3,10.7C420.9,78.5,421,92,420.7,97.7z"/>
					<path class="st6" d="M464.2,708.9c1.3,10.8,2.1,16.3,5.4,23c8.7,17.7,28.4,30.9,48.9,32c2.4,0.1,4.5,0.2,7.4-0.2
						c26.1-3.5,43-38.3,48.7-62.5c1.6-6.5,3-15.3,0-61.3c-1.6-25.1-3.6-45.6-5.1-59.6c-8.8,5.5-24.7,14-46.5,17.2
						c-21.8,3.3-39.6-0.2-49.6-2.8c-1.5,15.3-2.9,27.6-3.8,35.3C464.8,668.9,461.2,684.5,464.2,708.9z"/>
					<path class="st20" d="M574.6,639.9c-1.6-25.1-3.6-45.6-5.1-59.6c-7.3,4.6-19.7,11.2-36.2,15.2c5.5,16.8,7.1,35.2,8.9,52.4
						c1.7,16.1,4,32.2,3.7,48.4c-0.3,15.7-2.7,33.9-14.6,45.4c-10.3,10-27,10.4-40.1,7.3c-4.8-1.1-9.6-3-13.8-5.5
						c10.2,11.6,25.4,19.6,41.1,20.4c2.4,0.1,4.5,0.2,7.4-0.2c26.1-3.5,43-38.3,48.7-62.5C576.1,694.7,577.6,686,574.6,639.9z"/>
					<path class="st21" d="M468.6,594.9c0.1,2.6,1.8,4.9,4.4,5.6c12.7,3.4,34.1,7.2,59.4,1.8c16.2-3.4,29-9.5,38-14.8
						c2.1-1.2,3.2-3.6,2.9-6l-1.2-8.6c-0.6-4.4-5.5-6.6-9.2-4.2c-8.1,5.2-19.3,11-33.5,14.3c-22.3,5.2-41.5,2-53.3-1.3
						c-3.9-1.1-7.7,1.9-7.6,5.9L468.6,594.9z"/>
					<path class="st5" d="M425,240.4c15.3-29,25.3-59.8,31.2-92c3-16.5,4.9-33,5.8-50.1c-43.8-14.9-76.9-14.4-76.9-14.4
						c-16.6-1.1-36.2-1.4-58.1,0c0,0-34.1-0.6-78.9,15c0.9,16.9,2.8,33.1,5.8,49.4c5.8,32.2,15.9,63,31.2,92
						c7.6,14.4,16.1,28.3,25.3,41.6c2.5,3.6,5.1,7.1,7.8,10.6c2.3-1,4.7-1.9,7-2.6c10-3.3,20.4-5,30.9-5.6
						c10.5,0.7,20.9,2.3,30.9,5.6c1.8,0.6,3.7,1.3,5.5,2c2.5-3.3,4.9-6.6,7.3-10C409,268.7,417.5,254.8,425,240.4z"/>
					<path class="st5" d="M525.6,197.5c-8.7-50.2-8.7-33.9-15.3-59.3c-1.8-6.9-3.7-14-8.1-19.5c-4.3-5.3-10.5-8.5-16.8-11.3
						c-3.6,30.2-11.2,59.3-22.4,87.7c-12.5,31.8-27.6,62.7-47.7,90.5c-3.2,4.4-6.4,8.8-9.8,13.1c11.9,7.3,21.8,17.6,27.2,30.3
						c12.8-1,25.7-1.9,38.5-2.9c2-17.2,4.9-34.4,8.6-51.3c1.9-8.6,4.1-19,12.5-23.6c4.7-2.6,9.4-2.3,10.7-2.3
						c13.2,0.7,25.9,16.1,33.1,37.8C533.6,248.4,529.2,218.2,525.6,197.5z"/>
					<path class="st20" d="M242,629.9c-0.9-7.7-2.4-19.9-3.8-35.3c-7.6,2-19.6,4.5-34.5,4.1c7.7,33.6,11.3,62.3,13,84
						c2.7,33.4,1.1,49.8-9.2,63.4c-7,9.2-15.8,14.4-22.3,17.4c0.2,0,0.3,0.1,0.5,0.1c2.9,0.4,5,0.3,7.4,0.2
						c20.5-1.1,40.1-14.2,48.9-32c3.3-6.7,4-12.2,5.4-23C250.4,684.5,246.8,668.9,242,629.9z"/>
					<path class="st6" d="M285,240.4c-15.3-29-25.3-59.8-31.2-92c-2.9-16.3-4.8-32.6-5.8-49.4c-6.6,2.3-13.5,5-20.5,8.1
						c-1,0.4-1.9,0.9-2.8,1.3c3.6,29.8,11.2,58.7,22.3,86.8c12.5,31.8,27.6,62.7,47.7,90.5c3.4,4.7,6.9,9.4,10.5,14
						c4.1-2.6,8.4-4.9,12.9-6.8c-2.6-3.5-5.3-7-7.8-10.6C301.1,268.7,292.6,254.8,285,240.4z"/>
					<path class="st18" d="M242.9,536.5c11.9-0.2,23.7-0.5,35.6-0.7c-3.8-20.3-6.8-44.7-7.2-72.3c-0.3-23.4,1.4-44.5,3.8-62.6
						c-11.3,0.3-22.7,0.5-34,0.8c-2.4,16.8-4.1,35.8-4.4,56.6C236.4,488.1,239.2,514.4,242.9,536.5z"/>
					<path class="st6" d="M463,195.1c11.1-28.4,18.8-57.5,22.4-87.7c-0.3-0.1-0.6-0.3-0.9-0.4c-7.7-3.4-15.3-6.3-22.5-8.7
						c-0.9,17.1-2.8,33.6-5.8,50.1c-5.8,32.2-15.9,63-31.2,92c-7.6,14.4-16.1,28.3-25.3,41.6c-2.4,3.4-4.8,6.7-7.3,10
						c4.5,1.8,9,4,13.1,6.6c3.4-4.3,6.6-8.7,9.8-13.1C435.5,257.8,450.6,226.9,463,195.1z"/>
					<path class="st18" d="M278.5,350.3h-36.4v-24.7c12.1,0.6,24.3,1.1,36.4,1.7C278.5,335,278.5,342.7,278.5,350.3z"/>
					<path class="st22" d="M286.6,352.2L286.6,352.2c0,0,0-0.1-0.1-0.1c-0.2-0.3-0.4-0.6-0.7-0.9c-1.8-2.3-3.7-4.6-5.5-6.9
						c-1,1-2,2-3,3.1c-0.1,0-0.2,0-0.3,0l-26.8-0.3c-6.4-0.1-11.9,4.3-12.2,9.8l-1.8,31.8c-1.5,1.5-3.1,3.1-4.6,4.6
						c1.9,2.5,3.9,4.9,5.8,7.4l0,0c1.9,2.8,5.4,4.7,9.6,4.7l26.8,0.3c6.4,0.1,11.9-4.3,12.2-9.8l2.2-38.5
						C288.2,355.5,287.6,353.7,286.6,352.2z"/>
					<path class="st23" d="M268.3,399.1l-26.8-0.3c-6.4-0.1-11.4-4.6-11.1-10.1l2.2-38.5c0.3-5.5,5.8-9.9,12.2-9.8l26.8,0.3
						c6.4,0.1,11.4,4.6,11.1,10.1l-2.2,38.5C280.3,394.8,274.8,399.2,268.3,399.1z"/>
					<path class="st18" d="M267.9,382c0.4,2.2,1.1,5.2,3,8.8c-9.7,0-19.4,0.1-29.2,0.1c-1.9-2.1-4.6-5.8-4.4-10.3
						c0.1-3.7,2.1-6.6,3.7-8.5c10.7-0.3,21.4-0.6,32.1-0.9c-0.3,0.1-0.7,0.3-1.2,0.5C269.4,372.8,266.8,375,267.9,382z"/>
					<path class="st18" d="M269.8,358.7c0.4,2.2,1.1,5.2,3,8.8c-9.7,0-19.4,0.1-29.2,0.1c-1.9-2.1-4.6-5.8-4.4-10.3
						c0.1-3.7,2.1-6.6,3.7-8.5c10.7-0.3,21.4-0.6,32.1-0.9c-0.3,0.1-0.7,0.3-1.2,0.5C271.4,349.6,268.7,351.8,269.8,358.7z"/>
					<path class="st14" d="M390.7,505h-68.2c-1.5,0-2.8-1.2-2.8-2.8v-24c0-1.5,1.2-2.8,2.8-2.8h68.2c1.5,0,2.8,1.2,2.8,2.8v24
						C393.4,503.7,392.2,505,390.7,505z"/>
					<path class="st20" d="M525.6,197.5c-8.7-50.2-8.7-33.9-15.3-59.3c-1.8-6.9-3.7-14-8.1-19.5c-4.3-5.3-10.5-8.5-16.8-11.3
						c-0.3-0.1-0.6-0.3-0.9-0.4c-7.7-3.4-15.3-6.3-22.5-8.7c-29.4-10-53.9-13-66.9-14c13.2,2.6,26.1,6.8,38.6,12.2
						c14.8,6.4,27.2,15.2,36.1,29c7.7,12.1,12,26.2,14.8,40.1c3.2,15.4,5,31.1,7.5,46.6c2,12.3,3.7,24.8,4.2,37.2
						c3.1-0.9,5.8-0.7,6.7-0.7c13.2,0.7,25.9,16.1,33.1,37.8C533.6,248.4,529.2,218.2,525.6,197.5z"/>
					<path class="st20" d="M572.1,573c-0.6-4.4-5.5-6.6-9.2-4.2c-8.1,5.2-19.3,11-33.5,14.3c-4,0.9-7.8,1.6-11.5,2
						c0.1,0,0.2,0,0.3,0c2.6,0.7,5.2,2,7,4c3.1,3.4,4,8.4,2.3,12.7c-0.2,0.5-0.4,1-0.7,1.4c1.9-0.3,3.7-0.6,5.6-1
						c16.2-3.4,29-9.5,38-14.8c2.1-1.2,3.2-3.6,2.9-6L572.1,573z"/>
					<path class="st21" d="M242.9,594.9c-0.1,2.6-1.8,4.9-4.4,5.6c-12.7,3.4-34.1,7.2-59.4,1.8c-16.2-3.4-29-9.5-38-14.8
						c-2.1-1.2-3.2-3.6-2.9-6l1.2-8.6c0.6-4.4,5.5-6.6,9.2-4.2c8.1,5.2,19.3,11,33.5,14.3c22.3,5.2,41.5,2,53.3-1.3
						c3.9-1.1,7.7,1.9,7.6,5.9L242.9,594.9z"/>
					<path class="st20" d="M235.5,581.9c-7.9,2.2-19,4.3-32,4l0.1,0.1c3.1,3.8,3.7,8.6,2.5,13.3c-0.5,1.9-1.3,3.8-2.3,5.5
						c0,0.1-0.1,0.1-0.1,0.2c14.4,0.1,26.5-2.2,34.8-4.5c2.5-0.7,4.3-3,4.4-5.6l0.2-7.1C243.2,583.8,239.4,580.8,235.5,581.9z"/>
					<path class="st18" d="M469.2,535.9c-11.9-0.2-23.7-0.5-35.6-0.7c3.8-20.3,6.8-44.7,7.2-72.3c0.3-23.4-1.4-44.5-3.8-62.6
						c11.3,0.3,22.7,0.5,34,0.8c2.4,16.8,4.1,35.8,4.4,56.6C475.6,487.5,472.9,513.9,469.2,535.9z"/>
					<path class="st18" d="M433.6,349.8H470v-24.7c-12.1,0.8-24.3,1.6-36.4,2.5C433.6,334.9,433.6,342.3,433.6,349.8z"/>
					<path class="st22" d="M425.4,351.6L425.4,351.6C425.4,351.6,425.4,351.5,425.4,351.6c0.3-0.4,0.5-0.7,0.8-1
						c1.8-2.3,3.7-4.6,5.5-6.9c1,1,2,2,3,3.1c0.1,0,0.2,0,0.3,0l26.8-0.3c6.4-0.1,11.9,4.3,12.2,9.8l1.8,31.8
						c1.5,1.5,3.1,3.1,4.6,4.6c-1.9,2.5-3.9,4.9-5.8,7.4l0,0c-1.9,2.8-5.4,4.7-9.6,4.7l-26.8,0.3c-6.4,0.1-11.9-4.3-12.2-9.8
						l-2.2-38.5C423.9,354.9,424.4,353.2,425.4,351.6z"/>
					<path class="st23" d="M443.3,398.4l26.8,0.1c6.4,0,11.5-4.4,11.2-9.9l-1.6-38.5c-0.2-5.5-5.6-10-12.1-10l-26.8-0.1
						c-6.4,0-11.5,4.4-11.2,9.9l1.6,38.5C431.4,393.9,436.8,398.3,443.3,398.4z"/>
					<path class="st18" d="M444.2,381.4c-0.4,2.2-1.1,5.2-3,8.8c9.7,0,19.4,0.1,29.2,0.1c1.9-2.1,4.6-5.8,4.4-10.3
						c-0.1-3.7-2.1-6.6-3.7-8.5c-10.7-0.3-21.4-0.6-32.1-0.9c0.3,0.1,0.7,0.3,1.2,0.5C442.6,372.3,445.3,374.4,444.2,381.4z"/>
					<path class="st18" d="M442.2,358.3c-0.3,2.2-1.1,5.2-2.9,8.8c9.7-0.1,19.4-0.1,29.2-0.2c1.9-2.1,4.5-5.8,4.3-10.4
						c-0.2-3.7-2.2-6.6-3.8-8.4c-10.7-0.2-21.4-0.4-32.1-0.6c0.3,0.1,0.7,0.3,1.2,0.5C440.5,349.2,443.2,351.3,442.2,358.3z"/>
					<path class="st5" d="M168.3,394.7c0,0-13.9-2.6-28.8,5.8l38.7,28.8"/>
				</g>
			</g>
		</g>
	</g>
</g>
</svg>
