<?xml version="1.0" encoding="utf-8"?>
<!-- Generator: Adobe Illustrator 28.0.0, SVG Export Plug-In . SVG Version: 6.00 Build 0)  -->
<svg version="1.1" id="Lag_1" xmlns="http://www.w3.org/2000/svg" xmlns:xlink="http://www.w3.org/1999/xlink" x="0px" y="0px"
	 viewBox="0 0 1080 1920" style="enable-background:new 0 0 1080 1920;" xml:space="preserve">
<style type="text/css">
	.st0{fill:url(#SVGID_1_);}
	.st1{clip-path:url(#SVGID_00000101081888228717068300000014609568135865021057_);}
	.st2{fill:#5E696B;}
	.st3{fill:#80898B;}
	.st4{fill:#191E2A;}
	.st5{fill:#081925;}
	.st6{fill:#092332;}
	.st7{opacity:0.42;}
	.st8{fill:#AFD9CB;}
	.st9{fill:#9198A0;}
	.st10{fill:url(#SVGID_00000109732531722659971930000005693375901274872972_);}
	.st11{clip-path:url(#SVGID_00000137843324520865366900000003561380216604463271_);}
	.st12{fill:#494F47;}
	.st13{fill:#B6BECD;}
	.st14{fill:#D5DBE4;}
	.st15{fill:#0F3849;}
	.st16{fill:#424242;}
	.st17{fill:#30332D;}
	.st18{fill:#393D38;}
	.st19{fill:url(#SVGID_00000131359641061561627790000008192457393928466596_);}
	.st20{clip-path:url(#SVGID_00000170976391161147121560000017428235384852344969_);}
	.st21{fill:#1C5060;}
	.st22{fill:#16424C;}
	.st23{fill:#333333;}
</style>
<g>
	<g>
		
			<linearGradient id="SVGID_1_" gradientUnits="userSpaceOnUse" x1="-2242.1726" y1="3114.0896" x2="-1574.837" y2="3114.0896" gradientTransform="matrix(-2.593545e-02 -0.9997 0.9997 -2.593545e-02 -2617.5547 -877.197)">
			<stop  offset="0.3566" style="stop-color:#77BD80"/>
			<stop  offset="1" style="stop-color:#C5E0C6"/>
		</linearGradient>
		<path class="st0" d="M878.5,941.2L878.5,941.2c4.8,184.2-140.7,337.4-324.9,342.2h0c-184.2,4.8-337.4-140.7-342.2-324.9l0,0
			c-4.8-184.2,140.7-337.4,324.9-342.2l0,0C720.5,611.6,873.8,757,878.5,941.2z"/>
		<g>
			<defs>
				<path id="SVGID_00000069358596344901509680000015889875884044898493_" d="M877.7,942.3L877.7,942.3
					c4.8,184.2-140.7,337.4-324.9,342.2h0c-184.2,4.8-337.4-140.7-342.2-324.9l0,0c-2.8-108,140.8-426.8,218.8-489.9
					c55-44.4,57.2,22,133.3,20l74,14C820.9,499,872.9,758.1,877.7,942.3z"/>
			</defs>
			<clipPath id="SVGID_00000026862849675331550290000014844226594036992147_">
				<use xlink:href="#SVGID_00000069358596344901509680000015889875884044898493_"  style="overflow:visible;"/>
			</clipPath>
			<g style="clip-path:url(#SVGID_00000026862849675331550290000014844226594036992147_);">
				<g>
					<path class="st21" d="M-100.5,1221c-0.5,0-1-0.2-1.4-0.7c-0.6-0.8-0.4-1.9,0.4-2.4l212.3-158.3c0.8-0.6,1.9-0.4,2.4,0.4
						c0.6,0.8,0.4,1.9-0.4,2.4l-212.3,158.3C-99.8,1220.9-100.2,1221-100.5,1221z"/>
				</g>
				<path class="st5" d="M971.1,1060.1V1193l-94.7,94.7H204.4l-84-84l-10.1-10.1v-133.6l4.3-4.7l229.5-246L533,573.7l0.9-1.1
					l6.9-8.6l0.3,0.4c0,0,1.2,1.6,3.4,4.6c0,0,0,0,0,0c21.2,28.3,135,179.9,209.3,265C834.1,925.9,971.1,1060.1,971.1,1060.1z"/>
				<path class="st5" d="M971.1,1060.1v51.3c-0.8,0.7-1.6,1.3-2.4,1.9c-17.9,13.8-39.3,22.3-60.4,30.5c-10.9,4.3-24.6,8.1-33.4,0.3
					c-6.1-5.5-7-14.5-8.2-22.6c-6.1-41.7-29.1-78.8-51.6-114.5c-24.6-39-49.2-78-73.8-117c-43.5-69-87-138-130.6-207
					c-21.1-33.5-45.4-79.5-66.2-114.1c21.2,28.3,135,179.9,209.3,265C834.1,925.9,971.1,1060.1,971.1,1060.1z"/>
				<polygon class="st22" points="834.1,1223.1 759.9,1222.9 613.6,1222.3 306.2,1221.2 300.6,1221.2 289.2,1221.1 290.2,1208.4 
					291.3,1194.8 301.8,1066.2 428.9,911.2 452.4,882.5 543.8,771.3 791.5,1060.1 				"/>
				<path class="st15" d="M773.4,1191c-0.2,12.2-5.5,22.8-13.5,31.9l-453.7-1.7c-5.8-8.3-10.7-17.1-14.9-26.4l10.4-128.7
					l150.7-183.6c9.5,33.1,13.1,65.5,29,97.4c9.2,18.5,20.4,36.1,33.5,52.1c38.1,46.8,92.3,80.7,151.5,92.4
					c22.6,4.5,46.1,5.9,67.2,15C754.8,1148.6,773.8,1168,773.4,1191z"/>
				<path class="st5" d="M613.6,1222.4C613.6,1222.4,613.6,1222.4,613.6,1222.4c-32.5-5-69.5-0.3-102.6-0.4
					c-31.1-0.1-62.3-0.2-93.4-0.3c-37.1-0.1-74.2-0.3-111.3-0.4l-5.6,0c-0.5-0.5-0.9-1.1-1.4-1.6c-3.1-3.6-6.1-7.4-9-11.2l1.1-13.6
					l10.4-128.7l127.1-154.9c-0.6,7.2-1.3,14.3-1.1,20.6c2.3,119.5,82.7,203.3,165.9,278.8C599.5,1215.9,605.8,1221.4,613.6,1222.4z
					"/>
				<polygon class="st15" points="876.4,1287.7 971.1,1193 971.1,1151.5 868.2,1218.4 219.4,1218.4 110.4,1161.3 110.4,1193.7 
					204.4,1287.7 				"/>
				<polygon class="st5" points="868.2,1109.2 971.1,1060.1 971.1,1151.5 868.2,1218.4 				"/>
				<polygon class="st5" points="110.4,1060.1 219.4,1109.2 219.4,1218.4 110.4,1161.3 				"/>
				<g>
					<path class="st21" d="M1025.6,1373.4c0.3,0,0.6-0.1,0.9-0.2c0.8-0.5,1.1-1.5,0.6-2.4l-156.6-263c-0.5-0.8-1.3-1.8-2.1-1.3
						c-0.8,0.5-2.5-0.2-2.1,0.6l157.8,265.4C1024.5,1373.1,1025,1373.4,1025.6,1373.4z"/>
				</g>
				<path class="st21" d="M367.5,1220.5c-26.1,0.2-52.2,0.4-78.3,0.6c-9.4,0.1-19.9-0.3-26.5-6.9c-6.8-6.8-7-17.6-6.8-27.3
					c0.5-19.8,1-39.6,1.5-59.4c0.5-19.4,1.1-39.4,9.5-56.9c12.3-25.8,38.7-41.1,61.9-57.7c52.3-37.4,94-87.4,135.1-136.9
					c14.4-17.4,28.9-34.8,43.3-52.1c3.4-4.1,25.4-36.4,33.1-24.2c4.6,7.2-12.3,43.1-15.2,51.1c-6.3,17.4-13.5,34.5-21.2,51.4
					c-31,68-70.4,132-100.1,200.7c-8.3,19.2-15.9,38.8-22.1,58.8C380.1,1166.5,367.3,1220.5,367.5,1220.5z"/>
				<polygon class="st21" points="869.5,1112.6 862.7,1102.5 873.2,1106.8 872.8,1111.3 				"/>
				<path class="st21" d="M722.4,1220.5c26.1,0.2,52.2,0.4,78.3,0.6c9.4,0.1,19.9-0.3,26.5-6.9c6.8-6.8,7-17.6,6.8-27.3
					c-0.5-19.8-1-39.6-1.5-59.4c-0.5-19.4-1.1-39.4-9.5-56.9c-12.3-25.8-38.7-41.1-61.9-57.7c-52.3-37.4-94-87.4-135.1-136.9
					c-14.4-17.4-28.9-34.8-43.3-52.1c-3.4-4.1-25.4-36.4-33.1-24.2c-4.6,7.2,12.3,43.1,15.2,51.1c6.3,17.4,13.5,34.5,21.2,51.4
					c31,68,70.4,132,100.1,200.7c8.3,19.2,15.9,38.8,22.1,58.8C709.8,1166.5,722.6,1220.5,722.4,1220.5z"/>
				<path class="st5" d="M543.8,771.3c-0.2,5.8-0.7,11.6-1.3,17.4c-6.6,64.6-34.4,127.5-84.1,180.3
					c-45.3,48.1-85.3,96.6-141.7,101.6c15.4,60.9,8.3,129.9-19.1,183.9c-8.5-12.4-19.7-21.7-32-27.3c-13.9-6.3-29.1-7.9-43.6-3.9
					l-2.7-114L543.8,771.3z"/>
				<path class="st5" d="M869.2,1109.2l-2.7,114c-9.9-2.8-20.2-2.9-30.1-0.7c-17.5,3.9-33.9,15.1-45.5,31.8
					c-27.3-54-34.5-123.1-19.1-183.9c-56.4-4.9-96.4-53.4-141.7-101.6c-54.1-57.5-82.3-127-85.4-197.7l2.9,3L869.2,1109.2z"/>
				<g>
					<path class="st21" d="M61.6,1376.3c-0.3,0-0.6-0.1-0.9-0.2c-0.8-0.5-1.1-1.6-0.6-2.4l157.8-265.4c0.5-0.8,1.5-1.1,2.4-0.6
						c0.8,0.5,1.1,1.5,0.6,2.4L63.1,1375.5C62.7,1376,62.2,1376.3,61.6,1376.3z"/>
				</g>
				<g>
					<path class="st21" d="M543.7,773.8c-0.9,0-1.2-0.3-1.2-1.2L539,565.7c0-0.9,0.7-1.7,1.7-1.8c0,0,0,0,0,0c0.9,0,1.7,0.7,1.7,1.7
						l3.5,206.9c0,0.9-0.1,1.3-1.1,1.3C544.9,773.8,543.7,773.8,543.7,773.8z"/>
				</g>
				<path class="st15" d="M542.5,788.7c-6.6,64.6-34.4,127.5-84.1,180.3c-45.3,48.1-85.3,96.6-141.7,101.6
					c15.4,60.9,8.3,129.9-19.1,183.9c-8.5-12.4-19.7-21.7-32-27.3c0.6-7.8,3.1-16,5.5-23.5c11.5-35.9,19.7-72.8,24.5-110.2
					c0.9-6.8-0.3-20.8,3.4-26.5c3-4.6,12.1-6.1,17-8.4c15.1-7.2,29-16.7,41.8-27.4c14.7-12.2,28-25.9,40.8-40
					C454.6,929.8,503.1,861.7,542.5,788.7z"/>
				<polygon class="st21" points="105.3,1063.6 116.5,1053.4 117.1,1063.1 107.4,1066.4 				"/>
				<polygon class="st21" points="219.2,1112.9 226,1102.4 216.2,1107.7 216.2,1111.3 				"/>
				<g>
					<path class="st21" d="M320.2,1075.8c1,0,2-0.6,2.4-1.7c0.5-1.3-0.2-2.8-1.5-3.3c-14.7-5.6-27.3-16.1-35.5-29.7
						c-0.7-1.2-2.3-1.6-3.6-0.9c-1.2,0.7-1.6,2.3-0.9,3.6c8.7,14.5,22.3,25.8,38.1,31.8C319.5,1075.7,319.8,1075.8,320.2,1075.8z"/>
				</g>
				<path class="st15" d="M836.4,1222.6c-17.5,3.9-33.9,15.1-45.5,31.8c-27.3-54-34.5-123.1-19.1-183.9
					c-56.4-4.9-96.4-53.4-141.7-101.6c-54.1-57.5-82.3-127-85.4-197.7l2.9,3c1.1,5,1.7,10.5,2.8,13.6c5.4,16.2,12.9,32,20.5,47.3
					c30.8,61.6,74.8,116.4,128,160.2c30.1,24.7,63.1,45.8,98.2,62.5C807.7,1113.4,820.8,1168.3,836.4,1222.6z"/>
				<g>
					<path class="st21" d="M768.5,1073.3c-1,0-2-0.6-2.4-1.7c-0.5-1.3,0.2-2.8,1.5-3.3c14.7-5.6,27.3-16.1,35.5-29.7
						c0.7-1.2,2.3-1.6,3.6-0.9c1.2,0.7,1.6,2.3,0.9,3.6c-8.7,14.5-22.3,25.8-38.1,31.8C769.1,1073.3,768.8,1073.3,768.5,1073.3z"/>
				</g>
				<path class="st5" d="M533.8,572.6c0,0.3-0.1,0.7-0.1,1c-11.2,85.2-48.2,165.2-94.9,237.3c-41.9,64.7-91.7,123.8-141.4,182.8
					c-22.4,26.5-44.7,53.1-67.1,79.6c-36.4,43.2-70.9,89.6-109.9,130.5l-10.1-10.1v-133.6l4.3-4.7l229.5-246L533,573.7L533.8,572.6z
					"/>
				<g>
					<path class="st21" d="M1177.9,1218c0.5,0,1-0.2,1.4-0.7c0.6-0.8,0.4-1.9-0.4-2.4l-212.3-158.3c-0.8-0.6-1.9-0.4-2.4,0.4
						c-0.6,0.8-0.4,1.9,0.4,2.4l212.3,158.3C1177.2,1217.9,1177.6,1218,1177.9,1218z"/>
				</g>
				<polygon class="st21" points="972.1,1060.7 960.9,1050.5 960.3,1060.2 970,1063.4 				"/>
				<path class="st23" d="M50.3,1340.6l9.5,33.8c0.4,1.4,1.9,2.2,3.3,1.8c1.3-0.4,2.1-1.6,1.9-2.9l-5-34.8c-0.4-2.7-2.9-4.6-5.6-4.2
					c-2.7,0.4-4.6,2.9-4.2,5.6C50.2,1340.2,50.3,1340.4,50.3,1340.6z"/>
				<path class="st23" d="M1038.5,1337.6l-9.5,33.8c-0.4,1.4-1.9,2.2-3.3,1.8c-1.3-0.4-2.1-1.6-1.9-2.9l5-34.8
					c0.4-2.7,2.9-4.6,5.6-4.2c2.7,0.4,4.6,2.9,4.2,5.6C1038.6,1337.2,1038.6,1337.4,1038.5,1337.6z"/>
			</g>
		</g>
	</g>
</g>
</svg>
