<?xml version="1.0" encoding="utf-8"?>
<!-- Generator: Adobe Illustrator 28.0.0, SVG Export Plug-In . SVG Version: 6.00 Build 0)  -->
<svg version="1.1" id="Lag_1" xmlns="http://www.w3.org/2000/svg" xmlns:xlink="http://www.w3.org/1999/xlink" x="0px" y="0px"
	 viewBox="0 0 1080 1920" style="enable-background:new 0 0 1080 1920;" xml:space="preserve">
<style type="text/css">
	.st0{fill:url(#SVGID_1_);}
	.st1{clip-path:url(#SVGID_00000170250124982191369880000004592651574279183789_);}
	.st2{fill:#5E696B;}
	.st3{fill:#80898B;}
	.st4{fill:#191E2A;}
	.st5{fill:#081925;}
	.st6{fill:#092332;}
	.st7{opacity:0.42;}
	.st8{fill:#AFD9CB;}
	.st9{fill:#9198A0;}
	.st10{fill:url(#SVGID_00000098188716472622940570000012678390269788796060_);}
	.st11{clip-path:url(#SVGID_00000056388701785678218840000009342399207983431854_);}
	.st12{fill:#494F47;}
	.st13{fill:#B6BECD;}
	.st14{fill:#D5DBE4;}
	.st15{fill:#0F3849;}
	.st16{fill:#424242;}
	.st17{fill:#30332D;}
	.st18{fill:#393D38;}
	.st19{fill:url(#SVGID_00000156548663431883867260000014102279959945516975_);}
	.st20{clip-path:url(#SVGID_00000168106150183988266620000008285077966812797569_);}
	.st21{fill:#1C5060;}
	.st22{fill:#16424C;}
	.st23{fill:#333333;}
</style>
<g>
	<g>
		
			<linearGradient id="SVGID_1_" gradientUnits="userSpaceOnUse" x1="14.2415" y1="900.0105" x2="693.1227" y2="900.0105" gradientTransform="matrix(-2.593545e-02 -0.9997 0.9997 -2.593545e-02 -360.4968 1322.063)">
			<stop  offset="0.3566" style="stop-color:#77BD80"/>
			<stop  offset="1" style="stop-color:#C5E0C6"/>
		</linearGradient>
		<path class="st0" d="M869.4,936.4L869.4,936.4c4.9,187.4-143.1,343.3-330.5,348.1h0c-187.4,4.9-343.3-143.1-348.1-330.5l0,0
			c-4.9-187.4,143.1-343.3,330.5-348.1h0C708.6,601,864.5,748.9,869.4,936.4z"/>
		<g>
			<defs>
				<path id="SVGID_00000111893459617685522000000017423475149427738805_" d="M867.1,936.4L867.1,936.4
					c4.9,187.4-143.1,343.3-330.5,348.1h0c-187.4,4.9-343.3-143.1-348.1-330.5l0,0c-3.5-136.2,120.8-456.3,235.2-513.3
					c43-21.4,143,26.3,194.2,25l26.1,44.1C831.4,505,862.3,748.9,867.1,936.4z"/>
			</defs>
			<clipPath id="SVGID_00000054966289246495002660000015360131659156159371_">
				<use xlink:href="#SVGID_00000111893459617685522000000017423475149427738805_"  style="overflow:visible;"/>
			</clipPath>
			<g style="clip-path:url(#SVGID_00000054966289246495002660000015360131659156159371_);">
				<path class="st2" d="M753.7,985.3c0,0,19,38.9,19,87.5c0,48.6-20.1,93-20.1,93l-2.6-142.3L753.7,985.3z"/>
				<path class="st3" d="M662.6,1382.5h74.2c0,0,20.5-10.2,17.9-40.9l-98.5,2.6L662.6,1382.5z"/>
				<rect x="722.7" y="1380.6" class="st2" width="14.1" height="32.6"/>
				
					<ellipse transform="matrix(0.7071 -0.7071 0.7071 0.7071 -788.4675 912.0859)" class="st4" cx="706.8" cy="1407.8" rx="31.3" ry="31.3"/>
				<path class="st2" d="M694.6,1407.8c0-6.7,5.4-12.2,12.2-12.2c6.7,0,12.2,5.4,12.2,12.2s-5.4,12.2-12.2,12.2
					C700,1420,694.6,1414.5,694.6,1407.8z"/>
				<path class="st3" d="M395.4,1382.5h-74.2c0,0-20.5-10.2-17.9-40.9l98.5,2.6L395.4,1382.5z"/>
				<rect x="321.2" y="1380.6" class="st2" width="14.1" height="32.6"/>
				
					<ellipse transform="matrix(0.2716 -0.9624 0.9624 0.2716 -1099.0363 1363.4479)" class="st4" cx="351.3" cy="1407.8" rx="31.3" ry="31.3"/>
				<path class="st2" d="M363.4,1407.8c0-6.7-5.4-12.2-12.2-12.2c-6.7,0-12.2,5.4-12.2,12.2s5.4,12.2,12.2,12.2
					C358,1420,363.4,1414.5,363.4,1407.8z"/>
				<path class="st5" d="M689.6,746.1H533.4h-14.6H362.5c-36,0-65.2,29.2-65.2,65.2v526.2c0,0,1.2,19.8,28.1,20.5
					c34.5,1,60.8-4.8,63.3,15.4c3.7,29.5,26.9,29.3,26.9,29.3h109.5h1.8h109.5c0,0,23.1,0.2,26.9-29.3c2.6-20.2,28.8-14.4,63.3-15.4
					c26.9-0.7,28.1-20.5,28.1-20.5V811.2C754.7,775.2,725.6,746.1,689.6,746.1z"/>
				<path class="st6" d="M683.7,785H370.2c-18.7,0-33.9,15.1-33.9,33.6v539.8c29.1-0.1,50.2-2.7,52.5,15.1
					c3.7,29.3,26.9,29.1,26.9,29.1h109.5h1.8h109.5c0,0,23.1,0.2,26.9-29.1c2.3-18.2,24.3-15.1,54.3-15.1V818.6
					C717.6,800,702.4,785,683.7,785z"/>
				<rect x="297.9" y="836.2" class="st5" width="455.5" height="11.5"/>
				<rect x="297.9" y="930.8" class="st5" width="455.5" height="11.5"/>
				<rect x="297.9" y="1025.5" class="st5" width="455.5" height="11.5"/>
				<rect x="297.9" y="1120.2" class="st5" width="455.5" height="11.5"/>
				<rect x="297.9" y="1214.9" class="st5" width="455.5" height="11.5"/>
				<rect x="297.9" y="1309.6" class="st5" width="455.5" height="11.5"/>
				<g class="st7">
					<g>
						<path class="st8" d="M706.1,770.9H347.8c-4.2,0-7.7-3.4-7.7-7.7c0-4.2,3.4-7.7,7.7-7.7h358.3c4.2,0,7.7,3.4,7.7,7.7
							C713.8,767.5,710.4,770.9,706.1,770.9z"/>
					</g>
				</g>
				<rect x="448.9" y="540.6" class="st9" width="16.6" height="205.5"/>
				
					<rect x="593.5" y="541.3" transform="matrix(-1 -1.224647e-16 1.224647e-16 -1 1203.652 1287.3894)" class="st9" width="16.6" height="204.7"/>
				<path class="st2" d="M298.6,915.5L298.6,915.5v-51.8l0,0c-5.3,0-9.6,4.3-9.6,9.6v32.6C289,911.2,293.3,915.5,298.6,915.5z"/>
				<path class="st2" d="M298.6,1280.2L298.6,1280.2v-51.8l0,0c-5.3,0-9.6,4.3-9.6,9.6v32.6C289,1275.9,293.3,1280.2,298.6,1280.2z"
					/>
				<path class="st2" d="M599.9,510.6h-61.4h-17.9h-61.4c-8.5,0-15.4,6.9-15.4,15.4v23l28.2,0.6c0,0-1.3-16,10.2-16
					c6.7,0,24.6,0,38.4,0c10,0,17.9,0,17.9,0c13.8,0,31.7,0,38.4,0c11.5,0,10.2,16,10.2,16l28.2-0.6v-23
					C615.3,517.5,608.4,510.6,599.9,510.6z"/>
			</g>
		</g>
	</g>
</g>
</svg>
