<?xml version="1.0" encoding="utf-8"?>
<!-- Generator: Adobe Illustrator 28.0.0, SVG Export Plug-In . SVG Version: 6.00 Build 0)  -->
<svg version="1.1" id="Lag_1" xmlns="http://www.w3.org/2000/svg" xmlns:xlink="http://www.w3.org/1999/xlink" x="0px" y="0px"
	 viewBox="0 0 714.4 814.3" style="enable-background:new 0 0 714.4 814.3;" xml:space="preserve">
<style type="text/css">
	.st0{fill:url(#SVGID_1_);}
	.st1{clip-path:url(#SVGID_00000139991807209308601120000016622836838038291860_);}
	.st2{fill:#5E696B;}
	.st3{fill:#80898B;}
	.st4{fill:#191E2A;}
	.st5{fill:#081925;}
	.st6{fill:#092332;}
	.st7{opacity:0.42;}
	.st8{fill:#AFD9CB;}
	.st9{fill:#9198A0;}
	.st10{fill:url(#SVGID_00000047024279939676679710000010416655045133404292_);}
	.st11{clip-path:url(#SVGID_00000054985043100245401000000011852223329515017660_);}
	.st12{fill:#1C5060;}
	.st13{fill:#16424C;}
	.st14{fill:#0F3849;}
	.st15{fill:#333333;}
	.st16{fill:url(#SVGID_00000132075214163862293230000015288561159200990370_);}
	.st17{clip-path:url(#SVGID_00000083064681097819789360000001159246246844881332_);}
	.st18{fill:#494F47;}
	.st19{fill:#B6BECD;}
	.st20{fill:#D5DBE4;}
	.st21{fill:#424242;}
	.st22{fill:#30332D;}
	.st23{fill:#393D38;}
</style>
<g>
	<g>
		
			<linearGradient id="SVGID_1_" gradientUnits="userSpaceOnUse" x1="-151.6028" y1="525.4842" x2="527.2007" y2="525.4842" gradientTransform="matrix(-2.593545e-02 -0.9997 -0.9997 2.593545e-02 882.0236 612.7083)">
			<stop  offset="0.3566" style="stop-color:#77BD80"/>
			<stop  offset="1" style="stop-color:#C5E0C6"/>
		</linearGradient>
		<path class="st0" d="M691.1,429.8L691.1,429.8C696,617.2,548,773.1,360.6,777.9l0,0C173.2,782.8,17.3,634.8,12.5,447.4l0,0
			C7.6,260,155.6,104.1,343,99.3l0,0C530.3,94.4,686.2,242.3,691.1,429.8z"/>
		<g>
			<g>
				<defs>
					<path id="SVGID_00000025437164355351228260000006013640585629747104_" d="M688.8,429.8L688.8,429.8
						c4.9,187.4-143.1,343.3-330.5,348.1l0,0C170.9,782.8,15,634.8,10.2,447.4l0,0C6.7,311.2,131-8.9,245.4-65.9
						c43-21.4,143,26.3,194.2,25l26.1,44.1C653.1-1.6,684,242.3,688.8,429.8z"/>
				</defs>
				<clipPath id="SVGID_00000044874567996090763960000013872848894936922558_">
					<use xlink:href="#SVGID_00000025437164355351228260000006013640585629747104_"  style="overflow:visible;"/>
				</clipPath>
				<g style="clip-path:url(#SVGID_00000044874567996090763960000013872848894936922558_);">
					<path class="st2" d="M575.4,478.7c0,0,19,38.9,19,87.5c0,48.6-20.1,93-20.1,93l-2.6-142.3L575.4,478.7z"/>
					<path class="st5" d="M511.3,239.5H355.1h-14.6H184.2c-36,0-65.2,29.2-65.2,65.2v526.2c0,0,1.2,19.8,28.1,20.5
						c34.5,1,60.8-4.8,63.3,15.4c3.7,29.5,26.9,29.3,26.9,29.3h109.5h1.8h109.5c0,0,23.1,0.2,26.9-29.3
						c2.6-20.2,28.8-14.4,63.3-15.4c26.9-0.7,28.1-20.5,28.1-20.5V304.6C576.4,268.6,547.3,239.5,511.3,239.5z"/>
					<path class="st6" d="M505.4,278.4H191.9c-18.7,0-33.9,15.1-33.9,33.6v539.8c29.1-0.1,50.2-2.7,52.5,15.1
						c3.7,29.3,26.9,29.1,26.9,29.1h109.5h1.8h109.5c0,0,23.1,0.2,26.9-29.1c2.3-18.2,24.3-15.1,54.3-15.1V312
						C539.3,293.4,524.1,278.4,505.4,278.4z"/>
					<rect x="119.6" y="329.6" class="st5" width="455.5" height="11.5"/>
					<rect x="119.6" y="424.2" class="st5" width="455.5" height="11.5"/>
					<rect x="119.6" y="518.9" class="st5" width="455.5" height="11.5"/>
					<rect x="119.6" y="613.6" class="st5" width="455.5" height="11.5"/>
					<rect x="119.6" y="708.3" class="st5" width="455.5" height="11.5"/>
					<rect x="119.6" y="803" class="st5" width="455.5" height="11.5"/>
					<g class="st7">
						<g>
							<path class="st8" d="M527.8,264.3H169.5c-4.2,0-7.7-3.4-7.7-7.7c0-4.2,3.4-7.7,7.7-7.7h358.3c4.2,0,7.7,3.4,7.7,7.7
								S532.1,264.3,527.8,264.3z"/>
						</g>
					</g>
					<rect x="270.6" y="34" class="st9" width="16.6" height="205.5"/>
					<rect x="415.3" y="34.8" class="st9" width="16.6" height="204.7"/>
					<path class="st2" d="M120.3,408.9L120.3,408.9v-51.8l0,0c-5.3,0-9.6,4.3-9.6,9.6v32.6C110.7,404.6,115,408.9,120.3,408.9z"/>
					<path class="st2" d="M120.3,773.6L120.3,773.6v-51.8l0,0c-5.3,0-9.6,4.3-9.6,9.6V764C110.7,769.3,115,773.6,120.3,773.6z"/>
					<path class="st2" d="M421.6,4h-61.4h-17.9h-61.4c-8.5,0-15.4,6.9-15.4,15.4v23l28.2,0.6c0,0-1.3-16,10.2-16
						c6.7,0,24.6,0,38.4,0c10,0,17.9,0,17.9,0c13.8,0,31.7,0,38.4,0c11.5,0,10.2,16,10.2,16l28.2-0.6v-23C437,10.9,430.1,4,421.6,4z
						"/>
				</g>
			</g>
		</g>
	</g>
</g>
<g>
	<g>
		<g>
			<g>
				<defs>
					<path id="SVGID_00000176026572578772198710000018277353391892255876_" d="M1424.8,416.5L1424.8,416.5
						c4.8,184.2-140.7,337.4-324.9,342.2l0,0C915.7,763.5,762.5,618,757.7,433.8l0,0C754.9,325.8,898.5,7,976.5-56.1
						c55-44.4,57.2,22,133.3,20l74,14C1368-26.8,1420,232.3,1424.8,416.5z"/>
				</defs>
				<clipPath id="SVGID_00000017486190364036858980000012363366604395849143_">
					<use xlink:href="#SVGID_00000176026572578772198710000018277353391892255876_"  style="overflow:visible;"/>
				</clipPath>
				<g style="clip-path:url(#SVGID_00000017486190364036858980000012363366604395849143_);">
					<g>
						<path class="st12" d="M446.6,695.2c-0.5,0-1-0.2-1.4-0.7c-0.6-0.8-0.4-1.9,0.4-2.4l212.3-158.3c0.8-0.6,1.9-0.4,2.4,0.4
							c0.6,0.8,0.4,1.9-0.4,2.4L447.6,694.9C447.3,695.1,446.9,695.2,446.6,695.2z"/>
					</g>
					<path class="st5" d="M1518.2,534.3v132.9l-94.7,94.7h-672l-84-84l-10.1-10.1V534.2l4.3-4.7l229.5-246l188.9-235.6l0.9-1.1
						l6.9-8.6l0.3,0.4c0,0,1.2,1.6,3.4,4.6l0,0c21.2,28.3,135,179.9,209.3,265C1381.2,400.1,1518.2,534.3,1518.2,534.3z"/>
					<polygon class="st14" points="1423.5,761.9 1518.2,667.2 1518.2,625.7 1415.3,692.6 766.5,692.6 657.5,635.5 657.5,667.9 
						751.5,761.9 					"/>
					<polygon class="st5" points="657.5,534.3 766.5,583.4 766.5,692.6 657.5,635.5 					"/>
					<g>
						<path class="st12" d="M608.7,850.5c-0.3,0-0.6-0.1-0.9-0.2c-0.8-0.5-1.1-1.6-0.6-2.4L765,582.5c0.5-0.8,1.5-1.1,2.4-0.6
							c0.8,0.5,1.1,1.5,0.6,2.4L610.2,849.7C609.8,850.2,609.3,850.5,608.7,850.5z"/>
					</g>
					<polygon class="st12" points="652.4,537.8 663.6,527.6 664.2,537.3 654.5,540.6 					"/>
					<path class="st5" d="M1080.9,46.8c0,0.3-0.1,0.7-0.1,1c-11.2,85.2-48.2,165.2-94.9,237.3c-41.9,64.7-91.7,123.8-141.4,182.8
						c-22.4,26.5-44.7,53.1-67.1,79.6C741,590.7,706.5,637.1,667.5,678l-10.1-10.1V534.3l4.3-4.7l229.5-246l188.9-235.7L1080.9,46.8
						z"/>
					<path class="st15" d="M597.4,814.8l9.5,33.8c0.4,1.4,1.9,2.2,3.3,1.8c1.3-0.4,2.1-1.6,1.9-2.9l-5-34.8
						c-0.4-2.7-2.9-4.6-5.6-4.2s-4.6,2.9-4.2,5.6C597.3,814.4,597.4,814.6,597.4,814.8z"/>
				</g>
			</g>
		</g>
	</g>
</g>
</svg>
