<?xml version="1.0" encoding="utf-8"?>
<!-- Generator: Adobe Illustrator 28.0.0, SVG Export Plug-In . SVG Version: 6.00 Build 0)  -->
<svg version="1.1" id="Lag_1" xmlns="http://www.w3.org/2000/svg" xmlns:xlink="http://www.w3.org/1999/xlink" x="0px" y="0px"
	 viewBox="0 0 1080 1920" style="enable-background:new 0 0 1080 1920;" xml:space="preserve">
<style type="text/css">
	.st0{fill:url(#SVGID_1_);}
	.st1{clip-path:url(#SVGID_00000134954211533067076260000005219563857894593452_);}
	.st2{fill:#5E696B;}
	.st3{fill:#80898B;}
	.st4{fill:#191E2A;}
	.st5{fill:#081925;}
	.st6{fill:#092332;}
	.st7{opacity:0.42;}
	.st8{fill:#AFD9CB;}
	.st9{fill:#9198A0;}
	.st10{fill:url(#SVGID_00000101069855863100221340000005521914877712641668_);}
	.st11{clip-path:url(#SVGID_00000075858935107198589270000005638218847222056336_);}
	.st12{fill:#494F47;}
	.st13{fill:#191E2A;}
	.st14{fill:#191E2A;}
	.st15{fill:#0F3849;}
	.st16{fill:#424242;}
	.st17{fill:#30332D;}
	.st18{fill:#393D38;}
	.st19{fill:url(#SVGID_00000142859916550110639130000011098985577432020103_);}
	.st20{clip-path:url(#SVGID_00000034774574320206742030000011806143272892369086_);}
	.st21{fill:#1C5060;}
	.st22{fill:#16424C;}
	.st23{fill:#333333;}
</style>
<g>
	<g>
		
			<linearGradient id="SVGID_1_" gradientUnits="userSpaceOnUse" x1="-1113.954" y1="2009.3079" x2="-435.5397" y2="2009.3079" gradientTransform="matrix(-2.593545e-02 -0.9997 0.9997 -2.593545e-02 -1489.0258 222.433)">
			<stop  offset="0.3566" style="stop-color:#77BD80"/>
			<stop  offset="1" style="stop-color:#C5E0C6"/>
		</linearGradient>
		<path class="st0" d="M878.8,936L878.8,936c4.9,187.3-143,343-330.3,347.9h0c-187.3,4.9-343-143-347.9-330.3l0,0
			c-4.9-187.3,143-343,330.3-347.9h0C718.2,600.9,873.9,748.7,878.8,936z"/>
		<g>
			<defs>
				<path id="SVGID_00000178920806734432350310000004127380159853623955_" d="M879.4,936.6L879.4,936.6
					c4.9,187.3-143,343-330.3,347.9h0c-187.3,4.9-343-143-347.9-330.3l0,0c-3.2-123.3,24.3-401.9,121.1-463.8
					c50.3-32.2,179.6-53.6,243.6-55.2l97.4,50.7C850.6,481,874.5,749.3,879.4,936.6z"/>
			</defs>
			<clipPath id="SVGID_00000140726981203011284840000016354902537076911540_">
				<use xlink:href="#SVGID_00000178920806734432350310000004127380159853623955_"  style="overflow:visible;"/>
			</clipPath>
			<g style="clip-path:url(#SVGID_00000140726981203011284840000016354902537076911540_);">
				<path class="st12" d="M711.3,624.1c-2.6-5.4-5.3-9.7-7.4-12.6c95.1-109.3,72.4,198.3,15.5,232.6
					C684.4,717.4,733.7,685.9,711.3,624.1z"/>
				<path class="st13" d="M715.2,682.8c6.9,16.1,12.7,32.7,17.7,49.5c3.4,11.3,6.3,22.7,9.1,34.2c2.5,10.6,3.9,21.4,5.8,32.1
					c-7.8,22-17.5,38.8-28.5,45.4C696.5,761.4,709.6,719.3,715.2,682.8z"/>
				<path class="st5" d="M743,594.5c6.8,2.3,10,9.9,12.1,15.5c3.7,10.2,8.4,21.8,8.8,56.4c0.1,14,0.2,21.7-0.7,33.1
					c-3.3,40.5-14.7,71.3-24,96c-5.8,15.4-14.4,35.9-26.9,59.2c3.1,4,6.3,8.1,9.4,12.1c7-11.9,17.4-31.1,27.2-55.8
					c34.6-86.4,43.5-192.7,5.5-228.6c-2-1.9-6.4-5.7-12.6-9.6c-3.1-1.9-38.3-23.5-72.8-8.4c-9.5,4.2-17.8,10.7-25.5,17.7
					c-12,10.8-23.2,23-30.4,37.5c24.3,7.4,48.6,14.8,72.9,22.2C692.1,632.8,723.2,587.6,743,594.5z"/>
				<path class="st13" d="M639.7,585.4c9.1,1.8,19,4,29.5,7c10,2.9,19.2,6,27.6,9.2c3.8-4.9,14-16.6,31.4-21.5
					c8.6-2.4,16.2-2.4,21.4-1.9c0.8,0.7,1.8,1.4,2.8,2.3c0.8,0.7,1.5,1.3,2,1.8c38,36,29.1,142.2-5.5,228.6
					c-9.9,24.7-20.3,43.8-27.2,55.8c-3.1-4-6.3-8.1-9.4-12.1c12.5-23.3,21.1-43.8,26.9-59.2c9.3-24.7,20.7-55.4,24-96
					c0.9-11.4,0.9-19.1,0.7-33.1c-0.3-34.6-5.1-46.2-8.8-56.4c-2-5.6-5.3-13.2-12.1-15.5c-19.9-6.8-51,38.3-57.1,47.3
					c-24.3-7.4-48.6-14.8-72.9-22.2c2.5-4.8,5.8-10.2,9.9-15.8C628.7,596.2,634.5,590.1,639.7,585.4z"/>
				<path class="st5" d="M602,566.3c-26-28.2-75.8-19.3-88.3-17c-11.1,2-22.5,4.9-31.2,12c-17.5,14.2-18,38.5-18.1,42.1
					c-0.2,5.8,0.6,10.6,1.2,13.8c4-0.6,7.9-1.3,11.9-1.9c-0.6-2.8-1.6-8.6,0.5-15.4c2.9-9.5,9.6-14.6,11.8-15.9
					c5.9-3.4,12.7-4.9,19.5-6c26.7-4.5,40.4-4.3,48.1-3.6c19.8,1.7,29.7,2.6,37.3,10.7c9,9.7,8.8,23.4,8.4,29.1
					c0.3-0.3,2.7-2.3,6.1-1.8c3.1,0.5,4.7,2.6,5,3c1.4-4.9,3.4-14.4,0.7-25.7C612,577.3,604.9,569.4,602,566.3z"/>
				<path class="st12" d="M368.1,624.1c2.6-5.4,5.3-9.7,7.4-12.6c-95.1-109.3-72.4,198.3-15.5,232.6
					C395,717.4,345.7,685.9,368.1,624.1z"/>
				<path class="st13" d="M364.2,682.8c-6.9,16.1-12.7,32.7-17.7,49.5c-3.4,11.3-6.3,22.7-9.1,34.2c-2.5,10.6-3.9,21.4-5.8,32.1
					c7.8,22,17.5,38.8,28.5,45.4C382.9,761.4,369.8,719.3,364.2,682.8z"/>
				<path class="st5" d="M336.3,594.5c-6.8,2.3-10,9.9-12.1,15.5c-3.7,10.2-8.4,21.8-8.8,56.4c-0.1,14-0.2,21.7,0.7,33.1
					c3.3,40.5,14.7,71.3,24,96c5.8,15.4,14.4,35.9,26.9,59.2c-3.1,4-6.3,8.1-9.4,12.1c-7-11.9-17.4-31.1-27.2-55.8
					c-34.6-86.4-43.5-192.7-5.5-228.6c2-1.9,6.4-5.7,12.6-9.6c3.1-1.9,38.3-23.5,72.8-8.4c9.5,4.2,17.8,10.7,25.5,17.7
					c12,10.8,23.2,23,30.4,37.5c-24.3,7.4-48.6,14.8-72.9,22.2C387.3,632.8,356.2,587.6,336.3,594.5z"/>
				<path class="st13" d="M439.7,585.4c-9.1,1.8-19,4-29.5,7c-10,2.9-19.2,6-27.6,9.2c-3.8-4.9-14-16.6-31.4-21.5
					c-8.6-2.4-16.2-2.4-21.4-1.9c-0.8,0.7-1.8,1.4-2.8,2.3c-0.8,0.7-1.5,1.3-2,1.8c-38,36-29.1,142.2,5.5,228.6
					c9.9,24.7,20.3,43.8,27.2,55.8c3.1-4,6.3-8.1,9.4-12.1c-12.5-23.3-21.1-43.8-26.9-59.2c-9.3-24.7-20.7-55.4-24-96
					c-0.9-11.4-0.9-19.1-0.7-33.1c0.3-34.6,5.1-46.2,8.8-56.4c2-5.6,5.3-13.2,12.1-15.5c19.9-6.8,51,38.3,57.1,47.3
					c24.3-7.4,48.6-14.8,72.9-22.2c-2.5-4.8-5.8-10.2-9.9-15.8C450.7,596.2,444.9,590.1,439.7,585.4z"/>
				<path class="st6" d="M723.8,927.6C703.7,943.1,630,996.2,524,992c-89.1-3.5-150.5-45.5-172.6-62.2c-0.4-15.8-0.4-32.4,0.1-49.8
					c0.9-26.8,3-51.8,5.8-75c4.2-13.4,8.3-26.9,12.5-40.3c113.4-5.8,226.8-11.6,340.2-17.3c3,18.5,6,36.9,9.1,55.4
					c3.1,25.8,5.2,54,5.5,84.2C724.6,901.1,724.3,914.6,723.8,927.6z"/>
				<path class="st14" d="M724.5,887.1c-0.3-30.3-2.3-58.4-5.5-84.2c-3-18.5-6-36.9-9.1-55.4c-86.9,4.4-173.9,8.9-260.8,13.3
					c-3.6,5-2.8,14.4-3,20.1c-0.3,9.7-0.7,19.4-0.8,29.1c-0.1,10.3,0.6,17.6,2.8,27.3c1.8,8.2,4.3,14.9,6.2,19.6
					c18-30.7,51.8-48.8,87.3-46.9c35.5,1.9,67.2,23.5,81.9,56c-4.1,2.4-4.9,4.1-4.8,5.2c0.4,4.2,13.4,5.8,19.2,6.1
					c2.7,0.1,6.1,0.3,8.5-1.4c3.7-2.7,4.3-7.9,4.5-9.9c1.2-10.5,5.8-20.3,7.9-30.6c6.5-31.7,12.9-41.9,15.1-45.3
					c2.7-4.1,5.3-7.2,7-9.1c1.3,8.8,2.8,20.4,3.8,33.9c0.9,12,1.1,20.9,1.3,27.4c0.5,21-0.2,42-1.6,62.9
					c-0.7,10.5-1.6,20.9-2.6,31.4c-0.5,5.5-1.1,11-1.6,16.5c-0.1,0.9-0.1,1.7-0.2,2.6c21.2-11.3,36.1-22.3,43.6-28.1
					C724.3,914.6,724.6,901.1,724.5,887.1z"/>
				<path class="st5" d="M429.8,711.3c-11-28.1-18.6-56.9-22.3-86.8c-9.5,4.5-12.5,7.8-14.9,10.4c-8.4,9-10.5,19.1-14.4,37
					c-9.2,43.1-8.5,38.5-9,41.8c-6,34.4-9.6,66.3-11.9,91.4c0.4-1.8,8.3-34.6,30.1-39.3c2.1-0.4,8.8-1.9,15,1.5
					c7.9,4.2,10.4,13.6,12.5,23.6c3.7,17,6.6,34.1,8.6,51.3c12.8,1,25.7,1.9,38.5,2.9c5.2-12.3,14.6-22.2,25.8-29.4
					c-3.6-4.6-7.1-9.3-10.5-14C457.4,774,442.3,743.1,429.8,711.3z"/>
				<path class="st5" d="M723.8,927.6c4.5,4,10.8,10.6,16.3,19.9c10.9,18.7,11.6,37,11.9,46.9c2.2,89.1-16.3,183.6-27.5,239
					c-3.1,15.3-8.3,39.6-28.2,54.7c-10.3,7.8-23.2,11.1-35.7,14.2c-22,5.5-44.1,11-66.6,14c-42.7,5.8-86.1,2.7-129.1-0.3
					c-22.4-1.6-45.2-3.3-66.1-11.5c-9.7-3.8-19.1-9.2-25.7-17.3c-9.2-11.2-12.1-26.1-14.7-40.3c-6.6-35.7-14.3-71.2-19.7-107.1
					c-6.4-43.1-8.9-49.9-11-62.3c0,0-1.5-9.3-2.4-18.8c-5.4-55.6-3.7-98-3.7-98c-2.7-10.1-3.2-18.5-3.2-24.4
					c0-11.6,2.2-16.7,4.1-19.7c1.3-2.1,39.2,20.1,75.4,22.8c23.5,1.7,42.5-3.2,54-7.2c7.8,6.8,39.1,32.6,86.7,32.6
					c45.6,0.1,76.1-23.5,84.4-30.3c12,4.1,34.7,10.1,62.6,5.7C701.6,937.6,714.7,932.2,723.8,927.6z"/>
				<path class="st15" d="M633.5,917.6c-9.3,7.5-43.7,33.6-95,33.6c-53.5-0.1-88.9-28.6-97.6-36.1c-2.9,0.9-6.3,1.9-9.9,2.8
					c0,2.7,0.1,5.3-0.1,7.2c-1.3,19.3-1.8,38.6-1.6,58c0.4,38.3,3.6,76.6,9.6,114.5c3.4,21.1,7.6,42.1,12.7,62.9
					c5.2,21.3,13.1,44.7,32.8,55.1c7.8,4.1,16.7,5.7,25.5,6.7c23.3,2.6,47,1.5,69.9-3.3c7.2-1.5,14.4-3.5,20.3-7.8
					c8.3-6.1,12.6-16,16.2-25.5c31.3-83.5,34.3-174.1,35.1-263.2C644.1,920.9,638.1,919.1,633.5,917.6z"/>
				<path class="st6" d="M622.7,934.5c-8.2,6.8-38.8,30.4-84.4,30.3c-47.5-0.1-78.9-25.9-86.7-32.6c-2.6,0.8-5.6,1.7-8.8,2.5
					c0,2.5,0,4.8-0.1,6.5c-1.1,17.5-1.6,34.9-1.4,52.4c0.3,34.7,3.2,69.3,8.5,103.6c3,19.1,6.7,38.1,11.2,56.9
					c4.6,19.3,11.6,40.4,29.1,49.8c6.9,3.7,14.8,5.1,22.6,6c20.7,2.4,41.7,1.4,62.1-3c6.4-1.4,12.8-3.1,18-7
					c7.4-5.5,11.2-14.4,14.4-23.1c27.8-75.5,30.4-157.4,31.1-238C632.1,937.5,626.8,935.9,622.7,934.5z"/>
				<path class="st14" d="M751.9,994.4c-0.2-9.8-0.9-28.2-11.9-46.9c-5.5-9.4-11.8-15.9-16.3-19.9c-8.9,4.6-21.7,9.8-37.7,12.4
					c6.2,8.4,14.4,21.2,20.2,38.2c6.6,19.3,6.3,32.8,0.8,97.4c-9.6,112.6-7.3,55.5-12.9,115.6c-0.6,6.1-1.9,20.9-7.8,39.3
					c-3.7,11.6-8.9,27.3-20.7,40.6c-10.7,12-22.2,16.6-45.4,25.8c-43.2,17.2-82,20.2-95.4,21.1c-6.6,0.5-12.3,0.9-12.1,0.9
					c27.1,1.2,54.3,1,81.1-2.6c22.5-3,44.6-8.5,66.6-14c12.5-3.1,25.4-6.4,35.7-14.2c19.9-15.1,25.1-39.4,28.2-54.7
					C735.6,1178.1,754.1,1083.5,751.9,994.4z"/>
				<path class="st6" d="M430.2,1225.1c-1.3,10.8-2.1,16.3-5.4,23c-8.7,17.7-28.4,30.9-48.9,32c-2.4,0.1-4.5,0.2-7.4-0.2
					c-26.1-3.5-43-38.3-48.7-62.5c-1.6-6.5-3-15.3,0-61.3c1.6-25.1,3.6-45.6,5.1-59.6c8.8,5.5,24.7,14,46.5,17.2
					c21.8,3.3,39.6-0.2,49.6-2.8c1.5,15.3,2.9,27.6,3.8,35.3C429.6,1185.1,433.2,1200.7,430.2,1225.1z"/>
				<path class="st13" d="M603.5,613.9c0.7-6.8,0.9-18.3-4.3-30.8c-0.5-1.3-2.2-5-4-7.9c-16.3-24.8-73.8-14.1-78.8-13.2
					c-24.9,4.9-30.9,13.2-32.9,16.1c-3.6,5.1-5.5,11.5-6.4,17.6c-0.6,3.9-1,8.1-0.8,12c0.1,2.5,0.7,5.1,1.1,7.6c0,0,0.1,0,0.1,0
					c-0.6-2.8-1.6-8.6,0.5-15.4c2.9-9.5,9.6-14.6,11.8-15.9c5.9-3.4,12.7-4.9,19.5-6c26.7-4.5,40.4-4.3,48.1-3.6
					c19.7,1.7,29.6,2.6,37.3,10.7C603.7,594.7,603.8,608.2,603.5,613.9z"/>
				<path class="st6" d="M647,1225.1c1.3,10.8,2.1,16.3,5.4,23c8.7,17.7,28.4,30.9,48.9,32c2.4,0.1,4.5,0.2,7.4-0.2
					c26.1-3.5,43-38.3,48.7-62.5c1.6-6.5,3-15.3,0-61.3c-1.6-25.1-3.6-45.6-5.1-59.6c-8.8,5.5-24.7,14-46.5,17.2
					c-21.8,3.3-39.6-0.2-49.6-2.8c-1.5,15.3-2.9,27.6-3.8,35.3C647.6,1185.1,644,1200.7,647,1225.1z"/>
				<path class="st14" d="M757.4,1156.1c-1.6-25.1-3.6-45.6-5.1-59.6c-7.3,4.6-19.7,11.2-36.2,15.2c5.5,16.8,7.1,35.2,8.9,52.4
					c1.7,16.1,4,32.2,3.7,48.4c-0.3,15.7-2.7,33.9-14.6,45.4c-10.3,10-27,10.4-40.1,7.3c-4.8-1.1-9.6-3-13.8-5.5
					c10.2,11.6,25.4,19.6,41.1,20.4c2.4,0.1,4.5,0.2,7.4-0.2c26.1-3.5,43-38.3,48.7-62.5C758.9,1210.9,760.4,1202.2,757.4,1156.1z"
					/>
				<path class="st16" d="M651.4,1111.1c0.1,2.6,1.8,4.9,4.4,5.6c12.7,3.4,34.1,7.2,59.4,1.8c16.2-3.4,29-9.5,38-14.8
					c2.1-1.2,3.2-3.6,2.9-6l-1.2-8.6c-0.6-4.4-5.5-6.6-9.2-4.2c-8.1,5.2-19.3,11-33.5,14.3c-22.3,5.2-41.5,2-53.3-1.3
					c-3.9-1.1-7.7,1.9-7.6,5.9L651.4,1111.1z"/>
				<path class="st5" d="M607.8,756.6c15.3-29,25.3-59.8,31.2-92c3-16.5,4.9-33,5.8-50.1c-43.8-14.9-76.9-14.4-76.9-14.4
					c-16.6-1.1-36.2-1.4-58.1,0c0,0-34.1-0.6-78.9,15c0.9,16.9,2.8,33.1,5.8,49.4c5.8,32.2,15.9,63,31.2,92
					c7.6,14.4,16.1,28.3,25.3,41.6c2.5,3.6,5.1,7.1,7.8,10.6c2.3-1,4.7-1.9,7-2.6c10-3.3,20.4-5,30.9-5.6
					c10.5,0.7,20.9,2.3,30.9,5.6c1.8,0.6,3.7,1.3,5.5,2c2.5-3.3,4.9-6.6,7.3-10C591.8,784.9,600.3,771,607.8,756.6z"/>
				<path class="st5" d="M708.4,713.7c-8.7-50.2-8.7-33.9-15.3-59.3c-1.8-6.9-3.7-14-8.1-19.5c-4.3-5.3-10.5-8.5-16.8-11.3
					c-3.6,30.2-11.2,59.3-22.4,87.7c-12.5,31.8-27.6,62.7-47.7,90.5c-3.2,4.4-6.4,8.8-9.8,13.1c11.9,7.3,21.8,17.6,27.2,30.3
					c12.8-1,25.7-1.9,38.5-2.9c2-17.2,4.9-34.4,8.6-51.3c1.9-8.6,4.1-19,12.5-23.6c4.7-2.6,9.4-2.3,10.7-2.3
					c13.2,0.7,25.9,16.1,33.1,37.8C716.4,764.6,712,734.4,708.4,713.7z"/>
				<path class="st14" d="M424.8,1146.1c-0.9-7.7-2.4-19.9-3.8-35.3c-7.6,2-19.6,4.5-34.5,4.1c7.7,33.6,11.3,62.3,13,84
					c2.7,33.4,1.1,49.8-9.2,63.4c-7,9.2-15.8,14.4-22.3,17.4c0.2,0,0.3,0.1,0.5,0.1c2.9,0.4,5,0.3,7.4,0.2
					c20.5-1.1,40.1-14.2,48.9-32c3.3-6.7,4-12.2,5.4-23C433.2,1200.7,429.6,1185.1,424.8,1146.1z"/>
				<path class="st6" d="M467.8,756.6c-15.3-29-25.3-59.8-31.2-92c-2.9-16.3-4.8-32.6-5.8-49.4c-6.6,2.3-13.5,5-20.5,8.1
					c-1,0.4-1.9,0.9-2.8,1.3c3.6,29.8,11.2,58.7,22.3,86.8c12.5,31.8,27.6,62.7,47.7,90.5c3.4,4.7,6.9,9.4,10.5,14
					c4.1-2.6,8.4-4.9,12.9-6.8c-2.6-3.5-5.3-7-7.8-10.6C483.9,784.9,475.4,771,467.8,756.6z"/>
				<path class="st12" d="M425.7,1052.7c11.9-0.2,23.7-0.5,35.6-0.7c-3.8-20.3-6.8-44.7-7.2-72.3c-0.3-23.4,1.4-44.5,3.8-62.6
					c-11.3,0.3-22.7,0.5-34,0.8c-2.4,16.8-4.1,35.8-4.4,56.6C419.2,1004.3,422,1030.6,425.7,1052.7z"/>
				<path class="st6" d="M645.8,711.3c11.1-28.4,18.8-57.5,22.4-87.7c-0.3-0.1-0.6-0.3-0.9-0.4c-7.7-3.4-15.3-6.3-22.5-8.7
					c-0.9,17.1-2.8,33.6-5.8,50.1c-5.8,32.2-15.9,63-31.2,92c-7.6,14.4-16.1,28.3-25.3,41.6c-2.4,3.4-4.8,6.7-7.3,10
					c4.5,1.8,9,4,13.1,6.6c3.4-4.3,6.6-8.7,9.8-13.1C618.3,774,633.4,743.1,645.8,711.3z"/>
				<path class="st12" d="M461.3,866.5h-36.4v-24.7c12.1,0.6,24.3,1.1,36.4,1.7C461.3,851.2,461.3,858.9,461.3,866.5z"/>
				<path class="st17" d="M469.4,868.4C469.4,868.4,469.4,868.4,469.4,868.4c0,0,0-0.1-0.1-0.1c-0.2-0.3-0.4-0.6-0.7-0.9
					c-1.8-2.3-3.7-4.6-5.5-6.9c-1,1-2,2-3,3.1c-0.1,0-0.2,0-0.3,0l-26.8-0.3c-6.4-0.1-11.9,4.3-12.2,9.8l-1.8,31.8
					c-1.5,1.5-3.1,3.1-4.6,4.6c1.9,2.5,3.9,4.9,5.8,7.4c0,0,0,0,0,0c1.9,2.8,5.4,4.7,9.6,4.7l26.8,0.3c6.4,0.1,11.9-4.3,12.2-9.8
					l2.2-38.5C471,871.7,470.4,869.9,469.4,868.4z"/>
				<path class="st18" d="M451.1,915.3l-26.8-0.3c-6.4-0.1-11.4-4.6-11.1-10.1l2.2-38.5c0.3-5.5,5.8-9.9,12.2-9.8l26.8,0.3
					c6.4,0.1,11.4,4.6,11.1,10.1l-2.2,38.5C463.1,911,457.6,915.4,451.1,915.3z"/>
				<path class="st12" d="M450.7,898.2c0.4,2.2,1.1,5.2,3,8.8c-9.7,0-19.4,0.1-29.2,0.1c-1.9-2.1-4.6-5.8-4.4-10.3
					c0.1-3.7,2.1-6.6,3.7-8.5c10.7-0.3,21.4-0.6,32.1-0.9c-0.3,0.1-0.7,0.3-1.2,0.5C452.2,889,449.6,891.2,450.7,898.2z"/>
				<path class="st12" d="M452.6,874.9c0.4,2.2,1.1,5.2,3,8.8c-9.7,0-19.4,0.1-29.2,0.1c-1.9-2.1-4.6-5.8-4.4-10.3
					c0.1-3.7,2.1-6.6,3.7-8.5c10.7-0.3,21.4-0.6,32.1-0.9c-0.3,0.1-0.7,0.3-1.2,0.5C454.2,865.8,451.5,868,452.6,874.9z"/>
				<path class="st15" d="M573.5,1021.2h-68.2c-1.5,0-2.8-1.2-2.8-2.8v-24c0-1.5,1.2-2.8,2.8-2.8h68.2c1.5,0,2.8,1.2,2.8,2.8v24
					C576.2,1019.9,575,1021.2,573.5,1021.2z"/>
				<path class="st14" d="M708.4,713.7c-8.7-50.2-8.7-33.9-15.3-59.3c-1.8-6.9-3.7-14-8.1-19.5c-4.3-5.3-10.5-8.5-16.8-11.3
					c-0.3-0.1-0.6-0.3-0.9-0.4c-7.7-3.4-15.3-6.3-22.5-8.7c-29.4-10-53.9-13-66.9-14c13.2,2.6,26.1,6.8,38.6,12.2
					c14.8,6.4,27.2,15.2,36.1,29c7.7,12.1,12,26.2,14.8,40.1c3.2,15.4,5,31.1,7.5,46.6c2,12.3,3.7,24.8,4.2,37.2
					c3.1-0.9,5.8-0.7,6.7-0.7c13.2,0.7,25.9,16.1,33.1,37.8C716.4,764.6,712,734.4,708.4,713.7z"/>
				<path class="st14" d="M754.9,1089.2c-0.6-4.4-5.5-6.6-9.2-4.2c-8.1,5.2-19.3,11-33.5,14.3c-4,0.9-7.8,1.6-11.5,2
					c0.1,0,0.2,0,0.3,0c2.6,0.7,5.2,2,7,4c3.1,3.4,4,8.4,2.3,12.7c-0.2,0.5-0.4,1-0.7,1.4c1.9-0.3,3.7-0.6,5.6-1
					c16.2-3.4,29-9.5,38-14.8c2.1-1.2,3.2-3.6,2.9-6L754.9,1089.2z"/>
				<path class="st16" d="M425.7,1111.1c-0.1,2.6-1.8,4.9-4.4,5.6c-12.7,3.4-34.1,7.2-59.4,1.8c-16.2-3.4-29-9.5-38-14.8
					c-2.1-1.2-3.2-3.6-2.9-6l1.2-8.6c0.6-4.4,5.5-6.6,9.2-4.2c8.1,5.2,19.3,11,33.5,14.3c22.3,5.2,41.5,2,53.3-1.3
					c3.9-1.1,7.7,1.9,7.6,5.9L425.7,1111.1z"/>
				<path class="st14" d="M418.3,1098.1c-7.9,2.2-19,4.3-32,4c0,0,0.1,0.1,0.1,0.1c3.1,3.8,3.7,8.6,2.5,13.3
					c-0.5,1.9-1.3,3.8-2.3,5.5c0,0.1-0.1,0.1-0.1,0.2c14.4,0.1,26.5-2.2,34.8-4.5c2.5-0.7,4.3-3,4.4-5.6l0.2-7.1
					C426,1100,422.2,1097,418.3,1098.1z"/>
				<path class="st12" d="M652,1052.1c-11.9-0.2-23.7-0.5-35.6-0.7c3.8-20.3,6.8-44.7,7.2-72.3c0.3-23.4-1.4-44.5-3.8-62.6
					c11.3,0.3,22.7,0.5,34,0.8c2.4,16.8,4.1,35.8,4.4,56.6C658.4,1003.7,655.7,1030.1,652,1052.1z"/>
				<path class="st12" d="M616.4,866h36.4v-24.7c-12.1,0.8-24.3,1.6-36.4,2.5C616.4,851.1,616.4,858.5,616.4,866z"/>
				<path class="st17" d="M608.2,867.8C608.2,867.8,608.2,867.8,608.2,867.8c0,0,0-0.1,0.1-0.1c0.2-0.3,0.4-0.6,0.7-0.9
					c1.8-2.3,3.7-4.6,5.5-6.9c1,1,2,2,3,3.1c0.1,0,0.2,0,0.3,0l26.8-0.3c6.4-0.1,11.9,4.3,12.2,9.8l1.8,31.8
					c1.5,1.5,3.1,3.1,4.6,4.6c-1.9,2.5-3.9,4.9-5.8,7.4c0,0,0,0,0,0c-1.9,2.8-5.4,4.7-9.6,4.7l-26.8,0.3c-6.4,0.1-11.9-4.3-12.2-9.8
					l-2.2-38.5C606.7,871.1,607.2,869.4,608.2,867.8z"/>
				<path class="st18" d="M626.1,914.6l26.8,0.1c6.4,0,11.5-4.4,11.2-9.9l-1.6-38.5c-0.2-5.5-5.6-10-12.1-10l-26.8-0.1
					c-6.4,0-11.5,4.4-11.2,9.9l1.6,38.5C614.2,910.1,619.6,914.5,626.1,914.6z"/>
				<path class="st12" d="M627,897.6c-0.4,2.2-1.1,5.2-3,8.8c9.7,0,19.4,0.1,29.2,0.1c1.9-2.1,4.6-5.8,4.4-10.3
					c-0.1-3.7-2.1-6.6-3.7-8.5c-10.7-0.3-21.4-0.6-32.1-0.9c0.3,0.1,0.7,0.3,1.2,0.5C625.4,888.5,628.1,890.6,627,897.6z"/>
				<path class="st12" d="M625,874.5c-0.3,2.2-1.1,5.2-2.9,8.8c9.7-0.1,19.4-0.1,29.2-0.2c1.9-2.1,4.5-5.8,4.3-10.4
					c-0.2-3.7-2.2-6.6-3.8-8.4c-10.7-0.2-21.4-0.4-32.1-0.6c0.3,0.1,0.7,0.3,1.2,0.5C623.3,865.4,626,867.5,625,874.5z"/>
				<path class="st5" d="M351.1,910.9c0,0-13.9-2.6-28.8,5.8l38.7,28.8"/>
			</g>
		</g>
	</g>
</g>
<g>
	<g>
		<g>
			<defs>
				<path id="SVGID_00000069358596344901509680000015889875884044898493_" d="M1977.7,942.3L1977.7,942.3
					c4.8,184.2-140.7,337.4-324.9,342.2h0c-184.2,4.8-337.4-140.7-342.2-324.9l0,0c-2.8-108,140.8-426.8,218.8-489.9
					c55-44.4,57.2,22,133.3,20l74,14C1920.9,499,1972.9,758.1,1977.7,942.3z"/>
			</defs>
			<clipPath id="SVGID_00000157297958980101662560000004131225779570872708_">
				<use xlink:href="#SVGID_00000069358596344901509680000015889875884044898493_"  style="overflow:visible;"/>
			</clipPath>
			<g style="clip-path:url(#SVGID_00000157297958980101662560000004131225779570872708_);">
				<g>
					<path class="st21" d="M999.5,1221c-0.5,0-1-0.2-1.4-0.7c-0.6-0.8-0.4-1.9,0.4-2.4l212.3-158.3c0.8-0.6,1.9-0.4,2.4,0.4
						c0.6,0.8,0.4,1.9-0.4,2.4l-212.3,158.3C1000.2,1220.9,999.8,1221,999.5,1221z"/>
				</g>
				<path class="st23" d="M987.5,1185.2l9.5,33.8c0.4,1.4,1.9,2.2,3.3,1.8c1.3-0.4,2.1-1.6,1.9-2.9l-5-34.8
					c-0.4-2.7-2.9-4.6-5.6-4.2c-2.7,0.4-4.6,2.9-4.2,5.6C987.4,1184.8,987.4,1185,987.5,1185.2z"/>
			</g>
		</g>
	</g>
</g>
</svg>
