<svg width="290" height="148" viewBox="0 0 290 148" fill="none" xmlns="http://www.w3.org/2000/svg">
<path d="M0 18C0 8.05887 8.05888 0 18 0H272C281.941 0 290 8.05888 290 18V130C290 139.941 281.941 148 272 148H18C8.05887 148 0 139.941 0 130V18Z" fill="#C4EECB"/>
<path d="M154.923 74.3846C154.923 74.6396 154.822 74.8842 154.641 75.0645C154.461 75.2449 154.217 75.3462 153.962 75.3462H144.346V84.9615C144.346 85.2166 144.245 85.4611 144.065 85.6414C143.884 85.8218 143.64 85.9231 143.385 85.9231C143.13 85.9231 142.885 85.8218 142.705 85.6414C142.524 85.4611 142.423 85.2166 142.423 84.9615V75.3462H132.808C132.553 75.3462 132.308 75.2449 132.128 75.0645C131.947 74.8842 131.846 74.6396 131.846 74.3846C131.846 74.1296 131.947 73.885 132.128 73.7047C132.308 73.5244 132.553 73.4231 132.808 73.4231H142.423V63.8077C142.423 63.5527 142.524 63.3081 142.705 63.1278C142.885 62.9475 143.13 62.8462 143.385 62.8462C143.64 62.8462 143.884 62.9475 144.065 63.1278C144.245 63.3081 144.346 63.5527 144.346 63.8077V73.4231H153.962C154.217 73.4231 154.461 73.5244 154.641 73.7047C154.822 73.885 154.923 74.1296 154.923 74.3846Z" fill="#031926"/>
<path d="M103.382 108L99.042 98.2H100.162L104.222 107.426H103.606L107.694 98.2H108.744L104.404 108H103.382Z" fill="black"/>
<path d="M111.566 108.07C110.688 108.07 110.002 107.869 109.508 107.468C109.022 107.067 108.78 106.544 108.78 105.9C108.78 105.536 108.868 105.2 109.046 104.892C109.232 104.584 109.531 104.337 109.942 104.15C110.362 103.954 110.922 103.856 111.622 103.856H114.128V104.598H111.65C110.94 104.598 110.446 104.724 110.166 104.976C109.895 105.219 109.76 105.522 109.76 105.886C109.76 106.315 109.923 106.656 110.25 106.908C110.586 107.16 111.048 107.286 111.636 107.286C112.345 107.286 112.91 107.099 113.33 106.726C113.75 106.353 113.96 105.839 113.96 105.186V103.394C113.96 102.769 113.782 102.288 113.428 101.952C113.082 101.616 112.564 101.448 111.874 101.448C111.398 101.448 110.945 101.527 110.516 101.686C110.086 101.845 109.722 102.055 109.424 102.316L108.976 101.574C109.349 101.257 109.797 101.014 110.32 100.846C110.842 100.669 111.388 100.58 111.958 100.58C112.798 100.58 113.456 100.757 113.932 101.112C114.417 101.467 114.716 101.999 114.828 102.708L114.38 102.624C114.66 101.999 115.08 101.504 115.64 101.14C116.2 100.767 116.848 100.58 117.586 100.58C118.099 100.58 118.57 100.673 119 100.86C119.438 101.037 119.816 101.289 120.134 101.616C120.46 101.943 120.712 102.33 120.89 102.778C121.076 103.226 121.17 103.721 121.17 104.262C121.17 104.327 121.165 104.388 121.156 104.444C121.156 104.491 121.151 104.542 121.142 104.598H114.758V103.856H120.61L120.204 104.178C120.204 103.609 120.082 103.123 119.84 102.722C119.606 102.311 119.289 101.994 118.888 101.77C118.486 101.546 118.048 101.434 117.572 101.434C117.105 101.434 116.671 101.546 116.27 101.77C115.868 101.994 115.546 102.311 115.304 102.722C115.07 103.133 114.954 103.627 114.954 104.206V104.36C114.954 104.92 115.075 105.415 115.318 105.844C115.57 106.264 115.91 106.595 116.34 106.838C116.778 107.071 117.287 107.188 117.866 107.188C118.323 107.188 118.738 107.109 119.112 106.95C119.494 106.791 119.83 106.549 120.12 106.222L120.68 106.866C120.353 107.267 119.942 107.571 119.448 107.776C118.962 107.972 118.426 108.07 117.838 108.07C117.278 108.07 116.75 107.977 116.256 107.79C115.77 107.603 115.346 107.319 114.982 106.936C114.618 106.553 114.338 106.073 114.142 105.494L114.786 105.508C114.692 106.143 114.482 106.647 114.156 107.02C113.838 107.393 113.451 107.664 112.994 107.832C112.536 107.991 112.06 108.07 111.566 108.07Z" fill="black"/>
<path d="M123.204 108V97.612H124.198V108H123.204Z" fill="black"/>
<path d="M130.1 110.786C129.428 110.786 128.784 110.688 128.168 110.492C127.552 110.296 127.053 110.016 126.67 109.652L127.174 108.896C127.519 109.204 127.944 109.447 128.448 109.624C128.961 109.811 129.503 109.904 130.072 109.904C131.005 109.904 131.691 109.685 132.13 109.246C132.569 108.817 132.788 108.145 132.788 107.23V105.396L132.928 104.136L132.83 102.876V100.65H133.782V107.104C133.782 108.373 133.469 109.302 132.844 109.89C132.228 110.487 131.313 110.786 130.1 110.786ZM129.918 107.72C129.218 107.72 128.588 107.571 128.028 107.272C127.468 106.964 127.025 106.539 126.698 105.998C126.381 105.457 126.222 104.836 126.222 104.136C126.222 103.436 126.381 102.82 126.698 102.288C127.025 101.747 127.468 101.327 128.028 101.028C128.588 100.729 129.218 100.58 129.918 100.58C130.571 100.58 131.159 100.715 131.682 100.986C132.205 101.257 132.62 101.658 132.928 102.19C133.236 102.722 133.39 103.371 133.39 104.136C133.39 104.901 133.236 105.55 132.928 106.082C132.62 106.614 132.205 107.02 131.682 107.3C131.159 107.58 130.571 107.72 129.918 107.72ZM130.016 106.838C130.557 106.838 131.038 106.726 131.458 106.502C131.878 106.269 132.209 105.951 132.452 105.55C132.695 105.139 132.816 104.668 132.816 104.136C132.816 103.604 132.695 103.137 132.452 102.736C132.209 102.335 131.878 102.022 131.458 101.798C131.038 101.565 130.557 101.448 130.016 101.448C129.484 101.448 129.003 101.565 128.574 101.798C128.154 102.022 127.823 102.335 127.58 102.736C127.347 103.137 127.23 103.604 127.23 104.136C127.23 104.668 127.347 105.139 127.58 105.55C127.823 105.951 128.154 106.269 128.574 106.502C129.003 106.726 129.484 106.838 130.016 106.838Z" fill="black"/>
<path d="M144.006 108.07C143.362 108.07 142.784 107.925 142.27 107.636C141.757 107.337 141.351 106.908 141.052 106.348C140.754 105.788 140.604 105.111 140.604 104.318C140.604 103.515 140.754 102.839 141.052 102.288C141.36 101.728 141.771 101.303 142.284 101.014C142.797 100.725 143.371 100.58 144.006 100.58C144.706 100.58 145.332 100.739 145.882 101.056C146.442 101.364 146.881 101.798 147.198 102.358C147.515 102.918 147.674 103.571 147.674 104.318C147.674 105.055 147.515 105.709 147.198 106.278C146.881 106.838 146.442 107.277 145.882 107.594C145.332 107.911 144.706 108.07 144.006 108.07ZM140.212 108V97.612H141.206V102.82L141.066 104.304L141.164 105.788V108H140.212ZM143.936 107.188C144.459 107.188 144.925 107.071 145.336 106.838C145.747 106.595 146.074 106.259 146.316 105.83C146.559 105.391 146.68 104.887 146.68 104.318C146.68 103.739 146.559 103.235 146.316 102.806C146.074 102.377 145.747 102.045 145.336 101.812C144.925 101.569 144.459 101.448 143.936 101.448C143.414 101.448 142.942 101.569 142.522 101.812C142.112 102.045 141.785 102.377 141.542 102.806C141.309 103.235 141.192 103.739 141.192 104.318C141.192 104.887 141.309 105.391 141.542 105.83C141.785 106.259 142.112 106.595 142.522 106.838C142.942 107.071 143.414 107.188 143.936 107.188Z" fill="black"/>
<path d="M149.7 108V100.65H150.694V108H149.7ZM150.204 99.026C149.999 99.026 149.826 98.956 149.686 98.816C149.546 98.676 149.476 98.508 149.476 98.312C149.476 98.116 149.546 97.9527 149.686 97.822C149.826 97.682 149.999 97.612 150.204 97.612C150.41 97.612 150.582 97.6773 150.722 97.808C150.862 97.9387 150.932 98.102 150.932 98.298C150.932 98.5033 150.862 98.676 150.722 98.816C150.592 98.956 150.419 99.026 150.204 99.026Z" fill="black"/>
<path d="M153.46 108V97.612H154.454V108H153.46Z" fill="black"/>
<path d="M157.22 108V97.612H158.214V108H157.22Z" fill="black"/>
<path d="M164.102 108.07C163.336 108.07 162.664 107.911 162.086 107.594C161.507 107.267 161.054 106.824 160.728 106.264C160.401 105.695 160.238 105.046 160.238 104.318C160.238 103.59 160.392 102.946 160.7 102.386C161.017 101.826 161.446 101.387 161.988 101.07C162.538 100.743 163.154 100.58 163.836 100.58C164.526 100.58 165.138 100.739 165.67 101.056C166.211 101.364 166.636 101.803 166.944 102.372C167.252 102.932 167.406 103.581 167.406 104.318C167.406 104.365 167.401 104.416 167.392 104.472C167.392 104.519 167.392 104.57 167.392 104.626H160.994V103.884H166.86L166.468 104.178C166.468 103.646 166.351 103.175 166.118 102.764C165.894 102.344 165.586 102.017 165.194 101.784C164.802 101.551 164.349 101.434 163.836 101.434C163.332 101.434 162.879 101.551 162.478 101.784C162.076 102.017 161.764 102.344 161.54 102.764C161.316 103.184 161.204 103.665 161.204 104.206V104.36C161.204 104.92 161.325 105.415 161.568 105.844C161.82 106.264 162.165 106.595 162.604 106.838C163.052 107.071 163.56 107.188 164.13 107.188C164.578 107.188 164.993 107.109 165.376 106.95C165.768 106.791 166.104 106.549 166.384 106.222L166.944 106.866C166.617 107.258 166.206 107.557 165.712 107.762C165.226 107.967 164.69 108.07 164.102 108.07Z" fill="black"/>
<path d="M172.355 108.07C171.655 108.07 171.025 107.911 170.465 107.594C169.914 107.277 169.48 106.838 169.163 106.278C168.846 105.709 168.687 105.055 168.687 104.318C168.687 103.571 168.846 102.918 169.163 102.358C169.48 101.798 169.914 101.364 170.465 101.056C171.025 100.739 171.655 100.58 172.355 100.58C172.999 100.58 173.573 100.725 174.077 101.014C174.59 101.303 174.996 101.728 175.295 102.288C175.603 102.839 175.757 103.515 175.757 104.318C175.757 105.111 175.608 105.788 175.309 106.348C175.01 106.908 174.604 107.337 174.091 107.636C173.587 107.925 173.008 108.07 172.355 108.07ZM172.425 107.188C172.948 107.188 173.414 107.071 173.825 106.838C174.245 106.595 174.572 106.259 174.805 105.83C175.048 105.391 175.169 104.887 175.169 104.318C175.169 103.739 175.048 103.235 174.805 102.806C174.572 102.377 174.245 102.045 173.825 101.812C173.414 101.569 172.948 101.448 172.425 101.448C171.912 101.448 171.45 101.569 171.039 101.812C170.628 102.045 170.302 102.377 170.059 102.806C169.816 103.235 169.695 103.739 169.695 104.318C169.695 104.887 169.816 105.391 170.059 105.83C170.302 106.259 170.628 106.595 171.039 106.838C171.45 107.071 171.912 107.188 172.425 107.188ZM175.197 108V105.788L175.295 104.304L175.155 102.82V97.612H176.149V108H175.197Z" fill="black"/>
<path d="M182.039 108.07C181.274 108.07 180.602 107.911 180.023 107.594C179.445 107.267 178.992 106.824 178.665 106.264C178.339 105.695 178.175 105.046 178.175 104.318C178.175 103.59 178.329 102.946 178.637 102.386C178.955 101.826 179.384 101.387 179.925 101.07C180.476 100.743 181.092 100.58 181.773 100.58C182.464 100.58 183.075 100.739 183.607 101.056C184.149 101.364 184.573 101.803 184.881 102.372C185.189 102.932 185.343 103.581 185.343 104.318C185.343 104.365 185.339 104.416 185.329 104.472C185.329 104.519 185.329 104.57 185.329 104.626H178.931V103.884H184.797L184.405 104.178C184.405 103.646 184.289 103.175 184.055 102.764C183.831 102.344 183.523 102.017 183.131 101.784C182.739 101.551 182.287 101.434 181.773 101.434C181.269 101.434 180.817 101.551 180.415 101.784C180.014 102.017 179.701 102.344 179.477 102.764C179.253 103.184 179.141 103.665 179.141 104.206V104.36C179.141 104.92 179.263 105.415 179.505 105.844C179.757 106.264 180.103 106.595 180.541 106.838C180.989 107.071 181.498 107.188 182.067 107.188C182.515 107.188 182.931 107.109 183.313 106.95C183.705 106.791 184.041 106.549 184.321 106.222L184.881 106.866C184.555 107.258 184.144 107.557 183.649 107.762C183.164 107.967 182.627 108.07 182.039 108.07Z" fill="black"/>
</svg>
