<?xml version="1.0" encoding="UTF-8"?>
<svg id="Lag_3" data-name="Lag 3" xmlns="http://www.w3.org/2000/svg" viewBox="0 0 2048.27 1514.39">
  <defs>
    <style>
      .cls-1, .cls-2 {
        fill: #fff;
      }

      .cls-3 {
        fill: #ff5574;
      }

      .cls-4 {
        fill: #ffb148;
      }

      .cls-5 {
        fill: #828a8d;
        stroke-width: 18px;
      }

      .cls-5, .cls-6, .cls-7 {
        stroke-miterlimit: 10;
      }

      .cls-5, .cls-6, .cls-7, .cls-8 {
        stroke: #1a1a1a;
      }

      .cls-9 {
        fill: #b9dae9;
      }

      .cls-10, .cls-8 {
        fill: #77be80;
      }

      .cls-6 {
        stroke-width: 13px;
      }

      .cls-6, .cls-7 {
        fill: none;
      }

      .cls-2 {
        opacity: .75;
      }

      .cls-11 {
        fill: #af0035;
      }

      .cls-12 {
        fill: #ffdd5d;
      }

      .cls-13 {
        fill: #389446;
      }

      .cls-14 {
        fill: #ff95a2;
      }

      .cls-15 {
        fill: #1a1a1a;
      }

      .cls-7, .cls-8 {
        stroke-width: 25px;
      }

      .cls-16 {
        fill: #8bb0cc;
      }

      .cls-8 {
        stroke-linecap: round;
        stroke-linejoin: round;
      }
    </style>
  </defs>
  <g id="Left_arm" data-name="Left arm">
    <path class="cls-8" d="M630.43,1073.28c-15.2,28.11-33.22,56.11-50.89,78.6-13.84,17.61-27.62,31.87-38.42,39.89-.08,.06-.16,.12-.24,.18-7.31,5.38-17.76,1.05-19.13-7.92-.02-.1-.03-.2-.04-.3-1.96-13.31-1.64-33.14,1.02-55.38,3.4-28.4,10.47-60.94,19.59-91.56"/>
    <path class="cls-8" d="M539.21,1047.55c5.89-21.18,12.84-41.78,20.33-59.88,16.92-40.85,34.84-58.58,48.48-65.61,13.64-7.02,24.7-5.18,33.99-1.33,9.3,3.85,18.4,10.36,23.08,24.97,4.67,14.6,4.81,39.82-12.11,80.67-7.49,18.1-17.16,37.58-27.96,56.72"/>
  </g>
  <g id="Left_arm-2" data-name="Left arm">
    <path class="cls-8" d="M1614.42,1036.79c9.13,30.62,16.2,63.17,19.59,91.56,2.67,22.25,2.99,42.07,1.02,55.38-.01,.1-.03,.2-.04,.3-1.37,8.97-11.82,13.3-19.13,7.92-.08-.06-.16-.12-.24-.18-10.8-8.02-24.58-22.28-38.42-39.89-17.68-22.49-35.7-50.49-50.89-78.6"/>
    <path class="cls-8" d="M1531.72,1083.1c-10.81-19.14-20.47-38.62-27.96-56.72-16.92-40.85-16.78-66.07-12.11-80.67,4.68-14.6,13.78-21.12,23.08-24.97,9.3-3.85,20.36-5.69,33.99,1.33,13.64,7.02,31.56,24.75,48.48,65.61,7.49,18.1,14.44,38.7,20.33,59.88"/>
  </g>
  <g id="Handle">
    <path class="cls-5" d="M1069.09,306.53c-84.66,0-159.07,61.22-159.07,124.66v142.19c0,10.34,11.18,18.71,24.98,18.71s24.98-8.38,24.98-18.71v-142.19c0-43.2,51.45-87.23,109.11-87.23s98.64,44.02,98.64,87.23v.05l.45,142.19c.03,10.34,11.24,18.7,25.04,18.67,13.79-.03,24.95-8.42,24.92-18.75l-.45-142.2c-.06-63.41-63.95-124.61-148.59-124.61h0Zm0,0"/>
  </g>
  <g id="Body">
    <path class="cls-10" d="M737.03,576.46h682.41c68.74-5.13,124.08,50.21,124.08,118.95v682.41c0,68.74-55.34,124.08-124.08,124.08H737.03c-68.74,0-124.08-55.34-124.08-124.08V695.41c0-68.74,55.34-124.08,124.08-124.08v5.13Zm0-5.13"/>
    <path class="cls-13" d="M612.96,1254.36v96.6c0,83.62,55.34,150.94,124.08,150.94h682.4c68.74,0,124.08-67.32,124.08-150.94v-96.6c0,83.62-55.34,150.93-124.08,150.93H737.03c-68.73,0-124.08-67.31-124.08-150.93h0Zm0,0"/>
    <path class="cls-2" d="M667.56,1350.05c0,42.81,33.18,76.01,75.99,76.01h18.65c-42.81,0-75.99-33.19-75.99-76.01V709c0-42.81,33.18-76,75.99-76h-18.65c-42.8,0-75.99,33.19-75.99,76m75.99-76"/>
    <path class="cls-7" d="M757.71,576.46c-79.7-5.13-144.75,59.92-144.75,139.63v641.06c0,79.7,65.05,144.75,144.75,144.75h641.05c79.71,0,144.75-65.05,144.75-144.75V716.09c0-79.71-65.05-144.75-144.75-139.63H757.71Z"/>
  </g>
  <path id="Left_eye" data-name="Left eye" class="cls-15" d="M843.42,856.49c0,27.08,14.48,52.14,37.93,65.68,23.45,13.54,52.4,13.54,75.86,0,23.45-13.54,37.93-38.6,37.93-65.68h-28.2c0,17.05-9.06,32.75-23.83,41.27-14.77,8.53-32.89,8.53-47.66,0-14.77-8.52-23.83-24.22-23.83-41.27h-28.2Zm0,0"/>
  <path id="Right_eye" data-name="Right eye" class="cls-15" d="M1143.05,856.49c0,27.08,14.48,52.14,37.93,65.68,23.45,13.54,52.4,13.54,75.86,0,23.45-13.54,37.93-38.6,37.93-65.68h-28.2c0,17.05-9.06,32.75-23.83,41.27-14.77,8.53-32.89,8.53-47.66,0-14.77-8.52-23.83-24.22-23.83-41.27h-28.2Zm0,0"/>
  <g id="Mouth">
    <path class="cls-11" d="M905.92,1232.65c-18.85,0-34.03-15.18-34.03-34.03v-38.4c0-108.91,88.29-197.19,197.2-197.19s197.2,88.28,197.2,197.19v38.4c0,18.85-15.18,34.03-34.03,34.03h-326.34Zm0,0"/>
    <path class="cls-3" d="M1069.09,1129.2c-74.41,0-139.19,41.22-172.77,102.07,3.04,.89,6.25,1.39,9.59,1.39h326.34c3.34,0,6.55-.5,9.59-1.39-33.57-60.85-98.35-102.07-172.76-102.07h0Zm0,0"/>
    <path class="cls-1" d="M1069.09,963.02c-66.64,0-125.56,33.06-161.25,83.67,51.44,19.46,106.05,29.58,161.25,29.74,55.22-.13,109.86-10.21,161.32-29.65-35.69-50.66-94.64-83.76-161.32-83.76h0Zm0,0"/>
    <path class="cls-9" d="M958.05,997.36v33.88c0,28.12,14.37,34.28,14.37,34.28-21.95-4.6-43.54-10.81-64.59-18.56,13.63-19.39,30.65-36.21,50.22-49.6h0Zm0,0"/>
    <path class="cls-9" d="M1117.21,968.94v46.86c0,26-6.51,52.84-28.15,59.79,48.37-2.03,96.12-11.69,141.47-28.62-26.81-38.14-66.78-66.35-113.32-78.02h0Zm0,0"/>
    <path class="cls-16" d="M1180.3,997.36v33.88c0,28.12-14.38,34.28-14.38,34.28,21.96-4.6,43.55-10.81,64.59-18.56-13.63-19.39-30.65-36.21-50.21-49.6h0Zm0,0"/>
    <path class="cls-15" d="M1069.09,955.97c-1.68,0-3.35,.02-5.01,.06v14.1c1.66-.04,3.34-.06,5.01-.06,105.1,0,190.15,85.05,190.15,190.16v38.4c0,15.07-11.91,26.98-26.98,26.98h-168.18v14.1h168.18c22.64,0,41.08-18.45,41.08-41.08v-38.4c0-112.72-91.53-204.25-204.25-204.25h0Zm0,0"/>
    <path class="cls-15" d="M905.71,1042.63l-2.52,6.58c106.81,41,225,41,331.8,0l-2.52-6.58c-105.18,40.37-221.58,40.37-326.76,0h0Zm0,0"/>
    <path class="cls-14" d="M1014.48,1159.24c-18.11,0-32.79,10.34-32.79,23.09s14.68,23.09,32.79,23.09,32.79-10.34,32.79-23.09-14.68-23.09-32.79-23.09h0Zm0,0"/>
    <path class="cls-15" d="M1069.09,955.97c-112.72,0-204.25,91.54-204.25,204.25v38.4c0,22.63,18.44,41.08,41.08,41.08h168.19v-14.1h-168.19c-15.07,0-26.98-11.91-26.98-26.98v-38.4c0-105.1,85.06-190.16,190.16-190.16,1.68,0,3.34,.02,5.01,.06v-14.1c-1.67-.04-3.33-.06-5.01-.06h0Zm0,0"/>
  </g>
  <g id="Moon">
    <path class="cls-12" d="M290.6,37.19C223.77-5.59,170.48,12.74,129.32,18.76c50.13,47.46,85.46,110.51,51.01,170.33-34.54,59.67-103.65,60.26-169.76,40.7,15.32,38.6,43.64,120.71,95.15,127.61,88.42,51.05,201.49,20.75,252.54-67.67,51.05-88.42,20.75-201.49-67.67-252.54h0Zm0,0"/>
    <path class="cls-4" d="M297.04,37.19c-8.01-4.54-42.12-16.5-50.72-19.79,71.12,57.08,90,157.49,44.46,236.5-45.78,79.06-142.44,112.83-227.5,79.46,7.28,5.91,38.59,24.9,46.68,29.64,88.42,51.05,203.68,15.15,254.74-73.27,51.05-88.42,20.75-201.49-67.67-252.54h0Zm0,0"/>
    <path class="cls-6" d="M180.33,181.77c-.66,1.24-1.32,2.48-2.03,3.71-25.82,44.57-78.5,65.55-127.9,50.93l-38.77-11.47c-3.19-.95-6.07,2.2-4.84,5.3l14.91,37.58c15.81,39.84,44.58,73.21,81.66,94.7,91.02,52.55,208.1,21.18,260.65-69.84,.7-1.22,1.38-2.45,2.05-3.67m-185.73-107.23"/>
    <path class="cls-6" d="M270.55,73.03m91.32,223.27c.72-1.2,1.45-2.39,2.16-3.61,52.54-91.01,21.18-208.07-69.81-260.63l-.04-.02C257,10.58,213.66,2.29,171.19,8.51l-38.77,5.67c-3.85,.56-5.35,5.31-2.53,7.99l28.45,26.94c37.47,35.47,45.7,91.67,19.95,136.38-.7,1.21-1.44,2.4-2.17,3.58M294.18,32.03"/>
  </g>
  <path d="M1707.39,724.95l66.49-86.53c6.38-7.89,12.45-14.88,19.13-22.77v-.61h-79.54v-21.56h112.03l-.3,16.7-65.58,85.31c-6.07,8.2-12.14,15.48-18.82,23.07v.61h85.92v21.25h-119.32v-15.48Z"/>
  <path d="M1892,505.28l87.08-113.32c8.35-10.34,16.3-19.48,25.05-29.82v-.79h-104.18v-28.23h146.72l-.4,21.87-85.89,111.73c-7.95,10.74-15.91,20.28-24.65,30.22v.8h112.53v27.83h-156.27v-20.28Z"/>
</svg>
