<?xml version="1.0" encoding="utf-8"?>
<!-- Generator: Adobe Illustrator 27.9.0, SVG Export Plug-In . SVG Version: 6.00 Build 0)  -->
<svg version="1.1" id="Lag_1" xmlns="http://www.w3.org/2000/svg" xmlns:xlink="http://www.w3.org/1999/xlink" x="0px" y="0px"
	 viewBox="0 0 561 596.2" style="enable-background:new 0 0 561 596.2;" xml:space="preserve">
<style type="text/css">
	.st0{fill:url(#SVGID_1_);}
	.st1{clip-path:url(#SVGID_00000064328258262605843740000000185220556448773775_);}
	.st2{fill:#5E696B;}
	.st3{fill:#80898B;}
	.st4{fill:#191E2A;}
	.st5{fill:#081925;}
	.st6{fill:#092332;}
	.st7{opacity:0.42;}
	.st8{fill:#AFD9CB;}
	.st9{fill:#9198A0;}
	.st10{fill:url(#SVGID_00000023246845166007697490000014425497639456978077_);}
	.st11{clip-path:url(#SVGID_00000114757429123219150170000018426460403160025278_);}
	.st12{fill:#494F47;}
	.st13{fill:#B6BECD;}
	.st14{fill:#D5DBE4;}
	.st15{fill:#0F3849;}
	.st16{fill:#424242;}
	.st17{fill:#30332D;}
	.st18{fill:#393D38;}
	.st19{fill:url(#SVGID_00000048503549107992977970000000855605194504740499_);}
	.st20{clip-path:url(#SVGID_00000021839997513337831110000012965443305039806083_);}
	.st21{fill:#1C5060;}
	.st22{fill:#16424C;}
	.st23{fill:#333333;}
</style>
<g>
	<g>
		
			<linearGradient id="SVGID_1_" gradientUnits="userSpaceOnUse" x1="-1645.9883" y1="-1256.5507" x2="-1230.161" y2="-1256.5507" gradientTransform="matrix(-2.593545e-02 -0.9997 0.9997 -2.593545e-02 1498.8134 -1121.9662)">
			<stop  offset="0.3566" style="stop-color:#D3D2D2"/>
			<stop  offset="1" style="stop-color:#FAFAFD"/>
		</linearGradient>
		<path class="st0" d="M487.8,342.8L487.8,342.8c3,114.8-87.7,210.3-202.5,213.2h0c-114.8,3-210.3-87.7-213.2-202.5l0,0
			c-3-114.8,87.7-210.3,202.5-213.2h0C389.4,137.4,484.8,228,487.8,342.8z"/>
		<g>
			<defs>
				<path id="SVGID_00000090988991042300687730000008906904822433041077_" d="M487.3,343.5L487.3,343.5
					c3,114.8-87.7,210.3-202.5,213.2l0,0C170,559.7,74.6,469,71.6,354.2l0,0c-1.7-67.3,87.7-266,136.3-305.2
					c34.3-27.7,35.6,13.7,83.1,12.5l46.1,8.7C451.9,67.2,484.3,228.7,487.3,343.5z"/>
			</defs>
			<clipPath id="SVGID_00000153668680172400507500000001041248593990688185_">
				<use xlink:href="#SVGID_00000090988991042300687730000008906904822433041077_"  style="overflow:visible;"/>
			</clipPath>
			<g style="clip-path:url(#SVGID_00000153668680172400507500000001041248593990688185_);">
				<g>
					<path class="st21" d="M-122.3,517.1c-0.3,0-0.7-0.1-0.9-0.4c-0.4-0.5-0.3-1.2,0.2-1.5L9.4,416.6c0.5-0.4,1.2-0.3,1.5,0.2
						c0.4,0.5,0.3,1.2-0.2,1.5l-132.3,98.6C-121.8,517.1-122,517.1-122.3,517.1z"/>
				</g>
				<path class="st5" d="M545.5,416.9v82.8l-59,59H67.8l-52.3-52.3l-6.3-6.3v-83.2l2.7-2.9l143-153.3l117.6-146.9l0.5-0.7l4.3-5.3
					l0.2,0.2c0,0,0.7,1,2.1,2.9c0,0,0,0,0,0C292.8,128.5,363.8,223,410.1,276C460.1,333.2,545.5,416.9,545.5,416.9z"/>
				<path class="st5" d="M545.5,416.9v32c-0.5,0.4-1,0.8-1.5,1.2c-11.2,8.6-24.5,13.9-37.7,19c-6.8,2.7-15.4,5.1-20.8,0.2
					c-3.8-3.4-4.4-9-5.1-14.1c-3.8-26-18.2-49.1-32.2-71.3c-15.3-24.3-30.7-48.6-46-72.9c-27.1-43-54.2-86-81.4-129
					c-13.2-20.9-28.3-49.6-41.3-71.1C292.8,128.5,363.8,223,410.1,276C460.1,333.2,545.5,416.9,545.5,416.9z"/>
				<polygon class="st22" points="460.1,518.5 413.9,518.3 322.7,518 131.2,517.3 127.7,517.3 120.6,517.2 121.2,509.3 121.9,500.8 
					128.4,420.7 207.7,324.1 222.3,306.2 279.2,236.9 433.6,416.9 				"/>
				<path class="st15" d="M422.3,498.4c-0.1,7.6-3.4,14.2-8.4,19.9l-282.7-1c-3.6-5.2-6.7-10.7-9.3-16.4l6.5-80.2l93.9-114.4
					c5.9,20.6,8.2,40.8,18.1,60.7c5.7,11.5,12.7,22.5,20.9,32.5c23.7,29.2,57.5,50.3,94.4,57.6c14.1,2.8,28.7,3.7,41.9,9.4
					C410.7,472,422.6,484.1,422.3,498.4z"/>
				<path class="st5" d="M322.7,518C322.7,518,322.7,518,322.7,518c-20.3-3.1-43.3-0.2-63.9-0.3c-19.4-0.1-38.8-0.1-58.2-0.2
					c-23.1-0.1-46.2-0.2-69.4-0.3l-3.5,0c-0.3-0.3-0.6-0.7-0.9-1c-1.9-2.3-3.8-4.6-5.6-7l0.7-8.4l6.5-80.2l79.2-96.5
					c-0.3,4.5-0.8,8.9-0.7,12.8c1.4,74.5,51.5,126.7,103.4,173.7C313.9,513.9,317.9,517.4,322.7,518z"/>
				<polygon class="st15" points="486.5,558.7 545.5,499.7 545.5,473.8 481.4,515.5 77.1,515.5 9.2,479.9 9.2,500.1 67.8,558.7 				
					"/>
				<polygon class="st5" points="481.4,447.5 545.5,416.9 545.5,473.8 481.4,515.5 				"/>
				<polygon class="st5" points="9.2,416.9 77.1,447.5 77.1,515.5 9.2,479.9 				"/>
				<g>
					<path class="st21" d="M579.5,612.1c0.2,0,0.4,0,0.5-0.2c0.5-0.3,0.7-1,0.4-1.5l-97.6-163.9c-0.3-0.5-0.8-1.1-1.3-0.8
						c-0.5,0.3-1.6-0.1-1.3,0.4l98.3,165.4C578.8,611.9,579.1,612.1,579.5,612.1z"/>
				</g>
				<path class="st21" d="M169.4,516.9c-16.3,0.1-32.5,0.2-48.8,0.4c-5.9,0-12.4-0.2-16.5-4.3c-4.3-4.2-4.4-11-4.2-17
					c0.3-12.3,0.6-24.7,0.9-37c0.3-12.1,0.7-24.6,5.9-35.5c7.7-16.1,24.1-25.6,38.6-36c32.6-23.3,58.6-54.5,84.2-85.3
					c9-10.8,18-21.7,27-32.5c2.1-2.5,15.8-22.7,20.6-15.1c2.8,4.5-7.7,26.9-9.5,31.8c-3.9,10.9-8.4,21.5-13.2,32
					c-19.3,42.4-43.9,82.2-62.4,125c-5.2,12-9.9,24.2-13.8,36.6C177.3,483.2,169.3,516.9,169.4,516.9z"/>
				<polygon class="st21" points="482.2,449.6 478,443.3 484.5,446 484.3,448.8 				"/>
				<path class="st21" d="M390.6,516.9c16.3,0.1,32.5,0.2,48.8,0.4c5.9,0,12.4-0.2,16.5-4.3c4.3-4.2,4.4-11,4.2-17
					c-0.3-12.3-0.6-24.7-0.9-37c-0.3-12.1-0.7-24.6-5.9-35.5c-7.7-16.1-24.1-25.6-38.6-36c-32.6-23.3-58.6-54.5-84.2-85.3
					c-9-10.8-18-21.7-27-32.5c-2.1-2.5-15.8-22.7-20.6-15.1c-2.8,4.5,7.7,26.9,9.5,31.8c3.9,10.9,8.4,21.5,13.2,32
					c19.3,42.4,43.9,82.2,62.4,125c5.2,12,9.9,24.2,13.8,36.6C382.7,483.2,390.6,516.9,390.6,516.9z"/>
				<path class="st5" d="M279.2,236.9c-0.2,3.6-0.4,7.2-0.8,10.8C274.3,288,257,327.2,226,360.1c-28.2,30-53.2,60.2-88.3,63.3
					c9.6,37.9,5.2,80.9-11.9,114.6c-5.3-7.7-12.3-13.5-19.9-17c-8.6-3.9-18.2-5-27.1-2.4l-1.7-71.1L279.2,236.9z"/>
				<path class="st5" d="M482,447.5l-1.7,71.1c-6.2-1.7-12.6-1.8-18.8-0.4c-10.9,2.4-21.1,9.4-28.3,19.8
					c-17-33.7-21.5-76.7-11.9-114.6c-35.1-3.1-60.1-33.3-88.3-63.3c-33.7-35.8-51.3-79.2-53.2-123.2l1.8,1.9L482,447.5z"/>
				<g>
					<path class="st21" d="M-21.2,613.9c-0.2,0-0.4,0-0.5-0.2c-0.5-0.3-0.7-1-0.4-1.5l98.3-165.4c0.3-0.5,1-0.7,1.5-0.4
						c0.5,0.3,0.7,1,0.4,1.5l-98.3,165.4C-20.5,613.8-20.9,613.9-21.2,613.9z"/>
				</g>
				<g>
					<path class="st21" d="M279.2,238.5c-0.6,0-0.7-0.2-0.7-0.8l-2.2-128.9c0-0.6,0.5-1.1,1.1-1.1c0,0,0,0,0,0c0.6,0,1.1,0.5,1.1,1
						l2.2,128.9c0,0.6-0.1,0.8-0.7,0.8C279.9,238.5,279.2,238.5,279.2,238.5z"/>
				</g>
				<path class="st15" d="M278.4,247.7C274.3,288,257,327.2,226,360.1c-28.2,30-53.2,60.2-88.3,63.3c9.6,37.9,5.2,80.9-11.9,114.6
					c-5.3-7.7-12.3-13.5-19.9-17c0.4-4.9,1.9-9.9,3.4-14.6c7.2-22.4,12.3-45.4,15.3-68.7c0.5-4.2-0.2-13,2.1-16.5
					c1.9-2.9,7.5-3.8,10.6-5.3c9.4-4.5,18.1-10.4,26.1-17.1c9.1-7.6,17.4-16.1,25.5-24.9C223.7,335.7,253.9,293.2,278.4,247.7z"/>
				<polygon class="st21" points="6,419.1 13,412.7 13.3,418.8 7.3,420.8 				"/>
				<polygon class="st21" points="77,449.8 81.2,443.3 75.1,446.6 75.1,448.8 				"/>
				<g>
					<path class="st21" d="M139.9,426.6c0.7,0,1.3-0.4,1.5-1c0.3-0.8-0.1-1.8-0.9-2.1c-9.2-3.5-17-10.1-22.1-18.5
						c-0.5-0.8-1.5-1-2.2-0.6c-0.8,0.5-1,1.5-0.6,2.2c5.4,9,13.9,16.1,23.7,19.8C139.5,426.6,139.7,426.6,139.9,426.6z"/>
				</g>
				<path class="st15" d="M461.5,518.1c-10.9,2.4-21.1,9.4-28.3,19.8c-17-33.7-21.5-76.7-11.9-114.6c-35.1-3.1-60.1-33.3-88.3-63.3
					c-33.7-35.8-51.3-79.2-53.2-123.2l1.8,1.9c0.7,3.1,1.1,6.5,1.7,8.5c3.4,10.1,8,20,12.8,29.5c19.2,38.4,46.6,72.6,79.8,99.8
					c18.7,15.4,39.3,28.5,61.2,38.9C443.7,450.1,451.9,484.3,461.5,518.1z"/>
				<g>
					<path class="st21" d="M419.3,425.1c-0.7,0-1.3-0.4-1.5-1c-0.3-0.8,0.1-1.8,0.9-2.1c9.2-3.5,17-10.1,22.1-18.5
						c0.5-0.8,1.5-1,2.2-0.6c0.8,0.5,1,1.5,0.6,2.2c-5.4,9-13.9,16.1-23.7,19.8C419.7,425.1,419.5,425.1,419.3,425.1z"/>
				</g>
				<path class="st5" d="M273,113.1c0,0.2-0.1,0.4-0.1,0.6c-7,53.1-30,103-59.1,147.9c-26.1,40.3-57.2,77.2-88.1,113.9
					c-13.9,16.5-27.9,33.1-41.8,49.6c-22.7,26.9-44.2,55.8-68.5,81.3l-6.3-6.3v-83.2l2.7-2.9l143-153.3l117.6-146.9L273,113.1z"/>
				<g>
					<path class="st21" d="M674.4,515.3c0.3,0,0.7-0.1,0.9-0.4c0.4-0.5,0.3-1.2-0.2-1.5l-132.3-98.6c-0.5-0.4-1.2-0.3-1.5,0.2
						c-0.4,0.5-0.3,1.2,0.2,1.5l132.3,98.6C673.9,515.2,674.2,515.3,674.4,515.3z"/>
				</g>
				<polygon class="st21" points="546.1,417.2 539.2,410.9 538.8,416.9 544.8,419 				"/>
			</g>
		</g>
	</g>
</g>
</svg>
