<?xml version="1.0" encoding="UTF-8"?>
<svg id="Lag_1" data-name="Lag 1" xmlns="http://www.w3.org/2000/svg" viewBox="0 0 215.84 158.69">
  <defs>
    <style>
      .cls-1 {
        fill: #031926;
        opacity: .05;
        stroke-width: 0px;
      }
    </style>
  </defs>
  <path id="Cloud_1" data-name="Cloud 1" class="cls-1" d="m215.84,78.9c0-23.89-19.36-43.25-43.25-43.25-.86,0-1.72.03-2.57.08C163.23,14.99,143.73,0,120.72,0c-17.42,0-32.83,8.6-42.23,21.77-3.99-2.87-8.87-4.58-14.16-4.58-13.41,0-24.28,10.87-24.28,24.28,0,.04,0,.09,0,.13C17.66,43.24,0,61.91,0,84.72s19.36,43.25,43.25,43.25c7.93,0,15.35-2.14,21.74-5.87,3.61,20.78,21.72,36.58,43.53,36.58,15.33,0,28.84-7.81,36.76-19.66,3.72,2.32,8.1,3.68,12.8,3.68,12.52,0,22.82-9.47,24.13-21.64,19.24-4.38,33.61-21.59,33.61-42.16Z"/>
</svg>