<?xml version="1.0" encoding="utf-8"?>
<!-- Generator: Adobe Illustrator 28.0.0, SVG Export Plug-In . SVG Version: 6.00 Build 0)  -->
<svg version="1.1" id="Lag_1" xmlns="http://www.w3.org/2000/svg" xmlns:xlink="http://www.w3.org/1999/xlink" x="0px" y="0px"
	 viewBox="0 0 714.4 814.3" style="enable-background:new 0 0 714.4 814.3;" xml:space="preserve">
<style type="text/css">
	.st0{fill:url(#SVGID_1_);}
	.st1{clip-path:url(#SVGID_00000032639265492213860030000016488736022539173520_);}
	.st2{fill:#5E696B;}
	.st3{fill:#80898B;}
	.st4{fill:#191E2A;}
	.st5{fill:#081925;}
	.st6{fill:#092332;}
	.st7{opacity:0.42;}
	.st8{fill:#AFD9CB;}
	.st9{fill:#9198A0;}
	.st10{fill:url(#SVGID_00000046316533571505867120000014840506148560007574_);}
	.st11{clip-path:url(#SVGID_00000167389238259421596530000007953921827338593700_);}
	.st12{fill:#1C5060;}
	.st13{fill:#16424C;}
	.st14{fill:#0F3849;}
	.st15{fill:#333333;}
	.st16{fill:url(#SVGID_00000181078710517110531720000002201507677302426810_);}
	.st17{clip-path:url(#SVGID_00000176746404137139150280000009194305541357654431_);}
	.st18{fill:#494F47;}
	.st19{fill:#B6BECD;}
	.st20{fill:#D5DBE4;}
	.st21{fill:#424242;}
	.st22{fill:#30332D;}
	.st23{fill:#393D38;}
</style>
<g>
	<g>
		
			<linearGradient id="SVGID_1_" gradientUnits="userSpaceOnUse" x1="-3141.9163" y1="-2414.0022" x2="-2474.6162" y2="-2414.0022" gradientTransform="matrix(-2.593545e-02 -0.9997 -0.9997 2.593545e-02 -2128.5271 -2320.7759)">
			<stop  offset="0.3566" style="stop-color:#77BD80"/>
			<stop  offset="1" style="stop-color:#C5E0C6"/>
		</linearGradient>
		<path class="st0" d="M691.1,415.4L691.1,415.4c4.8,184.2-140.7,337.4-324.9,342.2l0,0C182,762.4,28.8,616.9,24,432.7l0,0
			C19.2,248.5,164.7,95.3,348.9,90.5l0,0C533.1,85.8,686.4,231.2,691.1,415.4z"/>
		<g>
			<g>
				<defs>
					<path id="SVGID_00000176026572578772198710000018277353391892255876_" d="M690.3,416.5L690.3,416.5
						c4.8,184.2-140.7,337.4-324.9,342.2l0,0C181.2,763.5,28,618,23.2,433.8l0,0C20.4,325.8,164,7,242-56.1
						c55-44.4,57.2,22,133.3,20l74,14C633.5-26.8,685.5,232.3,690.3,416.5z"/>
				</defs>
				<clipPath id="SVGID_00000016766009262440890220000010891713503132908464_">
					<use xlink:href="#SVGID_00000176026572578772198710000018277353391892255876_"  style="overflow:visible;"/>
				</clipPath>
				<g style="clip-path:url(#SVGID_00000016766009262440890220000010891713503132908464_);">
					<path class="st5" d="M783.7,534.3v132.9L689,761.9H17l-84-84l-10.1-10.1V534.2l4.3-4.7l229.5-246L345.6,47.9l0.9-1.1l6.9-8.6
						l0.3,0.4c0,0,1.2,1.6,3.4,4.6l0,0c21.2,28.3,135,179.9,209.3,265C646.7,400.1,783.7,534.3,783.7,534.3z"/>
					<path class="st5" d="M783.7,534.3v51.3c-0.8,0.7-1.6,1.3-2.4,1.9c-17.9,13.8-39.3,22.3-60.4,30.5c-10.9,4.3-24.6,8.1-33.4,0.3
						c-6.1-5.5-7-14.5-8.2-22.6c-6.1-41.7-29.1-78.8-51.6-114.5c-24.6-39-49.2-78-73.8-117c-43.5-69-87-138-130.6-207
						c-21.1-33.5-45.4-79.5-66.2-114.1c21.2,28.3,135,179.9,209.3,265C646.7,400.1,783.7,534.3,783.7,534.3z"/>
					<polygon class="st13" points="646.7,697.3 572.5,697.1 426.2,696.5 118.8,695.4 113.2,695.4 101.8,695.3 102.8,682.6 
						103.9,669 114.4,540.4 241.5,385.4 265,356.7 356.4,245.5 604.1,534.3 					"/>
					<path class="st14" d="M586,665.2c-0.2,12.2-5.5,22.8-13.5,31.9l-453.7-1.7c-5.8-8.3-10.7-17.1-14.9-26.4l10.4-128.7L265,356.7
						c9.5,33.1,13.1,65.5,29,97.4c9.2,18.5,20.4,36.1,33.5,52.1c38.1,46.8,92.3,80.7,151.5,92.4c22.6,4.5,46.1,5.9,67.2,15
						C567.4,622.8,586.4,642.2,586,665.2z"/>
					<path class="st5" d="M426.2,696.6L426.2,696.6c-32.5-5-69.5-0.3-102.6-0.4c-31.1-0.1-62.3-0.2-93.4-0.3
						c-37.1-0.1-74.2-0.3-111.3-0.4h-5.6c-0.5-0.5-0.9-1.1-1.4-1.6c-3.1-3.6-6.1-7.4-9-11.2l1.1-13.6l10.4-128.7l127.1-154.9
						c-0.6,7.2-1.3,14.3-1.1,20.6c2.3,119.5,82.7,203.3,165.9,278.8C412.1,690.1,418.4,695.6,426.2,696.6z"/>
					<polygon class="st14" points="689,761.9 783.7,667.2 783.7,625.7 680.8,692.6 32,692.6 -77,635.5 -77,667.9 17,761.9 					"/>
					<polygon class="st5" points="680.8,583.4 783.7,534.3 783.7,625.7 680.8,692.6 					"/>
					<polygon class="st5" points="-77,534.3 32,583.4 32,692.6 -77,635.5 					"/>
					<g>
						<path class="st12" d="M838.2,847.6c0.3,0,0.6-0.1,0.9-0.2c0.8-0.5,1.1-1.5,0.6-2.4L683.1,582c-0.5-0.8-1.3-1.8-2.1-1.3
							s-2.5-0.2-2.1,0.6l157.8,265.4C837.1,847.3,837.6,847.6,838.2,847.6z"/>
					</g>
					<path class="st12" d="M180.1,694.7c-26.1,0.2-52.2,0.4-78.3,0.6c-9.4,0.1-19.9-0.3-26.5-6.9c-6.8-6.8-7-17.6-6.8-27.3
						c0.5-19.8,1-39.6,1.5-59.4c0.5-19.4,1.1-39.4,9.5-56.9c12.3-25.8,38.7-41.1,61.9-57.7c52.3-37.4,94-87.4,135.1-136.9
						c14.4-17.4,28.9-34.8,43.3-52.1c3.4-4.1,25.4-36.4,33.1-24.2c4.6,7.2-12.3,43.1-15.2,51.1c-6.3,17.4-13.5,34.5-21.2,51.4
						c-31,68-70.4,132-100.1,200.7c-8.3,19.2-15.9,38.8-22.1,58.8C192.7,640.7,179.9,694.7,180.1,694.7z"/>
					<polygon class="st12" points="682.1,586.8 675.3,576.7 685.8,581 685.4,585.5 					"/>
					<path class="st12" d="M535,694.7c26.1,0.2,52.2,0.4,78.3,0.6c9.4,0.1,19.9-0.3,26.5-6.9c6.8-6.8,7-17.6,6.8-27.3
						c-0.5-19.8-1-39.6-1.5-59.4c-0.5-19.4-1.1-39.4-9.5-56.9c-12.3-25.8-38.7-41.1-61.9-57.7c-52.3-37.4-94-87.4-135.1-136.9
						c-14.4-17.4-28.9-34.8-43.3-52.1c-3.4-4.1-25.4-36.4-33.1-24.2c-4.6,7.2,12.3,43.1,15.2,51.1c6.3,17.4,13.5,34.5,21.2,51.4
						c31,68,70.4,132,100.1,200.7c8.3,19.2,15.9,38.8,22.1,58.8C522.4,640.7,535.2,694.7,535,694.7z"/>
					<path class="st5" d="M356.4,245.5c-0.2,5.8-0.7,11.6-1.3,17.4c-6.6,64.6-34.4,127.5-84.1,180.3
						c-45.3,48.1-85.3,96.6-141.7,101.6c15.4,60.9,8.3,129.9-19.1,183.9c-8.5-12.4-19.7-21.7-32-27.3c-13.9-6.3-29.1-7.9-43.6-3.9
						l-2.7-114L356.4,245.5z"/>
					<path class="st5" d="M681.8,583.4l-2.7,114c-9.9-2.8-20.2-2.9-30.1-0.7c-17.5,3.9-33.9,15.1-45.5,31.8
						c-27.3-54-34.5-123.1-19.1-183.9C528,539.7,488,491.2,442.7,443c-54.1-57.5-82.3-127-85.4-197.7l2.9,3L681.8,583.4z"/>
					<g>
						<path class="st12" d="M-125.8,850.5c-0.3,0-0.6-0.1-0.9-0.2c-0.8-0.5-1.1-1.6-0.6-2.4L30.5,582.5c0.5-0.8,1.5-1.1,2.4-0.6
							c0.8,0.5,1.1,1.5,0.6,2.4l-157.8,265.4C-124.7,850.2-125.2,850.5-125.8,850.5z"/>
					</g>
					<g>
						<path class="st12" d="M356.3,248c-0.9,0-1.2-0.3-1.2-1.2l-3.5-206.9c0-0.9,0.7-1.7,1.7-1.8l0,0c0.9,0,1.7,0.7,1.7,1.7
							l3.5,206.9c0,0.9-0.1,1.3-1.1,1.3C357.5,248,356.3,248,356.3,248z"/>
					</g>
					<path class="st14" d="M355.1,262.9c-6.6,64.6-34.4,127.5-84.1,180.3c-45.3,48.1-85.3,96.6-141.7,101.6
						c15.4,60.9,8.3,129.9-19.1,183.9c-8.5-12.4-19.7-21.7-32-27.3c0.6-7.8,3.1-16,5.5-23.5c11.5-35.9,19.7-72.8,24.5-110.2
						c0.9-6.8-0.3-20.8,3.4-26.5c3-4.6,12.1-6.1,17-8.4c15.1-7.2,29-16.7,41.8-27.4c14.7-12.2,28-25.9,40.8-40
						C267.2,404,315.7,335.9,355.1,262.9z"/>
					<polygon class="st12" points="31.8,587.1 38.6,576.6 28.8,581.9 28.8,585.5 					"/>
					<g>
						<path class="st12" d="M132.8,550c1,0,2-0.6,2.4-1.7c0.5-1.3-0.2-2.8-1.5-3.3c-14.7-5.6-27.3-16.1-35.5-29.7
							c-0.7-1.2-2.3-1.6-3.6-0.9c-1.2,0.7-1.6,2.3-0.9,3.6c8.7,14.5,22.3,25.8,38.1,31.8C132.1,549.9,132.4,550,132.8,550z"/>
					</g>
					<path class="st14" d="M649,696.8c-17.5,3.9-33.9,15.1-45.5,31.8c-27.3-54-34.5-123.1-19.1-183.9
						c-56.4-4.9-96.4-53.4-141.7-101.6c-54.1-57.5-82.3-127-85.4-197.7l2.9,3c1.1,5,1.7,10.5,2.8,13.6c5.4,16.2,12.9,32,20.5,47.3
						c30.8,61.6,74.8,116.4,128,160.2c30.1,24.7,63.1,45.8,98.2,62.5C620.3,587.6,633.4,642.5,649,696.8z"/>
					<g>
						<path class="st12" d="M581.1,547.5c-1,0-2-0.6-2.4-1.7c-0.5-1.3,0.2-2.8,1.5-3.3c14.7-5.6,27.3-16.1,35.5-29.7
							c0.7-1.2,2.3-1.6,3.6-0.9c1.2,0.7,1.6,2.3,0.9,3.6c-8.7,14.5-22.3,25.8-38.1,31.8C581.7,547.5,581.4,547.5,581.1,547.5z"/>
					</g>
					<path class="st5" d="M346.4,46.8c0,0.3-0.1,0.7-0.1,1C335.1,133,298.1,213,251.4,285.1c-41.9,64.7-91.7,123.8-141.4,182.8
						c-22.4,26.5-44.7,53.1-67.1,79.6C6.5,590.7-28,637.1-67,678l-10.1-10.1V534.3l4.3-4.7l229.5-246L345.6,47.9L346.4,46.8z"/>
				</g>
			</g>
		</g>
	</g>
</g>
</svg>
