<?xml version="1.0" encoding="utf-8"?>
<!-- Generator: Adobe Illustrator 27.9.0, SVG Export Plug-In . SVG Version: 6.00 Build 0)  -->
<svg version="1.1" id="Lag_1" xmlns="http://www.w3.org/2000/svg" xmlns:xlink="http://www.w3.org/1999/xlink" x="0px" y="0px"
	 viewBox="0 0 737.6 336.9" style="enable-background:new 0 0 737.6 336.9;" xml:space="preserve">
<style type="text/css">
	.st0{fill:#369345;}
</style>
<g>
	<path class="st0" d="M21.7,267.4l33-187.8h36.2L62.7,239.2h82.4l-4.8,28.2H21.7z"/>
	<path class="st0" d="M146.7,267.4l33.3-187.8h118.8l-4.8,29h-82.9l-8.6,49.6h74.6l-5.1,27.6h-74.6l-9.4,52.6h82.6l-5.1,29H146.7z"
		/>
	<path class="st0" d="M273.6,267.4l33.3-187.8h36.5l63,130.9l23.1-130.9h36.2l-33.3,187.8h-36.2l-63-130.6l-23.3,130.6H273.6z"/>
	<path class="st0" d="M440.9,267.4l33-187.8h62.8c19.5,0,35.4,3.4,47.7,10.1c12.3,6.7,21.2,16.1,26.7,28.2s7.8,26.2,7.1,42.5
		c-0.7,15.9-3.8,30.4-9.3,43.5c-5.5,13.1-13.2,24.3-23.2,33.8c-10,9.5-21.9,16.8-35.7,22c-13.8,5.2-29.2,7.8-46.4,7.8H440.9z
		 M482.5,236.3h24.7c15.7,0,28.9-3,39.6-9c10.6-6,18.8-14.5,24.5-25.5c5.7-11,8.9-24,9.7-39c0.7-11.6-0.6-21.3-4-29
		c-3.4-7.7-8.9-13.5-16.6-17.4c-7.7-3.9-18-5.9-30.8-5.9h-24.7L482.5,236.3z"/>
	<path class="st0" d="M646.3,268.9h-39.2l24.1-138.2h35.2l-0.9,21.4c3.8-4.3,8.1-8.1,12.6-11.4c5.7-4.2,12.1-7.5,19.1-9.7
		c6.9-2.3,14.3-3.4,21.9-3.4h1.8l-6.9,41.3h-13.9c-5.2,0-10.2,0.6-14.8,1.7c-4.5,1.1-8.7,3.1-12.3,5.8c-3.7,2.7-6.8,6.3-9.4,10.7
		c-2.6,4.4-4.4,10-5.4,16.8L646.3,268.9z M610.6,265.9h33.2l11.3-62.6c1.1-7.1,3-13.1,5.8-17.8c2.8-4.7,6.2-8.6,10.2-11.6
		c4-3,8.5-5.1,13.4-6.3c4.8-1.2,10.1-1.8,15.5-1.8h11.4l5.9-35.4c-6.7,0.2-13.2,1.3-19.2,3.3c-6.6,2.2-12.8,5.3-18.2,9.3
		c-5.5,4-10.5,8.8-14.9,14.2l-2.8,3.5l1.2-27.1h-29.7L610.6,265.9z"/>
	<path class="st0" d="M687.7,270.5c-6.8,0-12.5-2.2-17-6.4c-4.5-4.3-6.8-9.7-6.8-16s2.3-11.7,6.8-16c4.5-4.3,10.2-6.4,17-6.4
		c6.8,0,12.5,2.2,16.9,6.5c4.4,4.3,6.6,9.7,6.6,15.9c0,6.3-2.2,11.6-6.6,15.9C700.2,268.3,694.5,270.5,687.7,270.5z M687.7,228.6
		c-6,0-11,1.9-14.9,5.6c-3.9,3.8-5.8,8.3-5.8,13.8s1.9,10.1,5.8,13.8c3.9,3.7,8.9,5.6,14.9,5.6c6.1,0,10.9-1.8,14.8-5.6
		c3.9-3.8,5.7-8.3,5.7-13.8c0-5.5-1.9-10.1-5.7-13.8C698.7,230.5,693.8,228.6,687.7,228.6z"/>
</g>
</svg>
