<?xml version="1.0" encoding="utf-8"?>
<!-- Generator: Adobe Illustrator 28.0.0, SVG Export Plug-In . SVG Version: 6.00 Build 0)  -->
<svg version="1.1" id="Layer_1" xmlns="http://www.w3.org/2000/svg" xmlns:xlink="http://www.w3.org/1999/xlink" x="0px" y="0px"
	 viewBox="0 0 1225.2 1341.6" style="enable-background:new 0 0 1225.2 1341.6;" xml:space="preserve">
<style type="text/css">
	.st0{fill:#77BE80;stroke:#1A1A1A;stroke-width:25;stroke-linecap:round;stroke-linejoin:round;}
	.st1{fill:#828A8D;stroke:#1A1A1A;stroke-width:18;stroke-miterlimit:10;}
	.st2{fill:#77BE80;}
	.st3{fill:#389446;}
	.st4{opacity:0.75;fill:#FFFFFF;enable-background:new    ;}
	.st5{fill:none;stroke:#1A1A1A;stroke-width:25;stroke-miterlimit:10;}
	.st6{fill:#1A1A1A;}
	.st7{fill:#AF0035;}
	.st8{fill:#FFFFFF;}
	.st9{fill:#FF5574;}
	.st10{fill:#FF95A2;}
</style>
<g>
	<g id="Left_arm">
		<path class="st0" d="M164.7,839.9c-15.2,28.1-33.2,56.1-50.9,78.6c-13.8,17.6-27.6,31.9-38.4,39.9c-0.1,0.1-0.2,0.1-0.2,0.2
			c-7.3,5.4-17.8,1.1-19.1-7.9c0-0.1,0-0.2,0-0.3c-2-13.3-1.6-33.1,1-55.4c3.4-28.4,10.5-60.9,19.6-91.6"/>
		<path class="st0" d="M73.4,814.1c5.9-21.2,12.8-41.8,20.3-59.9c16.9-40.8,34.8-58.6,48.5-65.6c13.6-7,24.7-5.2,34-1.3
			c9.3,3.8,18.4,10.4,23.1,25c4.7,14.6,4.8,39.8-12.1,80.7c-7.5,18.1-17.2,37.6-28,56.7"/>
	</g>
	<g id="Left_arm-2">
		<path class="st0" d="M1148.6,803.4c9.1,30.6,16.2,63.2,19.6,91.6c2.7,22.2,3,42.1,1,55.4c0,0.1,0,0.2,0,0.3
			c-1.4,9-11.8,13.3-19.1,7.9c-0.1-0.1-0.2-0.1-0.2-0.2c-10.8-8-24.6-22.3-38.4-39.9c-17.7-22.5-35.7-50.5-50.9-78.6"/>
		<path class="st0" d="M1065.9,849.7c-10.8-19.1-20.5-38.6-28-56.7c-16.9-40.8-16.8-66.1-12.1-80.7c4.7-14.6,13.8-21.1,23.1-25
			s20.4-5.7,34,1.3c13.6,7,31.6,24.8,48.5,65.6c7.5,18.1,14.4,38.7,20.3,59.9"/>
	</g>
	<g id="Handle">
		<path class="st1" d="M613.3,73.1c-84.7,0-159.1,61.2-159.1,124.7V340c0,10.3,11.2,18.7,25,18.7s25-8.4,25-18.7V197.8
			c0-43.2,51.4-87.2,109.1-87.2s98.6,44,98.6,87.2v0l0.4,142.2c0,10.3,11.2,18.7,25,18.7c13.8,0,24.9-8.4,24.9-18.8l-0.4-142.2
			C761.9,134.3,698,73.1,613.3,73.1L613.3,73.1L613.3,73.1z"/>
	</g>
	<g id="Body">
		<path class="st2" d="M271.3,343.1h682.4c68.7-5.1,124.1,50.2,124.1,118.9v682.4c0,68.7-55.3,124.1-124.1,124.1H271.3
			c-68.7,0-124.1-55.3-124.1-124.1V462c0-68.7,55.3-124.1,124.1-124.1L271.3,343.1L271.3,343.1z"/>
		<path class="st3" d="M147.2,1020.9v96.6c0,83.6,55.3,150.9,124.1,150.9h682.4c68.7,0,124.1-67.3,124.1-150.9v-96.6
			c0,83.6-55.3,150.9-124.1,150.9H271.3C202.5,1171.9,147.2,1104.6,147.2,1020.9L147.2,1020.9L147.2,1020.9z"/>
		<path class="st4" d="M201.8,1116.6c0,42.8,33.2,76,76,76h18.7c-42.8,0-76-33.2-76-76v-641c0-42.8,33.2-76,76-76h-18.7
			c-42.8,0-76,33.2-76,76"/>
		<path class="st5" d="M291.9,343.1c-79.7-5.1-144.8,59.9-144.8,139.6v641.1c0,79.7,65.1,144.8,144.8,144.8H933
			c79.7,0,144.8-65.1,144.8-144.8V482.7c0-79.7-65.1-144.8-144.8-139.6L291.9,343.1L291.9,343.1z"/>
	</g>
	<path id="Left_eye" class="st6" d="M824,692.6c0-27.1-14.5-52.1-37.9-65.7c-23.4-13.5-52.4-13.5-75.9,0
		c-23.4,13.5-37.9,38.6-37.9,65.7h28.2c0-17.1,9.1-32.8,23.8-41.3c14.8-8.5,32.9-8.5,47.7,0c14.8,8.5,23.8,24.2,23.8,41.3H824
		L824,692.6z"/>
	<path id="Right_eye" class="st6" d="M524.3,692.6c0-27.1-14.5-52.1-37.9-65.7c-23.4-13.5-52.4-13.5-75.9,0
		c-23.4,13.5-37.9,38.6-37.9,65.7h28.2c0-17.1,9.1-32.8,23.8-41.3c14.8-8.5,32.9-8.5,47.7,0c14.8,8.5,23.8,24.2,23.8,41.3H524.3
		L524.3,692.6z"/>
	<g id="Mouth">
		<path id="Mouth_BG" class="st7" d="M761.5,798.5c18.8,0,34,15.2,34,34V871c0,108.9-86.1,143.7-195,143.7S401.1,979.9,401.1,871
			v-38.4c0-18.8,15.2-34,34-34H761.5z"/>
		<g id="Teeth">
			<path class="st8" d="M426.9,799.5c0,0-18.8,6.5-25.8,21.1s11.1,20.3,11.1,20.3s100.9,31.8,164.6,28.8s99.7-2.4,99.7-2.4
				s77-9.8,117.3-28.5c0,0,2.5-23.7-9-30.9s-87-9.3-87-9.3l-103.2-1.8C594.8,796.7,435.2,793.1,426.9,799.5L426.9,799.5z"/>
			<path class="st6" d="M407.1,835.1l-2.5,6.6c106.8,41,285,44.6,391.8,3.6l-2.5-6.6C688.7,879.1,512.3,875.5,407.1,835.1
				L407.1,835.1L407.1,835.1z"/>
		</g>
		<g id="Tounge">
			<path class="st9" d="M589,922.9c-74.4,0-94.3-5.7-127.8,55.1c3,0.9,41.7,30.2,45.1,30.2l65.3,10.6l67.2-1.8
				c11-1.8,86.6-35.7,89.6-36.6C694.8,919.6,663.4,922.9,589,922.9L589,922.9L589,922.9z"/>
			<path class="st10" d="M533,952.9c-18.1,0-32.8,10.3-32.8,23.1s14.7,23.1,32.8,23.1s32.8-10.3,32.8-23.1S551.1,952.9,533,952.9
				L533,952.9z"/>
		</g>
		<g id="Mouth_Outline">
			<path class="st6" d="M598.3,1020.8c1.7,0,3.3,0,5-0.1v-14.1c-1.7,0-3.3,0.1-5,0.1c-105.1,0-190.2-30.7-190.2-135.8v-38.4
				c0-14.9,12.1-27,27-27h168.2v-14.1H435.1c-22.6,0-41.1,18.5-41.1,41.1V871C394.1,983.7,485.6,1020.8,598.3,1020.8L598.3,1020.8z"
				/>
			<path class="st6" d="M598.3,1020.8c112.7,0,204.2-37.1,204.2-149.9v-38.4c0-22.6-18.5-41.1-41.1-41.1H593.3v14.1h168.2
				c14.9,0,27,12.1,27,27v37.7c0,104.3-83.8,135.4-188.1,136.4c-2.4,0-4.7,0-7.1-0.1v14.1C595,1020.8,596.6,1020.8,598.3,1020.8
				L598.3,1020.8L598.3,1020.8z"/>
		</g>
	</g>
</g>
</svg>
