<?xml version="1.0" encoding="utf-8"?>
<!-- Generator: Adobe Illustrator 28.0.0, SVG Export Plug-In . SVG Version: 6.00 Build 0)  -->
<svg version="1.1" id="Layer_1" xmlns="http://www.w3.org/2000/svg" xmlns:xlink="http://www.w3.org/1999/xlink" x="0px" y="0px"
	 viewBox="0 0 3108.6 2539.3" style="enable-background:new 0 0 3108.6 2539.3;" xml:space="preserve">
<style type="text/css">
	.st0{fill:#77BE80;stroke:#1A1A1A;stroke-width:25;stroke-linecap:round;stroke-linejoin:round;}
	.st1{fill:#828A8D;stroke:#1A1A1A;stroke-width:18;stroke-miterlimit:10;}
	.st2{fill:#77BE80;}
	.st3{fill:#389446;}
	.st4{opacity:0.75;fill:#FFFFFF;enable-background:new    ;}
	.st5{fill:none;stroke:#1A1A1A;stroke-width:25;stroke-miterlimit:10;}
	.st6{fill:#1A1A1A;}
	.st7{fill:#AF0035;}
	.st8{fill:#FFFFFF;}
	.st9{fill:#FF5574;}
	.st10{fill:#FF95A2;}
</style>
<g id="Left_arm">
	<path class="st0" d="M1081.1,1368.4c-20.1-24.9-39-52.3-52.9-77.3c-10.9-19.6-18.8-37.8-22-50.8c0-0.1,0-0.2-0.1-0.3
		c-2.1-8.8,5.9-16.8,14.7-14.6c0.1,0,0.2,0,0.3,0.1c13,3.3,31.2,11.3,50.7,22.3c24.9,14.1,52.2,33.2,76.9,53.4"/>
	<path class="st0" d="M1140,1294.1c17.3,13.6,33.6,28,47.4,41.8c31.2,31.4,40.6,54.7,41.8,70c1.2,15.3-4.7,24.8-11.9,31.9
		c-7.1,7.1-16.7,13-31.9,11.7c-15.3-1.3-38.6-10.9-69.8-42.3c-13.8-13.9-28.1-30.3-41.6-47.7"/>
</g>
<g id="Left_arm-2">
	<path class="st0" d="M2158.5,1423.6c9.1,30.6,16.2,63.2,19.6,91.6c2.7,22.2,3,42.1,1,55.4c0,0.1,0,0.2,0,0.3
		c-1.4,9-11.8,13.3-19.1,7.9c-0.1-0.1-0.2-0.1-0.2-0.2c-10.8-8-24.6-22.3-38.4-39.9c-17.7-22.5-35.7-50.5-50.9-78.6"/>
	<path class="st0" d="M2075.8,1469.9c-10.8-19.1-20.5-38.6-28-56.7c-16.9-40.8-16.8-66.1-12.1-80.7c4.7-14.6,13.8-21.1,23.1-25
		s20.4-5.7,34,1.3c13.6,7,31.6,24.8,48.5,65.6c7.5,18.1,14.4,38.7,20.3,59.9"/>
</g>
<g id="Handle">
	<path class="st1" d="M1623.2,693.3c-84.7,0-159.1,61.2-159.1,124.7v142.2c0,10.3,11.2,18.7,25,18.7s25-8.4,25-18.7V817.9
		c0-43.2,51.4-87.2,109.1-87.2s98.6,44,98.6,87.2v0l0.4,142.2c0,10.3,11.2,18.7,25,18.7c13.8,0,24.9-8.4,24.9-18.8l-0.4-142.2
		C1771.7,754.5,1707.8,693.3,1623.2,693.3L1623.2,693.3L1623.2,693.3z"/>
</g>
<g id="Body">
	<path class="st2" d="M1281.1,963.2h682.4c68.7-5.1,124.1,50.2,124.1,118.9v682.4c0,68.7-55.3,124.1-124.1,124.1h-682.4
		c-68.7,0-124.1-55.3-124.1-124.1v-682.4c0-68.7,55.3-124.1,124.1-124.1L1281.1,963.2L1281.1,963.2z"/>
	<path class="st3" d="M1157.1,1641.1v96.6c0,83.6,55.3,150.9,124.1,150.9h682.4c68.7,0,124.1-67.3,124.1-150.9v-96.6
		c0,83.6-55.3,150.9-124.1,150.9h-682.4C1212.4,1792.1,1157.1,1724.7,1157.1,1641.1L1157.1,1641.1L1157.1,1641.1z"/>
	<path class="st4" d="M1211.7,1736.8c0,42.8,33.2,76,76,76h18.7c-42.8,0-76-33.2-76-76v-641c0-42.8,33.2-76,76-76h-18.7
		c-42.8,0-76,33.2-76,76"/>
	<path class="st5" d="M1301.8,963.2c-79.7-5.1-144.8,59.9-144.8,139.6v641.1c0,79.7,65.1,144.8,144.8,144.8h641.1
		c79.7,0,144.8-65.1,144.8-144.8v-641.1c0-79.7-65.1-144.8-144.8-139.6L1301.8,963.2L1301.8,963.2z"/>
</g>
<path id="Left_eye" class="st6" d="M1833.8,1312.8c0-27.1-14.5-52.1-37.9-65.7c-23.4-13.5-52.4-13.5-75.9,0
	c-23.4,13.5-37.9,38.6-37.9,65.7h28.2c0-17.1,9.1-32.8,23.8-41.3c14.8-8.5,32.9-8.5,47.7,0c14.8,8.5,23.8,24.2,23.8,41.3H1833.8
	L1833.8,1312.8z"/>
<path id="Right_eye" class="st6" d="M1534.2,1312.8c0-27.1-14.5-52.1-37.9-65.7c-23.4-13.5-52.4-13.5-75.9,0
	c-23.4,13.5-37.9,38.6-37.9,65.7h28.2c0-17.1,9.1-32.8,23.8-41.3c14.8-8.5,32.9-8.5,47.7,0c14.8,8.5,23.8,24.2,23.8,41.3H1534.2
	L1534.2,1312.8z"/>
<g id="Mouth">
	<path id="Mouth_BG" class="st7" d="M1771.3,1418.7c18.8,0,34,15.2,34,34v38.4c0,108.9-86.1,143.7-195,143.7
		s-199.4-34.8-199.4-143.7v-38.4c0-18.8,15.2-34,34-34H1771.3z"/>
	<g id="Teeth">
		<path class="st8" d="M1436.8,1419.7c0,0-18.8,6.5-25.8,21.1s11.1,20.3,11.1,20.3s100.9,31.8,164.6,28.8s99.7-2.4,99.7-2.4
			s77-9.8,117.3-28.5c0,0,2.5-23.7-9-30.9s-87-9.3-87-9.3l-103.2-1.8C1604.6,1416.9,1445.1,1413.2,1436.8,1419.7L1436.8,1419.7z"/>
		<path class="st6" d="M1417,1455.3l-2.5,6.6c106.8,41,285,44.6,391.8,3.6l-2.5-6.6C1698.6,1499.3,1522.1,1495.7,1417,1455.3
			L1417,1455.3L1417,1455.3z"/>
	</g>
	<g id="Tounge">
		<path class="st9" d="M1598.9,1543.1c-74.4,0-94.3-5.7-127.8,55.1c3,0.9,41.7,30.2,45.1,30.2l65.3,10.6l67.2-1.8
			c11-1.8,86.6-35.7,89.6-36.6C1704.6,1539.8,1673.3,1543,1598.9,1543.1L1598.9,1543.1L1598.9,1543.1z"/>
		<path class="st10" d="M1542.8,1573.1c-18.1,0-32.8,10.3-32.8,23.1s14.7,23.1,32.8,23.1s32.8-10.3,32.8-23.1
			S1560.9,1573.1,1542.8,1573.1L1542.8,1573.1z"/>
	</g>
	<g id="Mouth_Outline">
		<path class="st6" d="M1608.2,1641c1.7,0,3.3,0,5-0.1v-14.1c-1.7,0-3.3,0.1-5,0.1c-105.1,0-190.2-30.7-190.2-135.8v-38.4
			c0-14.9,12.1-27,27-27h168.2v-14.1H1445c-22.6,0-41.1,18.5-41.1,41.1v38.4C1403.9,1603.9,1495.5,1641,1608.2,1641L1608.2,1641z"/>
		<path class="st6" d="M1608.2,1641c112.7,0,204.2-37.1,204.2-149.9v-38.4c0-22.6-18.5-41.1-41.1-41.1h-168.2v14.1h168.2
			c14.9,0,27,12.1,27,27v37.7c0,104.3-83.8,135.4-188.1,136.4c-2.4,0-4.7,0-7.1-0.1v14.1C1604.8,1641,1606.5,1641,1608.2,1641
			L1608.2,1641L1608.2,1641z"/>
	</g>
</g>
</svg>
