<?xml version="1.0" encoding="utf-8"?>
<!-- Generator: Adobe Illustrator 28.0.0, SVG Export Plug-In . SVG Version: 6.00 Build 0)  -->
<svg version="1.1" id="Lag_1" xmlns="http://www.w3.org/2000/svg" xmlns:xlink="http://www.w3.org/1999/xlink" x="0px" y="0px"
	 viewBox="0 0 839.1 868.2" style="enable-background:new 0 0 839.1 868.2;" xml:space="preserve">
<style type="text/css">
	.st0{fill:none;stroke:#031926;stroke-width:3;stroke-miterlimit:10;stroke-dasharray:12,30,12,30,12,30;}
	.st1{fill:#FFFFFF;}
	.st2{fill:#72CA81;}
	.st3{fill:#369345;}
	.st4{fill:#031926;stroke:#031926;stroke-width:2;stroke-miterlimit:10;}
</style>
<g>
	<path id="Plane_Path_00000023993774715056110130000001302775661732524990_" class="st0" d="M90,780.9
		c240.9-10.6,319.5-265.2,322.5-346.7c2.5-68.4,45.8-129,110.1-152.6c1-0.4,2-0.7,3-1.1"/>
	<g id="Plane">
		<g>
			<path class="st1" d="M632.1,331.3c-4.2-0.7-7.9-4.1-8.5-8.8l-8.7-67.4l-53.8,20.9l-4.3,19.9c-0.5,2.5-2.2,4.5-4.5,5.6
				c-1.5,0.7-3.1,0.9-4.6,0.6c-3.3-0.5-6.1-3.1-6.6-6.7l-2-16.1l-8.6,3.5c-0.7,0.3-1.4,0.4-2.1,0.2c-1.3-0.2-2.5-1.1-3-2.4
				c-0.8-2,0.2-4.3,2.2-5.1l8.6-3.5L525,261.1c-3.5-4-2.1-10.3,2.7-12.5c1.5-0.7,3.1-0.9,4.7-0.6c0.9,0.1,1.7,0.4,2.5,0.9l17.9,9.7
				l49.9-30l-45.5-50.5c-4.6-5.1-2.9-13.2,3.3-16.1c1.9-0.9,3.9-1.1,5.9-0.8c1.4,0.2,2.7,0.7,3.9,1.5l25.7,16.9l2.7-3.2
				c1.2-1.4,3-2,4.8-1.7c0.9,0.1,1.7,0.5,2.5,1.1c2.2,1.8,2.4,5.1,0.6,7.2l-1.9,2.2l10.3,6.8l3.5-4.1c1.2-1.4,3-2,4.8-1.7
				c0.9,0.1,1.7,0.5,2.5,1.1c2.2,1.8,2.4,5.1,0.6,7.2l-2.6,3.1l18.9,12.4l48.8-22.4c0,0,16-7,25.9-5.3c2.9,0.5,5.4,1.7,6.6,4.2
				c7.3,13.8-20.9,28-20.9,28l-48.2,22.2l-2.5,19.4l7.5,0.7c0.1,0,0.3,0,0.4,0c2.6,0.4,4.5,2.8,4.3,5.5c-0.2,2.8-2.8,4.9-5.6,4.7
				l-8-0.7l-1.6,12.2l4.5,0.4c0.1,0,0.3,0,0.4,0c2.6,0.4,4.5,2.8,4.3,5.5c-0.2,2.8-2.8,4.9-5.6,4.7l-5-0.4l-4.3,33.8
				c-0.4,3.5-2.7,6.5-5.9,8C636.1,331.4,634,331.6,632.1,331.3"/>
			<path class="st2" d="M724,186.6c-5.6-10.6-32.6,1.1-32.6,1.1l-48.8,22.4l-18.9-12.4l2.6-3.1c1.8-2.2,1.6-5.4-0.6-7.2
				c-2.2-1.8-5.4-1.6-7.2,0.6l-3.5,4.1l-10.3-6.8l1.9-2.2c1.8-2.2,1.6-5.4-0.6-7.2c-2.2-1.8-5.4-1.6-7.2,0.6l-2.7,3.2l-25.7-16.9
				c-2.9-1.9-6.7-2.2-9.9-0.7c-6.3,2.9-7.9,11-3.3,16.1l45.5,50.5l-49.9,30l-17.9-9.7c-2.2-1.2-4.9-1.3-7.2-0.2
				c-4.8,2.2-6.2,8.5-2.7,12.5l11.1,11.1l-8.6,3.5c-2,0.8-3,3.1-2.2,5.1c0.8,2,3.1,3,5.1,2.2l8.6-3.5l2,16.1
				c0.8,5.3,6.4,8.3,11.3,6.1c2.3-1.1,4-3.1,4.5-5.6l4.3-19.9l53.8-20.9l8.7,67.4c0.9,6.8,8.1,10.8,14.4,8c3.2-1.5,5.4-4.5,5.9-8
				l4.3-33.8l5,0.4c2.8,0.2,5.3-1.9,5.6-4.7c0.2-2.8-1.9-5.3-4.7-5.6l-4.5-0.4l1.6-12.2l8,0.7c2.8,0.2,5.3-1.8,5.6-4.7
				c0.2-2.8-1.9-5.3-4.7-5.6l-7.5-0.7l2.5-19.4l48.2-22.2C703.1,214.6,731.4,200.4,724,186.6z"/>
			<path class="st3" d="M551.3,265.7l-25.9,11c-1.9,0.8-2.8,3-2,4.9l0.2,0.5c0.8,1.9,3,2.8,4.9,2l25.9-11c1.9-0.8,2.8-3,2-4.9
				l-0.2-0.5C555.4,265.8,553.2,264.9,551.3,265.7z"/>
			<path class="st3" d="M602.7,228.5l11.2-5.2l-41.6-37.7c0,0-6.5,2-5.9,2.7C567.1,189.1,602.7,228.5,602.7,228.5z"/>
			<polygon class="st3" points="615,255.2 626.3,249.9 627.2,299.1 621,302 			"/>
		</g>
		<g>
			<g>
				<line class="st4" x1="537.1" y1="232.8" x2="580.3" y2="212.8"/>
				<line class="st4" x1="551.7" y1="239.4" x2="573.6" y2="228.5"/>
				<line class="st4" x1="566.8" y1="292.9" x2="594.7" y2="280"/>
				<line class="st4" x1="573.8" y1="302.1" x2="611.9" y2="284.5"/>
			</g>
		</g>
	</g>
</g>
</svg>
